<svg width="68" height="68" viewBox="0 0 68 68" fill="none" xmlns="http://www.w3.org/2000/svg">
<circle cx="34" cy="34" r="33.5" stroke="white"/>
<path d="M44.4814 39.838C44.1354 40.4451 43.6348 40.9497 43.0305 41.3006C42.4262 41.6515 41.7398 41.8361 41.0411 41.8358C39.991 41.8358 38.9839 41.4187 38.2413 40.6763C37.4987 39.9339 37.0813 38.9269 37.0811 37.8769V35.3039C37.0811 34.2536 37.4983 33.2464 38.2409 32.5038C38.9836 31.7611 39.9908 31.3439 41.0411 31.3439C42.0911 31.3442 43.0981 31.7615 43.8405 32.5041C44.5829 33.2467 45 34.2538 45 35.3039V36.5904H37.0821" stroke="white" stroke-linecap="round" stroke-linejoin="round"/>
<path d="M29.533 33.9179C30.5719 33.9348 31.5626 34.3594 32.2914 35.1001C33.0201 35.8408 33.4285 36.8383 33.4285 37.8774C33.4285 38.9165 33.0201 39.914 32.2914 40.6547C31.5626 41.3954 30.5719 41.82 29.533 41.8369H23V26H29.533C30.5672 26.0238 31.551 26.4513 32.274 27.1912C32.9971 27.9311 33.4019 28.9245 33.4019 29.959C33.4019 30.9934 32.9971 31.9869 32.274 32.7267C31.551 33.4666 30.5672 33.8941 29.533 33.9179ZM29.533 33.9179H23" stroke="white" stroke-width="0.866" stroke-linecap="round" stroke-linejoin="round"/>
<path d="M37.0821 26H45" stroke="white" stroke-linecap="round" stroke-linejoin="round"/>
<rect x="16.5" y="16.5" width="35" height="35" rx="7.5" stroke="white"/>
</svg>
