<?xml version="1.0" standalone="no"?>
<!DOCTYPE svg PUBLIC "-//W3C//DTD SVG 20010904//EN"
 "http://www.w3.org/TR/2001/REC-SVG-20010904/DTD/svg10.dtd">
<svg version="1.0" xmlns="http://www.w3.org/2000/svg"
 width="512.000000pt" height="512.000000pt" viewBox="0 0 512.000000 512.000000"
 preserveAspectRatio="xMidYMid meet">

<g transform="translate(0.000000,512.000000) scale(0.100000,-0.100000)"
fill="#fff" stroke="currentColor">
<path d="M0 2591 l0 -1571 813 0 c848 0 920 3 1092 45 380 91 626 315 707 643
33 131 30 341 -5 475 -66 251 -220 420 -468 517 l-70 27 82 48 c117 67 217
171 268 278 58 120 75 211 68 377 -10 229 -59 355 -191 485 -91 91 -169 137
-304 179 -190 60 -190 60 -1129 63 l-863 4 0 -1570z m1533 1014 c131 -27 229
-105 263 -208 23 -67 23 -194 1 -267 -31 -105 -102 -173 -219 -213 -60 -20
-85 -22 -475 -25 l-413 -3 0 365 0 366 388 0 c298 0 403 -4 455 -15z m112
-1209 c204 -60 295 -190 295 -422 0 -218 -93 -340 -305 -400 -51 -15 -124 -18
-502 -22 l-443 -4 0 437 0 436 448 -4 c388 -3 455 -6 507 -21z"/>
<path d="M3347 3993 c-4 -3 -7 -73 -7 -155 l0 -148 640 0 641 0 -3 153 -3 152
-631 3 c-347 1 -634 -1 -637 -5z"/>
<path d="M3858 3349 c-179 -21 -374 -92 -519 -189 -87 -58 -234 -208 -293
-300 -140 -213 -201 -432 -199 -720 1 -244 42 -424 141 -614 148 -282 417
-475 761 -543 109 -22 401 -24 511 -4 300 54 512 191 669 431 51 79 122 225
137 284 l6 26 -274 0 -275 0 -19 -42 c-62 -138 -273 -247 -477 -248 -328 0
-526 180 -553 503 l-7 77 827 0 826 0 0 95 c0 439 -157 810 -435 1031 -85 68
-262 155 -370 183 -148 38 -298 48 -457 30z m275 -480 c61 -12 141 -49 188
-88 75 -63 146 -206 164 -333 l6 -48 -510 0 c-480 0 -511 1 -511 18 0 40 33
150 62 209 51 104 159 193 283 233 78 26 213 30 318 9z"/>
</g>
</svg>
