<svg width="68" height="68" viewBox="0 0 68 68" fill="none" xmlns="http://www.w3.org/2000/svg">
<circle cx="34" cy="34" r="33.5" stroke="white"/>
<path d="M34 25.75C32.3683 25.75 30.7733 26.2339 29.4165 27.1404C28.0598 28.0469 27.0024 29.3354 26.378 30.8429C25.7536 32.3504 25.5902 34.0092 25.9085 35.6095C26.2269 37.2098 27.0126 38.6798 28.1664 39.8336C29.3202 40.9874 30.7902 41.7732 32.3905 42.0915C33.9908 42.4098 35.6496 42.2464 37.1571 41.622C38.6646 40.9976 39.9531 39.9402 40.8596 38.5835C41.7661 37.2267 42.25 35.6317 42.25 34C42.25 31.812 41.3808 29.7135 39.8336 28.1664C38.2865 26.6192 36.188 25.75 34 25.75ZM34 40.75C32.665 40.75 31.3599 40.3541 30.2499 39.6124C29.1399 38.8707 28.2747 37.8165 27.7638 36.5831C27.2529 35.3497 27.1192 33.9925 27.3797 32.6831C27.6401 31.3738 28.283 30.171 29.227 29.227C30.171 28.283 31.3738 27.6401 32.6831 27.3797C33.9925 27.1192 35.3497 27.2529 36.5831 27.7638C37.8165 28.2747 38.8707 29.1399 39.6124 30.2499C40.3541 31.3599 40.75 32.665 40.75 34C40.75 35.7902 40.0388 37.5071 38.773 38.773C37.5071 40.0388 35.7902 40.75 34 40.75ZM42.25 16H25.75C23.1641 16 20.6842 17.0272 18.8557 18.8557C17.0272 20.6842 16 23.1641 16 25.75V42.25C16 43.5304 16.2522 44.7982 16.7422 45.9812C17.2322 47.1641 17.9503 48.2389 18.8557 49.1443C20.6842 50.9728 23.1641 52 25.75 52H42.25C43.5304 52 44.7982 51.7478 45.9812 51.2578C47.1641 50.7678 48.2389 50.0497 49.1443 49.1443C50.0497 48.2389 50.7678 47.1641 51.2578 45.9812C51.7478 44.7982 52 43.5304 52 42.25V25.75C52 24.4696 51.7478 23.2018 51.2578 22.0188C50.7678 20.8359 50.0497 19.7611 49.1443 18.8557C48.2389 17.9503 47.1641 17.2322 45.9812 16.7422C44.7982 16.2522 43.5304 16 42.25 16ZM50.5 42.25C50.5 44.438 49.6308 46.5365 48.0836 48.0836C46.5365 49.6308 44.438 50.5 42.25 50.5H25.75C23.562 50.5 21.4635 49.6308 19.9164 48.0836C18.3692 46.5365 17.5 44.438 17.5 42.25V25.75C17.5 23.562 18.3692 21.4635 19.9164 19.9164C21.4635 18.3692 23.562 17.5 25.75 17.5H42.25C44.438 17.5 46.5365 18.3692 48.0836 19.9164C49.6308 21.4635 50.5 23.562 50.5 25.75V42.25ZM45.25 24.25C45.25 24.5467 45.162 24.8367 44.9972 25.0834C44.8324 25.33 44.5981 25.5223 44.324 25.6358C44.0499 25.7494 43.7483 25.7791 43.4574 25.7212C43.1664 25.6633 42.8991 25.5204 42.6893 25.3107C42.4796 25.1009 42.3367 24.8336 42.2788 24.5426C42.2209 24.2517 42.2506 23.9501 42.3642 23.676C42.4777 23.4019 42.67 23.1676 42.9166 23.0028C43.1633 22.838 43.4533 22.75 43.75 22.75C44.1478 22.75 44.5294 22.908 44.8107 23.1893C45.092 23.4706 45.25 23.8522 45.25 24.25Z" stroke="white"/>
</svg>
