<?xml version="1.0" standalone="no"?>
<!DOCTYPE svg PUBLIC "-//W3C//DTD SVG 20010904//EN"
 "http://www.w3.org/TR/2001/REC-SVG-20010904/DTD/svg10.dtd">
<svg version="1.0" xmlns="http://www.w3.org/2000/svg"
 width="512.000000pt" height="512.000000pt" viewBox="0 0 512.000000 512.000000"
 preserveAspectRatio="xMidYMid meet">

<g transform="translate(0.000000,512.000000) scale(0.100000,-0.100000)"
fill="currentColor" stroke="currentColor">
<path d="M4150 4794 c-567 -70 -957 -434 -1186 -1106 -18 -54 -31 -98 -29 -98
2 0 43 13 92 29 232 78 440 62 542 -41 103 -104 118 -308 39 -546 -40 -124
-178 -397 -292 -578 -215 -343 -385 -524 -492 -524 -193 0 -369 549 -539 1683
-53 350 -67 430 -100 548 -86 304 -232 487 -440 552 -54 17 -94 21 -175 21
-92 -1 -115 -5 -190 -33 -144 -54 -325 -174 -573 -381 -115 -96 -647 -574
-789 -709 -16 -15 -10 -26 102 -173 l120 -157 139 94 c168 113 229 145 276
145 119 0 242 -158 359 -462 77 -200 142 -428 311 -1088 190 -745 228 -866
346 -1102 80 -162 159 -278 249 -367 139 -138 267 -190 440 -178 494 35 1091
533 1825 1521 463 623 766 1174 875 1591 47 180 55 246 54 455 0 163 -4 212
-23 300 -69 324 -230 509 -506 581 -61 16 -118 21 -240 24 -88 2 -176 1 -195
-1z"/>
</g>
</svg>
