<svg width="1355" height="784" viewBox="0 0 1355 784" fill="none" xmlns="http://www.w3.org/2000/svg">
<path d="M1264 43C1269.52 43 1274 38.5228 1274 33C1274 27.4772 1269.52 23 1264 23C1258.48 23 1254 27.4772 1254 33C1254 38.5228 1258.48 43 1264 43Z" fill="#FF0000"/>
<path d="M1292.73 28.7891H1298.95C1299.88 28.7891 1300.7 28.888 1301.38 29.0859C1302.07 29.2786 1302.64 29.5599 1303.09 29.9297C1303.55 30.2995 1303.88 30.75 1304.1 31.2812C1304.33 31.8125 1304.44 32.4141 1304.44 33.0859C1304.44 33.5391 1304.38 33.9714 1304.27 34.3828C1304.16 34.7891 1303.99 35.1641 1303.77 35.5078C1303.54 35.8516 1303.26 36.1589 1302.91 36.4297C1302.57 36.6953 1302.17 36.9167 1301.7 37.0938L1304.36 41H1301.33L1299.03 37.5312H1298.96L1295.21 37.5234V41H1292.73V28.7891ZM1299.01 35.3828C1299.48 35.3828 1299.89 35.3281 1300.23 35.2188C1300.59 35.1094 1300.88 34.9557 1301.12 34.7578C1301.36 34.5599 1301.53 34.3203 1301.65 34.0391C1301.77 33.7526 1301.83 33.4349 1301.83 33.0859C1301.83 32.4036 1301.59 31.8776 1301.12 31.5078C1300.66 31.1328 1299.95 30.9453 1299.01 30.9453H1295.21V35.3828H1299.01ZM1308.98 28.7891H1319.37V30.9609H1311.45V33.3984H1318.47V35.4375H1311.45V38.8359H1319.54V41H1308.98V28.7891ZM1323.15 34.8203C1323.15 33.9505 1323.31 33.1406 1323.64 32.3906C1323.97 31.6354 1324.44 30.9818 1325.06 30.4297C1325.68 29.8724 1326.44 29.4349 1327.34 29.1172C1328.24 28.7995 1329.26 28.6406 1330.4 28.6406C1331.39 28.6406 1332.3 28.7422 1333.13 28.9453C1333.96 29.1432 1334.74 29.4479 1335.45 29.8594L1334.31 31.7344C1334.1 31.5938 1333.85 31.4688 1333.57 31.3594C1333.29 31.25 1332.99 31.1589 1332.68 31.0859C1332.36 31.0078 1332.04 30.9479 1331.7 30.9062C1331.37 30.8646 1331.04 30.8438 1330.71 30.8438C1329.92 30.8438 1329.21 30.9427 1328.59 31.1406C1327.97 31.3333 1327.45 31.6068 1327.02 31.9609C1326.6 32.3099 1326.28 32.7292 1326.05 33.2188C1325.83 33.7031 1325.72 34.237 1325.72 34.8203C1325.72 35.4245 1325.84 35.9792 1326.07 36.4844C1326.3 36.9896 1326.63 37.4271 1327.06 37.7969C1327.5 38.1615 1328.03 38.4479 1328.65 38.6562C1329.28 38.8594 1329.99 38.9609 1330.79 38.9609C1331.15 38.9609 1331.5 38.9349 1331.86 38.8828C1332.21 38.8307 1332.55 38.7604 1332.88 38.6719C1333.21 38.5781 1333.53 38.4688 1333.84 38.3438C1334.15 38.2135 1334.43 38.0729 1334.7 37.9219L1335.84 39.7969C1335.17 40.224 1334.4 40.5599 1333.53 40.8047C1332.65 41.0443 1331.72 41.1641 1330.74 41.1641C1329.48 41.1641 1328.38 41.0026 1327.43 40.6797C1326.49 40.3516 1325.69 39.9036 1325.06 39.3359C1324.42 38.763 1323.94 38.0911 1323.62 37.3203C1323.3 36.5443 1323.15 35.7109 1323.15 34.8203Z" fill="white"/>
<path d="M142.082 12C1.00001 12 1.00001 12 1.00001 12" stroke="white"/>
<path d="M1 12L0.999994 142" stroke="white"/>
<path d="M1354 131C1354 1.00001 1354 1.00001 1354 1.00001" stroke="white"/>
<path d="M1354 1L1212.92 1" stroke="white"/>
<path d="M1212.92 783C1354 783 1354 783 1354 783" stroke="white"/>
<path d="M1354 783V653" stroke="white"/>
<path d="M1 653C1 783 1 783 1 783" stroke="white"/>
<path d="M1 783H142.082" stroke="white"/>
<path d="M22.7051 728.514C22.7051 727.266 22.8896 726.179 23.2588 725.253C23.6338 724.321 24.1436 723.548 24.7881 722.933C25.4385 722.317 26.2031 721.857 27.082 721.553C27.9609 721.248 28.9102 721.096 29.9297 721.096C30.3574 721.096 30.791 721.119 31.2305 721.166C31.6758 721.207 32.1123 721.274 32.54 721.368C32.9678 721.462 33.3809 721.585 33.7793 721.737C34.1836 721.884 34.5586 722.06 34.9043 722.265L33.665 724.374C33.4072 724.228 33.1318 724.104 32.8389 724.005C32.5518 723.899 32.2529 723.817 31.9424 723.759C31.6318 723.694 31.3184 723.647 31.002 723.618C30.6855 723.589 30.375 723.574 30.0703 723.574C29.3906 723.574 28.7754 723.662 28.2246 723.838C27.6797 724.014 27.208 724.263 26.8096 724.585C26.4111 724.907 26.0918 725.294 25.8516 725.745C25.6172 726.19 25.4707 726.686 25.4121 727.23C25.7168 726.99 26.0537 726.782 26.4229 726.606C26.792 726.431 27.1816 726.287 27.5918 726.176C28.0078 726.059 28.4326 725.974 28.8662 725.921C29.3057 725.862 29.7451 725.833 30.1846 725.833C31.04 725.833 31.8164 725.936 32.5137 726.141C33.2168 726.346 33.8174 726.642 34.3154 727.028C34.8135 727.415 35.1973 727.887 35.4668 728.443C35.7422 728.994 35.8799 729.621 35.8799 730.324C35.8799 731.016 35.7422 731.657 35.4668 732.249C35.1973 732.841 34.7959 733.356 34.2627 733.796C33.7295 734.229 33.0674 734.572 32.2764 734.824C31.4854 735.07 30.5684 735.193 29.5254 735.193C28.5117 735.193 27.5859 735.064 26.748 734.807C25.9102 734.549 25.1924 734.147 24.5947 733.603C23.9971 733.058 23.5312 732.366 23.1973 731.528C22.8691 730.685 22.7051 729.68 22.7051 728.514ZM25.4736 729.806C25.6143 730.767 26.0361 731.493 26.7393 731.985C27.4424 732.472 28.3652 732.715 29.5078 732.715C30.082 732.715 30.5918 732.656 31.0371 732.539C31.4824 732.422 31.8574 732.261 32.1621 732.056C32.4668 731.845 32.6982 731.596 32.8564 731.309C33.0146 731.021 33.0938 730.708 33.0938 730.368C33.0938 730.081 33.0322 729.812 32.9092 729.56C32.7861 729.308 32.5928 729.091 32.3291 728.909C32.0713 728.722 31.7373 728.575 31.3271 728.47C30.917 728.358 30.4219 728.303 29.8418 728.303C29.3555 728.303 28.8955 728.341 28.4619 728.417C28.0283 728.493 27.627 728.599 27.2578 728.733C26.8887 728.868 26.5518 729.026 26.2471 729.208C25.9482 729.39 25.6904 729.589 25.4736 729.806ZM38.6045 728.101C38.6045 726.993 38.7715 726 39.1055 725.121C39.4395 724.242 39.9141 723.498 40.5293 722.889C41.1445 722.273 41.8916 721.805 42.7705 721.482C43.6494 721.16 44.6338 720.999 45.7236 720.999C46.8135 720.999 47.7979 721.16 48.6768 721.482C49.5557 721.805 50.3027 722.273 50.918 722.889C51.5332 723.498 52.0078 724.242 52.3418 725.121C52.6758 726 52.8428 726.993 52.8428 728.101C52.8428 729.208 52.6758 730.201 52.3418 731.08C52.0078 731.959 51.5332 732.703 50.918 733.312C50.3027 733.922 49.5557 734.388 48.6768 734.71C47.7979 735.032 46.8135 735.193 45.7236 735.193C44.6338 735.193 43.6494 735.032 42.7705 734.71C41.8916 734.388 41.1445 733.922 40.5293 733.312C39.9141 732.703 39.4395 731.959 39.1055 731.08C38.7715 730.201 38.6045 729.208 38.6045 728.101ZM41.3906 728.092C41.3906 728.842 41.4902 729.504 41.6895 730.078C41.8945 730.652 42.1846 731.136 42.5596 731.528C42.9346 731.915 43.3887 732.211 43.9219 732.416C44.4551 732.615 45.0557 732.715 45.7236 732.715C46.3916 732.715 46.9922 732.615 47.5254 732.416C48.0586 732.211 48.5127 731.915 48.8877 731.528C49.2627 731.136 49.5498 730.652 49.749 730.078C49.9541 729.504 50.0566 728.842 50.0566 728.092C50.0566 727.348 49.9541 726.691 49.749 726.123C49.5498 725.549 49.2627 725.065 48.8877 724.673C48.5127 724.28 48.0586 723.984 47.5254 723.785C46.9922 723.58 46.3916 723.478 45.7236 723.478C45.0557 723.478 44.4551 723.58 43.9219 723.785C43.3887 723.984 42.9346 724.28 42.5596 724.673C42.1846 725.065 41.8945 725.549 41.6895 726.123C41.4902 726.691 41.3906 727.348 41.3906 728.092ZM62.7305 726.58H60.9551V724.629H62.7305C62.7305 723.926 62.8301 723.302 63.0293 722.757C63.2285 722.206 63.5156 721.743 63.8906 721.368C64.2715 720.987 64.7314 720.697 65.2705 720.498C65.8154 720.299 66.4277 720.199 67.1074 720.199C67.582 720.199 68.0479 720.246 68.5049 720.34C68.9619 720.428 69.3662 720.557 69.7178 720.727L68.7949 722.915C68.6543 722.833 68.4551 722.757 68.1973 722.687C67.9453 722.616 67.667 722.581 67.3623 722.581C66.7646 722.581 66.2812 722.751 65.9121 723.091C65.5488 723.425 65.3555 723.938 65.332 724.629H68.6104V726.58H65.332V735H62.7305V726.58ZM73.1455 739.236H70.5439V724.629H73.1455V725.604C73.374 725.446 73.6436 725.297 73.9541 725.156C74.2646 725.016 74.5986 724.893 74.9561 724.787C75.3135 724.682 75.6826 724.6 76.0635 724.541C76.4443 724.477 76.8252 724.444 77.2061 724.444C78.085 724.444 78.8906 724.573 79.623 724.831C80.3613 725.089 80.9941 725.452 81.5215 725.921C82.0488 726.39 82.459 726.952 82.752 727.608C83.0508 728.259 83.2002 728.979 83.2002 729.771C83.2002 730.597 83.0449 731.344 82.7344 732.012C82.4238 732.674 81.9932 733.242 81.4424 733.717C80.8975 734.186 80.2471 734.549 79.4912 734.807C78.7412 735.059 77.9268 735.185 77.0479 735.185C76.6729 735.185 76.3008 735.161 75.9316 735.114C75.5684 735.067 75.2168 735.003 74.877 734.921C74.543 734.839 74.2266 734.742 73.9277 734.631C73.6348 734.514 73.374 734.388 73.1455 734.253V739.236ZM73.1455 731.739C73.4092 731.95 73.6875 732.129 73.9805 732.275C74.2734 732.422 74.5723 732.542 74.877 732.636C75.1816 732.729 75.4893 732.8 75.7998 732.847C76.1104 732.888 76.4121 732.908 76.7051 732.908C77.3027 732.908 77.833 732.829 78.2959 732.671C78.7646 732.507 79.1572 732.284 79.4736 732.003C79.7959 731.722 80.042 731.391 80.2119 731.01C80.3818 730.629 80.4668 730.216 80.4668 729.771C80.4668 729.354 80.3818 728.962 80.2119 728.593C80.0479 728.224 79.8076 727.901 79.4912 727.626C79.1807 727.345 78.8027 727.125 78.3574 726.967C77.918 726.803 77.4229 726.721 76.8721 726.721C76.5205 726.721 76.1689 726.756 75.8174 726.826C75.4658 726.891 75.126 726.984 74.7979 727.107C74.4756 727.23 74.1709 727.38 73.8838 727.556C73.6025 727.731 73.3564 727.928 73.1455 728.145V731.739ZM86.0742 731.818C86.7773 732.24 87.5508 732.551 88.3945 732.75C89.2383 732.949 90.1025 733.049 90.9873 733.049C91.585 733.049 92.083 733.008 92.4814 732.926C92.8799 732.844 93.1992 732.738 93.4395 732.609C93.6797 732.48 93.8496 732.334 93.9492 732.17C94.0488 732.006 94.0986 731.839 94.0986 731.669C94.0986 731.423 93.9902 731.212 93.7734 731.036C93.5625 730.86 93.2109 730.772 92.7188 730.772C92.4902 730.772 92.2441 730.787 91.9805 730.816C91.7168 730.846 91.4385 730.878 91.1455 730.913C90.8584 730.942 90.5566 730.972 90.2402 731.001C89.9297 731.03 89.6133 731.045 89.291 731.045C88.5879 731.045 87.9873 730.969 87.4893 730.816C86.9971 730.664 86.5957 730.456 86.2852 730.192C85.9746 729.929 85.749 729.618 85.6084 729.261C85.4678 728.897 85.3975 728.508 85.3975 728.092C85.3975 727.564 85.5205 727.078 85.7666 726.633C86.0127 726.188 86.3643 725.804 86.8213 725.481C87.2783 725.153 87.8291 724.898 88.4736 724.717C89.124 724.535 89.8477 724.444 90.6445 724.444C91.0605 724.444 91.4941 724.471 91.9453 724.523C92.4023 724.57 92.8506 724.635 93.29 724.717C93.7295 724.799 94.1514 724.896 94.5557 725.007C94.96 725.112 95.3174 725.227 95.6279 725.35L94.8105 727.371C94.1484 727.125 93.4863 726.932 92.8242 726.791C92.168 726.645 91.4912 726.571 90.7939 726.571C90.3076 726.571 89.8945 726.609 89.5547 726.686C89.2207 726.756 88.9482 726.853 88.7373 726.976C88.5264 727.093 88.3711 727.23 88.2715 727.389C88.1777 727.541 88.1309 727.702 88.1309 727.872C88.1309 727.995 88.1543 728.106 88.2012 728.206C88.2539 728.306 88.3359 728.394 88.4473 728.47C88.5645 728.54 88.7139 728.596 88.8955 728.637C89.083 728.672 89.3115 728.689 89.5811 728.689C89.8271 728.689 90.0879 728.675 90.3633 728.646C90.6387 728.616 90.9258 728.587 91.2246 728.558C91.5234 728.522 91.8311 728.49 92.1475 728.461C92.4697 728.432 92.7979 728.417 93.1318 728.417C93.7529 728.417 94.2949 728.49 94.7578 728.637C95.2266 728.783 95.6133 728.988 95.918 729.252C96.2227 729.516 96.4512 729.826 96.6035 730.184C96.7559 730.541 96.832 730.931 96.832 731.353C96.832 731.897 96.7061 732.404 96.4541 732.873C96.2021 733.342 95.8271 733.749 95.3291 734.095C94.8311 734.435 94.21 734.701 93.4658 734.895C92.7275 735.088 91.8721 735.185 90.8994 735.185C90.3018 735.185 89.7246 735.146 89.168 735.07C88.6113 735 88.0811 734.903 87.5771 734.78C87.0732 734.651 86.5986 734.502 86.1533 734.332C85.7139 734.162 85.3125 733.98 84.9492 733.787L86.0742 731.818Z" fill="white"/>
<path d="M18.4326 762.557H21.5527V754.005C21.1426 754.099 20.7471 754.222 20.3662 754.374C19.9912 754.526 19.6484 754.711 19.3379 754.928L17.9668 752.968C18.4707 752.651 18.9834 752.385 19.5049 752.168C20.0322 751.945 20.5625 751.77 21.0957 751.641C21.6348 751.506 22.1738 751.409 22.7129 751.351C23.2578 751.292 23.7998 751.263 24.3389 751.263L24.3301 751.28H24.3389V762.557H27.3184V765H18.4326V762.557ZM31.1592 761.827C31.4111 761.974 31.6924 762.103 32.0029 762.214C32.3135 762.325 32.6328 762.419 32.9609 762.495C33.2949 762.565 33.6289 762.621 33.9629 762.662C34.3027 762.697 34.625 762.715 34.9297 762.715C35.6094 762.715 36.2217 762.627 36.7666 762.451C37.3174 762.275 37.792 762.026 38.1904 761.704C38.5889 761.382 38.9053 760.998 39.1396 760.553C39.3799 760.102 39.5293 759.604 39.5879 759.059C39.2832 759.299 38.9463 759.507 38.5771 759.683C38.208 759.858 37.8154 760.005 37.3994 760.122C36.9893 760.233 36.5645 760.318 36.125 760.377C35.6914 760.43 35.2549 760.456 34.8154 760.456C33.96 760.456 33.1807 760.354 32.4775 760.148C31.7803 759.943 31.1826 759.647 30.6846 759.261C30.1865 758.874 29.7998 758.405 29.5244 757.854C29.2549 757.298 29.1201 756.668 29.1201 755.965C29.1201 755.273 29.2549 754.632 29.5244 754.04C29.7998 753.448 30.2041 752.936 30.7373 752.502C31.2705 752.062 31.9326 751.72 32.7236 751.474C33.5146 751.222 34.4316 751.096 35.4746 751.096C36.4883 751.096 37.4141 751.225 38.252 751.482C39.0898 751.74 39.8076 752.142 40.4053 752.687C41.0029 753.231 41.4658 753.926 41.7939 754.77C42.1279 755.607 42.2949 756.609 42.2949 757.775C42.2949 759.023 42.1074 760.113 41.7324 761.045C41.3633 761.971 40.8535 762.741 40.2031 763.356C39.5586 763.972 38.7969 764.432 37.918 764.736C37.0391 765.041 36.0898 765.193 35.0703 765.193C34.6426 765.193 34.1973 765.167 33.7344 765.114C33.2773 765.062 32.8232 764.982 32.3721 764.877C31.9209 764.771 31.4844 764.64 31.0625 764.481C30.6465 764.323 30.2656 764.142 29.9199 763.937L31.1592 761.827ZM31.9062 755.921C31.9062 756.208 31.9678 756.478 32.0908 756.729C32.2139 756.981 32.4043 757.201 32.6621 757.389C32.9258 757.57 33.2627 757.717 33.6729 757.828C34.083 757.934 34.5781 757.986 35.1582 757.986C35.6445 757.986 36.1045 757.948 36.5381 757.872C36.9717 757.796 37.373 757.69 37.7422 757.556C38.1113 757.421 38.4453 757.263 38.7441 757.081C39.0488 756.899 39.3096 756.7 39.5264 756.483C39.3857 755.522 38.9639 754.799 38.2607 754.312C37.5576 753.82 36.6348 753.574 35.4922 753.574C34.918 753.574 34.4082 753.633 33.9629 753.75C33.5176 753.867 33.1426 754.031 32.8379 754.242C32.5332 754.447 32.3018 754.693 32.1436 754.98C31.9854 755.268 31.9062 755.581 31.9062 755.921ZM45.916 762.609L50.7588 759.287C51.4854 758.789 52.0801 758.355 52.543 757.986C53.0059 757.617 53.3691 757.289 53.6328 757.002C53.8965 756.709 54.0781 756.445 54.1777 756.211C54.2773 755.977 54.3271 755.742 54.3271 755.508C54.3271 755.238 54.2715 754.986 54.1602 754.752C54.0488 754.518 53.873 754.312 53.6328 754.137C53.3984 753.961 53.0938 753.823 52.7188 753.724C52.3496 753.624 51.9072 753.574 51.3916 753.574C50.6416 753.574 49.8945 753.68 49.1504 753.891C48.4062 754.102 47.6475 754.438 46.874 754.901L45.5908 752.792C46.4521 752.259 47.3838 751.843 48.3857 751.544C49.3936 751.245 50.4512 751.096 51.5586 751.096C52.5254 751.096 53.3633 751.213 54.0723 751.447C54.7871 751.676 55.376 751.989 55.8389 752.388C56.3076 752.786 56.6562 753.249 56.8848 753.776C57.1133 754.304 57.2275 754.863 57.2275 755.455C57.2275 755.912 57.1514 756.349 56.999 756.765C56.8467 757.181 56.5801 757.611 56.1992 758.057C55.8184 758.502 55.3027 758.982 54.6523 759.498C54.0078 760.008 53.1934 760.588 52.209 761.238L50.2051 762.557H57.7285V765H45.916V762.609ZM60.1455 758.101C60.1455 756.993 60.3125 756 60.6465 755.121C60.9805 754.242 61.4551 753.498 62.0703 752.889C62.6855 752.273 63.4326 751.805 64.3115 751.482C65.1904 751.16 66.1748 750.999 67.2646 750.999C68.3545 750.999 69.3389 751.16 70.2178 751.482C71.0967 751.805 71.8438 752.273 72.459 752.889C73.0742 753.498 73.5488 754.242 73.8828 755.121C74.2168 756 74.3838 756.993 74.3838 758.101C74.3838 759.208 74.2168 760.201 73.8828 761.08C73.5488 761.959 73.0742 762.703 72.459 763.312C71.8438 763.922 71.0967 764.388 70.2178 764.71C69.3389 765.032 68.3545 765.193 67.2646 765.193C66.1748 765.193 65.1904 765.032 64.3115 764.71C63.4326 764.388 62.6855 763.922 62.0703 763.312C61.4551 762.703 60.9805 761.959 60.6465 761.08C60.3125 760.201 60.1455 759.208 60.1455 758.101ZM62.9316 758.092C62.9316 758.842 63.0312 759.504 63.2305 760.078C63.4355 760.652 63.7256 761.136 64.1006 761.528C64.4756 761.915 64.9297 762.211 65.4629 762.416C65.9961 762.615 66.5967 762.715 67.2646 762.715C67.9326 762.715 68.5332 762.615 69.0664 762.416C69.5996 762.211 70.0537 761.915 70.4287 761.528C70.8037 761.136 71.0908 760.652 71.29 760.078C71.4951 759.504 71.5977 758.842 71.5977 758.092C71.5977 757.348 71.4951 756.691 71.29 756.123C71.0908 755.549 70.8037 755.065 70.4287 754.673C70.0537 754.28 69.5996 753.984 69.0664 753.785C68.5332 753.58 67.9326 753.478 67.2646 753.478C66.5967 753.478 65.9961 753.58 65.4629 753.785C64.9297 753.984 64.4756 754.28 64.1006 754.673C63.7256 755.065 63.4355 755.549 63.2305 756.123C63.0312 756.691 62.9316 757.348 62.9316 758.092ZM85.8271 759.814L81.5381 754.62H84.8604L87.4619 757.784L89.9316 754.62H93.1748L89.1406 759.806L93.4297 765H90.1074L87.4268 761.757L84.9395 765H81.6963L85.8271 759.814ZM100.874 762.557H103.994V754.005C103.584 754.099 103.188 754.222 102.808 754.374C102.433 754.526 102.09 754.711 101.779 754.928L100.408 752.968C100.912 752.651 101.425 752.385 101.946 752.168C102.474 751.945 103.004 751.77 103.537 751.641C104.076 751.506 104.615 751.409 105.154 751.351C105.699 751.292 106.241 751.263 106.78 751.263L106.771 751.28H106.78V762.557H109.76V765H100.874V762.557ZM111.087 758.101C111.087 756.993 111.254 756 111.588 755.121C111.922 754.242 112.396 753.498 113.012 752.889C113.627 752.273 114.374 751.805 115.253 751.482C116.132 751.16 117.116 750.999 118.206 750.999C119.296 750.999 120.28 751.16 121.159 751.482C122.038 751.805 122.785 752.273 123.4 752.889C124.016 753.498 124.49 754.242 124.824 755.121C125.158 756 125.325 756.993 125.325 758.101C125.325 759.208 125.158 760.201 124.824 761.08C124.49 761.959 124.016 762.703 123.4 763.312C122.785 763.922 122.038 764.388 121.159 764.71C120.28 765.032 119.296 765.193 118.206 765.193C117.116 765.193 116.132 765.032 115.253 764.71C114.374 764.388 113.627 763.922 113.012 763.312C112.396 762.703 111.922 761.959 111.588 761.08C111.254 760.201 111.087 759.208 111.087 758.101ZM113.873 758.092C113.873 758.842 113.973 759.504 114.172 760.078C114.377 760.652 114.667 761.136 115.042 761.528C115.417 761.915 115.871 762.211 116.404 762.416C116.938 762.615 117.538 762.715 118.206 762.715C118.874 762.715 119.475 762.615 120.008 762.416C120.541 762.211 120.995 761.915 121.37 761.528C121.745 761.136 122.032 760.652 122.231 760.078C122.437 759.504 122.539 758.842 122.539 758.092C122.539 757.348 122.437 756.691 122.231 756.123C122.032 755.549 121.745 755.065 121.37 754.673C120.995 754.28 120.541 753.984 120.008 753.785C119.475 753.58 118.874 753.478 118.206 753.478C117.538 753.478 116.938 753.58 116.404 753.785C115.871 753.984 115.417 754.28 115.042 754.673C114.667 755.065 114.377 755.549 114.172 756.123C113.973 756.691 113.873 757.348 113.873 758.092ZM127.856 760.816C127.856 760.406 127.912 760.025 128.023 759.674C128.135 759.322 128.287 759.003 128.48 758.716C128.674 758.423 128.896 758.165 129.148 757.942C129.406 757.714 129.682 757.515 129.975 757.345C129.57 756.946 129.277 756.551 129.096 756.158C128.914 755.76 128.823 755.379 128.823 755.016C128.823 754.436 128.958 753.905 129.228 753.425C129.503 752.944 129.896 752.531 130.405 752.186C130.915 751.834 131.533 751.564 132.26 751.377C132.986 751.184 133.804 751.087 134.712 751.087C135.62 751.087 136.438 751.184 137.164 751.377C137.891 751.564 138.509 751.834 139.019 752.186C139.528 752.531 139.918 752.944 140.188 753.425C140.463 753.905 140.601 754.436 140.601 755.016C140.601 755.379 140.51 755.76 140.328 756.158C140.146 756.551 139.854 756.946 139.449 757.345C139.736 757.515 140.009 757.714 140.267 757.942C140.524 758.165 140.75 758.423 140.943 758.716C141.137 759.003 141.289 759.322 141.4 759.674C141.512 760.025 141.567 760.406 141.567 760.816C141.567 761.502 141.406 762.117 141.084 762.662C140.768 763.201 140.311 763.658 139.713 764.033C139.121 764.402 138.4 764.687 137.551 764.886C136.707 765.085 135.761 765.185 134.712 765.185C133.663 765.185 132.714 765.085 131.864 764.886C131.021 764.687 130.3 764.402 129.702 764.033C129.11 763.658 128.653 763.201 128.331 762.662C128.015 762.117 127.856 761.502 127.856 760.816ZM131.609 755.139C131.609 755.355 131.662 755.561 131.768 755.754C131.879 755.941 132.055 756.108 132.295 756.255C132.541 756.396 132.86 756.507 133.253 756.589C133.651 756.671 134.138 756.712 134.712 756.712C135.286 756.712 135.77 756.671 136.162 756.589C136.561 756.507 136.88 756.396 137.12 756.255C137.366 756.108 137.542 755.941 137.647 755.754C137.759 755.561 137.814 755.355 137.814 755.139C137.814 754.922 137.759 754.72 137.647 754.532C137.542 754.339 137.366 754.172 137.12 754.031C136.88 753.885 136.561 753.771 136.162 753.688C135.77 753.606 135.286 753.565 134.712 753.565C134.138 753.565 133.651 753.606 133.253 753.688C132.86 753.771 132.541 753.885 132.295 754.031C132.055 754.172 131.879 754.339 131.768 754.532C131.662 754.72 131.609 754.922 131.609 755.139ZM130.643 760.685C130.643 760.983 130.728 761.259 130.897 761.511C131.073 761.757 131.331 761.968 131.671 762.144C132.011 762.319 132.436 762.457 132.945 762.557C133.455 762.656 134.044 762.706 134.712 762.706C135.38 762.706 135.969 762.656 136.479 762.557C136.988 762.457 137.413 762.319 137.753 762.144C138.093 761.968 138.348 761.757 138.518 761.511C138.693 761.259 138.781 760.983 138.781 760.685C138.781 760.386 138.696 760.113 138.526 759.867C138.362 759.615 138.11 759.401 137.771 759.226C137.437 759.05 137.015 758.912 136.505 758.812C135.995 758.713 135.397 758.663 134.712 758.663C134.026 758.663 133.429 758.713 132.919 758.812C132.409 758.912 131.984 759.05 131.645 759.226C131.311 759.401 131.059 759.615 130.889 759.867C130.725 760.113 130.643 760.386 130.643 760.685ZM144.081 758.101C144.081 756.993 144.248 756 144.582 755.121C144.916 754.242 145.391 753.498 146.006 752.889C146.621 752.273 147.368 751.805 148.247 751.482C149.126 751.16 150.11 750.999 151.2 750.999C152.29 750.999 153.274 751.16 154.153 751.482C155.032 751.805 155.779 752.273 156.395 752.889C157.01 753.498 157.484 754.242 157.818 755.121C158.152 756 158.319 756.993 158.319 758.101C158.319 759.208 158.152 760.201 157.818 761.08C157.484 761.959 157.01 762.703 156.395 763.312C155.779 763.922 155.032 764.388 154.153 764.71C153.274 765.032 152.29 765.193 151.2 765.193C150.11 765.193 149.126 765.032 148.247 764.71C147.368 764.388 146.621 763.922 146.006 763.312C145.391 762.703 144.916 761.959 144.582 761.08C144.248 760.201 144.081 759.208 144.081 758.101ZM146.867 758.092C146.867 758.842 146.967 759.504 147.166 760.078C147.371 760.652 147.661 761.136 148.036 761.528C148.411 761.915 148.865 762.211 149.398 762.416C149.932 762.615 150.532 762.715 151.2 762.715C151.868 762.715 152.469 762.615 153.002 762.416C153.535 762.211 153.989 761.915 154.364 761.528C154.739 761.136 155.026 760.652 155.226 760.078C155.431 759.504 155.533 758.842 155.533 758.092C155.533 757.348 155.431 756.691 155.226 756.123C155.026 755.549 154.739 755.065 154.364 754.673C153.989 754.28 153.535 753.984 153.002 753.785C152.469 753.58 151.868 753.478 151.2 753.478C150.532 753.478 149.932 753.58 149.398 753.785C148.865 753.984 148.411 754.28 148.036 754.673C147.661 755.065 147.371 755.549 147.166 756.123C146.967 756.691 146.867 757.348 146.867 758.092Z" fill="white"/>
<path d="M1225.13 748.101C1225.13 746.993 1225.3 746 1225.63 745.121C1225.97 744.242 1226.44 743.498 1227.06 742.889C1227.67 742.273 1228.42 741.805 1229.3 741.482C1230.18 741.16 1231.16 740.999 1232.25 740.999C1233.34 740.999 1234.33 741.16 1235.21 741.482C1236.08 741.805 1236.83 742.273 1237.45 742.889C1238.06 743.498 1238.54 744.242 1238.87 745.121C1239.21 746 1239.37 746.993 1239.37 748.101C1239.37 749.208 1239.21 750.201 1238.87 751.08C1238.54 751.959 1238.06 752.703 1237.45 753.312C1236.83 753.922 1236.08 754.388 1235.21 754.71C1234.33 755.032 1233.34 755.193 1232.25 755.193C1231.16 755.193 1230.18 755.032 1229.3 754.71C1228.42 754.388 1227.67 753.922 1227.06 753.312C1226.44 752.703 1225.97 751.959 1225.63 751.08C1225.3 750.201 1225.13 749.208 1225.13 748.101ZM1227.92 748.092C1227.92 748.842 1228.02 749.504 1228.22 750.078C1228.42 750.652 1228.71 751.136 1229.09 751.528C1229.46 751.915 1229.92 752.211 1230.45 752.416C1230.98 752.615 1231.58 752.715 1232.25 752.715C1232.92 752.715 1233.52 752.615 1234.05 752.416C1234.59 752.211 1235.04 751.915 1235.42 751.528C1235.79 751.136 1236.08 750.652 1236.28 750.078C1236.48 749.504 1236.59 748.842 1236.59 748.092C1236.59 747.348 1236.48 746.691 1236.28 746.123C1236.08 745.549 1235.79 745.065 1235.42 744.673C1235.04 744.28 1234.59 743.984 1234.05 743.785C1233.52 743.58 1232.92 743.478 1232.25 743.478C1231.58 743.478 1230.98 743.58 1230.45 743.785C1229.92 743.984 1229.46 744.28 1229.09 744.673C1228.71 745.065 1228.42 745.549 1228.22 746.123C1228.02 746.691 1227.92 747.348 1227.92 748.092ZM1241.66 748.101C1241.66 746.993 1241.82 746 1242.16 745.121C1242.49 744.242 1242.97 743.498 1243.58 742.889C1244.2 742.273 1244.94 741.805 1245.82 741.482C1246.7 741.16 1247.69 740.999 1248.78 740.999C1249.87 740.999 1250.85 741.16 1251.73 741.482C1252.61 741.805 1253.36 742.273 1253.97 742.889C1254.59 743.498 1255.06 744.242 1255.39 745.121C1255.73 746 1255.9 746.993 1255.9 748.101C1255.9 749.208 1255.73 750.201 1255.39 751.08C1255.06 751.959 1254.59 752.703 1253.97 753.312C1253.36 753.922 1252.61 754.388 1251.73 754.71C1250.85 755.032 1249.87 755.193 1248.78 755.193C1247.69 755.193 1246.7 755.032 1245.82 754.71C1244.94 754.388 1244.2 753.922 1243.58 753.312C1242.97 752.703 1242.49 751.959 1242.16 751.08C1241.82 750.201 1241.66 749.208 1241.66 748.101ZM1244.44 748.092C1244.44 748.842 1244.54 749.504 1244.74 750.078C1244.95 750.652 1245.24 751.136 1245.61 751.528C1245.99 751.915 1246.44 752.211 1246.97 752.416C1247.51 752.615 1248.11 752.715 1248.78 752.715C1249.44 752.715 1250.04 752.615 1250.58 752.416C1251.11 752.211 1251.57 751.915 1251.94 751.528C1252.32 751.136 1252.6 750.652 1252.8 750.078C1253.01 749.504 1253.11 748.842 1253.11 748.092C1253.11 747.348 1253.01 746.691 1252.8 746.123C1252.6 745.549 1252.32 745.065 1251.94 744.673C1251.57 744.28 1251.11 743.984 1250.58 743.785C1250.04 743.58 1249.44 743.478 1248.78 743.478C1248.11 743.478 1247.51 743.58 1246.97 743.785C1246.44 743.984 1245.99 744.28 1245.61 744.673C1245.24 745.065 1244.95 745.549 1244.74 746.123C1244.54 746.691 1244.44 747.348 1244.44 748.092ZM1258.73 753.479C1258.73 753.245 1258.77 753.025 1258.87 752.82C1258.97 752.609 1259.11 752.428 1259.29 752.275C1259.47 752.117 1259.69 751.994 1259.95 751.906C1260.21 751.818 1260.5 751.774 1260.82 751.774C1261.14 751.774 1261.43 751.818 1261.69 751.906C1261.95 751.994 1262.16 752.117 1262.34 752.275C1262.52 752.428 1262.66 752.609 1262.75 752.82C1262.85 753.025 1262.9 753.245 1262.9 753.479C1262.9 753.714 1262.85 753.937 1262.75 754.147C1262.66 754.353 1262.52 754.531 1262.34 754.684C1262.16 754.836 1261.95 754.956 1261.69 755.044C1261.43 755.138 1261.14 755.185 1260.82 755.185C1260.5 755.185 1260.21 755.138 1259.95 755.044C1259.69 754.956 1259.47 754.836 1259.29 754.684C1259.11 754.531 1258.97 754.353 1258.87 754.147C1258.77 753.937 1258.73 753.714 1258.73 753.479ZM1258.73 746.141C1258.73 745.906 1258.77 745.687 1258.87 745.481C1258.97 745.271 1259.11 745.089 1259.29 744.937C1259.47 744.778 1259.69 744.655 1259.95 744.567C1260.21 744.479 1260.5 744.436 1260.82 744.436C1261.14 744.436 1261.43 744.479 1261.69 744.567C1261.95 744.655 1262.16 744.778 1262.34 744.937C1262.52 745.089 1262.66 745.271 1262.75 745.481C1262.85 745.687 1262.9 745.906 1262.9 746.141C1262.9 746.375 1262.85 746.598 1262.75 746.809C1262.66 747.014 1262.52 747.192 1262.34 747.345C1262.16 747.497 1261.95 747.62 1261.69 747.714C1261.43 747.802 1261.14 747.846 1260.82 747.846C1260.5 747.846 1260.21 747.802 1259.95 747.714C1259.69 747.62 1259.47 747.497 1259.29 747.345C1259.11 747.192 1258.97 747.014 1258.87 746.809C1258.77 746.598 1258.73 746.375 1258.73 746.141ZM1265.72 748.101C1265.72 746.993 1265.89 746 1266.22 745.121C1266.56 744.242 1267.03 743.498 1267.65 742.889C1268.26 742.273 1269.01 741.805 1269.89 741.482C1270.77 741.16 1271.75 740.999 1272.84 740.999C1273.93 740.999 1274.92 741.16 1275.79 741.482C1276.67 741.805 1277.42 742.273 1278.04 742.889C1278.65 743.498 1279.12 744.242 1279.46 745.121C1279.79 746 1279.96 746.993 1279.96 748.101C1279.96 749.208 1279.79 750.201 1279.46 751.08C1279.12 751.959 1278.65 752.703 1278.04 753.312C1277.42 753.922 1276.67 754.388 1275.79 754.71C1274.92 755.032 1273.93 755.193 1272.84 755.193C1271.75 755.193 1270.77 755.032 1269.89 754.71C1269.01 754.388 1268.26 753.922 1267.65 753.312C1267.03 752.703 1266.56 751.959 1266.22 751.08C1265.89 750.201 1265.72 749.208 1265.72 748.101ZM1268.51 748.092C1268.51 748.842 1268.61 749.504 1268.81 750.078C1269.01 750.652 1269.3 751.136 1269.68 751.528C1270.05 751.915 1270.51 752.211 1271.04 752.416C1271.57 752.615 1272.17 752.715 1272.84 752.715C1273.51 752.715 1274.11 752.615 1274.64 752.416C1275.18 752.211 1275.63 751.915 1276 751.528C1276.38 751.136 1276.67 750.652 1276.87 750.078C1277.07 749.504 1277.17 748.842 1277.17 748.092C1277.17 747.348 1277.07 746.691 1276.87 746.123C1276.67 745.549 1276.38 745.065 1276 744.673C1275.63 744.28 1275.18 743.984 1274.64 743.785C1274.11 743.58 1273.51 743.478 1272.84 743.478C1272.17 743.478 1271.57 743.58 1271.04 743.785C1270.51 743.984 1270.05 744.28 1269.68 744.673C1269.3 745.065 1269.01 745.549 1268.81 746.123C1268.61 746.691 1268.51 747.348 1268.51 748.092ZM1282.25 748.101C1282.25 746.993 1282.41 746 1282.75 745.121C1283.08 744.242 1283.55 743.498 1284.17 742.889C1284.79 742.273 1285.53 741.805 1286.41 741.482C1287.29 741.16 1288.27 740.999 1289.36 740.999C1290.45 740.999 1291.44 741.16 1292.32 741.482C1293.2 741.805 1293.94 742.273 1294.56 742.889C1295.17 743.498 1295.65 744.242 1295.98 745.121C1296.32 746 1296.48 746.993 1296.48 748.101C1296.48 749.208 1296.32 750.201 1295.98 751.08C1295.65 751.959 1295.17 752.703 1294.56 753.312C1293.94 753.922 1293.2 754.388 1292.32 754.71C1291.44 755.032 1290.45 755.193 1289.36 755.193C1288.27 755.193 1287.29 755.032 1286.41 754.71C1285.53 754.388 1284.79 753.922 1284.17 753.312C1283.55 752.703 1283.08 751.959 1282.75 751.08C1282.41 750.201 1282.25 749.208 1282.25 748.101ZM1285.03 748.092C1285.03 748.842 1285.13 749.504 1285.33 750.078C1285.54 750.652 1285.83 751.136 1286.2 751.528C1286.58 751.915 1287.03 752.211 1287.56 752.416C1288.1 752.615 1288.7 752.715 1289.36 752.715C1290.03 752.715 1290.63 752.615 1291.17 752.416C1291.7 752.211 1292.15 751.915 1292.53 751.528C1292.9 751.136 1293.19 750.652 1293.39 750.078C1293.59 749.504 1293.7 748.842 1293.7 748.092C1293.7 747.348 1293.59 746.691 1293.39 746.123C1293.19 745.549 1292.9 745.065 1292.53 744.673C1292.15 744.28 1291.7 743.984 1291.17 743.785C1290.63 743.58 1290.03 743.478 1289.36 743.478C1288.7 743.478 1288.1 743.58 1287.56 743.785C1287.03 743.984 1286.58 744.28 1286.2 744.673C1285.83 745.065 1285.54 745.549 1285.33 746.123C1285.13 746.691 1285.03 747.348 1285.03 748.092ZM1299.31 753.479C1299.31 753.245 1299.36 753.025 1299.45 752.82C1299.55 752.609 1299.69 752.428 1299.88 752.275C1300.06 752.117 1300.28 751.994 1300.54 751.906C1300.79 751.818 1301.08 751.774 1301.41 751.774C1301.73 751.774 1302.02 751.818 1302.28 751.906C1302.53 751.994 1302.75 752.117 1302.93 752.275C1303.11 752.428 1303.25 752.609 1303.34 752.82C1303.44 753.025 1303.49 753.245 1303.49 753.479C1303.49 753.714 1303.44 753.937 1303.34 754.147C1303.25 754.353 1303.11 754.531 1302.93 754.684C1302.75 754.836 1302.53 754.956 1302.28 755.044C1302.02 755.138 1301.73 755.185 1301.41 755.185C1301.08 755.185 1300.79 755.138 1300.54 755.044C1300.28 754.956 1300.06 754.836 1299.88 754.684C1299.69 754.531 1299.55 754.353 1299.45 754.147C1299.36 753.937 1299.31 753.714 1299.31 753.479ZM1299.31 746.141C1299.31 745.906 1299.36 745.687 1299.45 745.481C1299.55 745.271 1299.69 745.089 1299.88 744.937C1300.06 744.778 1300.28 744.655 1300.54 744.567C1300.79 744.479 1301.08 744.436 1301.41 744.436C1301.73 744.436 1302.02 744.479 1302.28 744.567C1302.53 744.655 1302.75 744.778 1302.93 744.937C1303.11 745.089 1303.25 745.271 1303.34 745.481C1303.44 745.687 1303.49 745.906 1303.49 746.141C1303.49 746.375 1303.44 746.598 1303.34 746.809C1303.25 747.014 1303.11 747.192 1302.93 747.345C1302.75 747.497 1302.53 747.62 1302.28 747.714C1302.02 747.802 1301.73 747.846 1301.41 747.846C1301.08 747.846 1300.79 747.802 1300.54 747.714C1300.28 747.62 1300.06 747.497 1299.88 747.345C1299.69 747.192 1299.55 747.014 1299.45 746.809C1299.36 746.598 1299.31 746.375 1299.31 746.141ZM1306.31 748.101C1306.31 746.993 1306.48 746 1306.81 745.121C1307.14 744.242 1307.62 743.498 1308.23 742.889C1308.85 742.273 1309.6 741.805 1310.48 741.482C1311.35 741.16 1312.34 740.999 1313.43 740.999C1314.52 740.999 1315.5 741.16 1316.38 741.482C1317.26 741.805 1318.01 742.273 1318.62 742.889C1319.24 743.498 1319.71 744.242 1320.05 745.121C1320.38 746 1320.55 746.993 1320.55 748.101C1320.55 749.208 1320.38 750.201 1320.05 751.08C1319.71 751.959 1319.24 752.703 1318.62 753.312C1318.01 753.922 1317.26 754.388 1316.38 754.71C1315.5 755.032 1314.52 755.193 1313.43 755.193C1312.34 755.193 1311.35 755.032 1310.48 754.71C1309.6 754.388 1308.85 753.922 1308.23 753.312C1307.62 752.703 1307.14 751.959 1306.81 751.08C1306.48 750.201 1306.31 749.208 1306.31 748.101ZM1309.1 748.092C1309.1 748.842 1309.2 749.504 1309.39 750.078C1309.6 750.652 1309.89 751.136 1310.26 751.528C1310.64 751.915 1311.09 752.211 1311.63 752.416C1312.16 752.615 1312.76 752.715 1313.43 752.715C1314.1 752.715 1314.7 752.615 1315.23 752.416C1315.76 752.211 1316.22 751.915 1316.59 751.528C1316.97 751.136 1317.25 750.652 1317.45 750.078C1317.66 749.504 1317.76 748.842 1317.76 748.092C1317.76 747.348 1317.66 746.691 1317.45 746.123C1317.25 745.549 1316.97 745.065 1316.59 744.673C1316.22 744.28 1315.76 743.984 1315.23 743.785C1314.7 743.58 1314.1 743.478 1313.43 743.478C1312.76 743.478 1312.16 743.58 1311.63 743.785C1311.09 743.984 1310.64 744.28 1310.26 744.673C1309.89 745.065 1309.6 745.549 1309.39 746.123C1309.2 746.691 1309.1 747.348 1309.1 748.092ZM1322.83 748.101C1322.83 746.993 1323 746 1323.33 745.121C1323.67 744.242 1324.14 743.498 1324.76 742.889C1325.37 742.273 1326.12 741.805 1327 741.482C1327.88 741.16 1328.86 740.999 1329.95 740.999C1331.04 740.999 1332.03 741.16 1332.91 741.482C1333.78 741.805 1334.53 742.273 1335.15 742.889C1335.76 743.498 1336.24 744.242 1336.57 745.121C1336.9 746 1337.07 746.993 1337.07 748.101C1337.07 749.208 1336.9 750.201 1336.57 751.08C1336.24 751.959 1335.76 752.703 1335.15 753.312C1334.53 753.922 1333.78 754.388 1332.91 754.71C1332.03 755.032 1331.04 755.193 1329.95 755.193C1328.86 755.193 1327.88 755.032 1327 754.71C1326.12 754.388 1325.37 753.922 1324.76 753.312C1324.14 752.703 1323.67 751.959 1323.33 751.08C1323 750.201 1322.83 749.208 1322.83 748.101ZM1325.62 748.092C1325.62 748.842 1325.72 749.504 1325.92 750.078C1326.12 750.652 1326.41 751.136 1326.79 751.528C1327.16 751.915 1327.62 752.211 1328.15 752.416C1328.68 752.615 1329.28 752.715 1329.95 752.715C1330.62 752.715 1331.22 752.615 1331.75 752.416C1332.29 752.211 1332.74 751.915 1333.12 751.528C1333.49 751.136 1333.78 750.652 1333.98 750.078C1334.18 749.504 1334.29 748.842 1334.29 748.092C1334.29 747.348 1334.18 746.691 1333.98 746.123C1333.78 745.549 1333.49 745.065 1333.12 744.673C1332.74 744.28 1332.29 743.984 1331.75 743.785C1331.22 743.58 1330.62 743.478 1329.95 743.478C1329.28 743.478 1328.68 743.58 1328.15 743.785C1327.62 743.984 1327.16 744.28 1326.79 744.673C1326.41 745.065 1326.12 745.549 1325.92 746.123C1325.72 746.691 1325.62 747.348 1325.62 748.092Z" fill="white"/>
</svg>
