<svg width="1440" height="1024" viewBox="0 0 1440 1024" fill="none" xmlns="http://www.w3.org/2000/svg">
<path opacity="0.5" d="M1627.42 573.029C1627.42 1025.43 1253.12 1392.2 791.365 1392.2C329.611 1392.2 -44.6885 1025.43 -44.6885 573.029C-44.6885 120.628 329.611 -246.143 791.365 -246.143C1253.12 -246.143 1627.42 120.628 1627.42 573.029Z" stroke="url(#paint0_linear_304_196)" stroke-width="1.5"/>
<path opacity="0.5" d="M1643.37 573.075C1643.37 1034.53 1261.58 1408.65 790.581 1408.65C319.583 1408.65 -62.2094 1034.53 -62.2094 573.075C-62.2094 111.616 319.583 -262.495 790.581 -262.495C1261.58 -262.495 1643.37 111.616 1643.37 573.075Z" stroke="url(#paint1_linear_304_196)" stroke-width="1.5"/>
<path opacity="0.5" d="M1660.49 571.953C1660.49 1042.47 1271.2 1423.92 790.964 1423.92C310.723 1423.92 -78.5622 1042.47 -78.5622 571.953C-78.5622 101.438 310.723 -280.016 790.964 -280.016C1271.2 -280.016 1660.49 101.438 1660.49 571.953Z" stroke="url(#paint2_linear_304_196)" stroke-width="1.5"/>
<path opacity="0.5" d="M1677.61 571.998C1677.61 1051.57 1280.83 1440.37 791.347 1440.37C301.864 1440.37 -94.915 1051.57 -94.915 571.998C-94.915 92.4265 301.864 -296.369 791.347 -296.369C1280.83 -296.369 1677.61 92.4265 1677.61 571.998Z" stroke="url(#paint3_linear_304_196)" stroke-width="1.5"/>
<path opacity="0.5" d="M1693.56 572.044C1693.56 1060.67 1289.29 1456.81 790.562 1456.81C291.836 1456.81 -112.436 1060.67 -112.436 572.044C-112.436 83.4155 291.836 -312.722 790.562 -312.722C1289.29 -312.722 1693.56 83.4155 1693.56 572.044Z" stroke="url(#paint4_linear_304_196)" stroke-width="1.5"/>
<path opacity="0.5" d="M1710.68 572.089C1710.68 1069.77 1298.92 1473.25 790.946 1473.25C282.976 1473.25 -128.789 1069.77 -128.789 572.089C-128.789 74.4045 282.976 -329.075 790.946 -329.075C1298.92 -329.075 1710.68 74.4045 1710.68 572.089Z" stroke="url(#paint5_linear_304_196)" stroke-width="1.5"/>
<path opacity="0.5" d="M1727.8 572.135C1727.8 1078.88 1308.54 1489.7 791.329 1489.7C274.116 1489.7 -145.141 1078.88 -145.141 572.135C-145.141 65.3935 274.116 -345.428 791.329 -345.428C1308.54 -345.428 1727.8 65.3935 1727.8 572.135Z" stroke="url(#paint6_linear_304_196)" stroke-width="1.5"/>
<path opacity="0.5" d="M1743.75 572.181C1743.75 1087.98 1317 1506.14 790.544 1506.14C264.088 1506.14 -162.662 1087.98 -162.662 572.181C-162.662 56.3826 264.088 -361.78 790.544 -361.78C1317 -361.78 1743.75 56.3826 1743.75 572.181Z" stroke="url(#paint7_linear_304_196)" stroke-width="1.5"/>
<path opacity="0.5" d="M1760.87 572.226C1760.87 1097.08 1326.63 1522.59 790.927 1522.59C255.228 1522.59 -179.015 1097.08 -179.015 572.226C-179.015 47.3716 255.228 -378.133 790.927 -378.133C1326.63 -378.133 1760.87 47.3716 1760.87 572.226Z" stroke="url(#paint8_linear_304_196)" stroke-width="1.5"/>
<path opacity="0.5" d="M1777.99 572.272C1777.99 1106.18 1336.25 1539.03 791.311 1539.03C246.369 1539.03 -195.368 1106.18 -195.368 572.272C-195.368 38.3606 246.369 -394.486 791.311 -394.486C1336.25 -394.486 1777.99 38.3606 1777.99 572.272Z" stroke="url(#paint9_linear_304_196)" stroke-width="1.5"/>
<path opacity="0.5" d="M1793.94 572.318C1793.94 1115.29 1344.71 1555.47 790.526 1555.47C236.341 1555.47 -212.889 1115.29 -212.889 572.318C-212.889 29.3496 236.341 -410.839 790.526 -410.839C1344.71 -410.839 1793.94 29.3496 1793.94 572.318Z" stroke="url(#paint10_linear_304_196)" stroke-width="1.5"/>
<path opacity="0.5" d="M1811.06 572.363C1811.06 1124.39 1354.34 1571.92 790.909 1571.92C227.481 1571.92 -229.242 1124.39 -229.242 572.363C-229.242 20.3386 227.481 -427.192 790.909 -427.192C1354.34 -427.192 1811.06 20.3386 1811.06 572.363Z" stroke="url(#paint11_linear_304_196)" stroke-width="1.5"/>
<path opacity="0.5" d="M1828.18 572.409C1828.18 1133.49 1363.96 1588.36 791.292 1588.36C218.621 1588.36 -245.594 1133.49 -245.594 572.409C-245.594 11.3277 218.621 -443.544 791.292 -443.544C1363.96 -443.544 1828.18 11.3277 1828.18 572.409Z" stroke="url(#paint12_linear_304_196)" stroke-width="1.5"/>
<path opacity="0.5" d="M1844.13 572.454C1844.13 1142.59 1372.42 1604.81 790.508 1604.81C208.593 1604.81 -263.115 1142.59 -263.115 572.454C-263.115 2.31674 208.593 -459.897 790.508 -459.897C1372.42 -459.897 1844.13 2.31674 1844.13 572.454Z" stroke="url(#paint13_linear_304_196)" stroke-width="1.5"/>
<path opacity="0.5" d="M1861.25 572.5C1861.25 1151.69 1382.05 1621.25 790.891 1621.25C199.733 1621.25 -279.468 1151.69 -279.468 572.5C-279.468 -6.69427 199.733 -476.25 790.891 -476.25C1382.05 -476.25 1861.25 -6.69427 1861.25 572.5Z" stroke="url(#paint14_linear_304_196)" stroke-width="1.5"/>
<path opacity="0.5" d="M1610.3 572.984C1610.3 1016.33 1243.49 1375.76 790.982 1375.76C338.471 1375.76 -28.3358 1016.33 -28.3358 572.984C-28.3358 129.638 338.471 -229.79 790.982 -229.79C1243.49 -229.79 1610.3 129.638 1610.3 572.984Z" stroke="url(#paint15_linear_304_196)" stroke-width="1.5"/>
<path opacity="0.5" d="M1593.18 572.938C1593.18 1007.23 1233.87 1359.31 790.599 1359.31C347.331 1359.31 -11.9829 1007.23 -11.9829 572.938C-11.9829 138.649 347.331 -213.437 790.599 -213.437C1233.87 -213.437 1593.18 138.649 1593.18 572.938Z" stroke="url(#paint16_linear_304_196)" stroke-width="1.5"/>
<path opacity="0.5" d="M1577.23 572.892C1577.23 998.124 1225.41 1342.87 791.384 1342.87C357.359 1342.87 5.53796 998.124 5.53796 572.892C5.53796 147.66 357.359 -197.084 791.384 -197.084C1225.41 -197.084 1577.23 147.66 1577.23 572.892Z" stroke="url(#paint17_linear_304_196)" stroke-width="1.5"/>
<path opacity="0.5" d="M1560.11 572.847C1560.11 989.022 1215.78 1326.42 791 1326.42C366.218 1326.42 21.8907 989.022 21.8907 572.847C21.8907 156.671 366.218 -180.731 791 -180.731C1215.78 -180.731 1560.11 156.671 1560.11 572.847Z" stroke="url(#paint18_linear_304_196)" stroke-width="1.5"/>
<path opacity="0.5" d="M1542.99 572.801C1542.99 979.92 1206.16 1309.98 790.617 1309.98C375.078 1309.98 38.2437 979.92 38.2437 572.801C38.2437 165.682 375.078 -164.379 790.617 -164.379C1206.16 -164.379 1542.99 165.682 1542.99 572.801Z" stroke="url(#paint19_linear_304_196)" stroke-width="1.5"/>
<path opacity="0.5" d="M1527.04 572.756C1527.04 970.818 1197.7 1293.54 791.402 1293.54C385.106 1293.54 55.7644 970.818 55.7644 572.756C55.7644 174.693 385.106 -148.026 791.402 -148.026C1197.7 -148.026 1527.04 174.693 1527.04 572.756Z" stroke="url(#paint20_linear_304_196)" stroke-width="1.5"/>
<path opacity="0.5" d="M1509.92 572.71C1509.92 961.715 1188.07 1277.09 791.019 1277.09C393.966 1277.09 72.1173 961.715 72.1173 572.71C72.1173 183.704 393.966 -131.673 791.019 -131.673C1188.07 -131.673 1509.92 183.704 1509.92 572.71Z" stroke="url(#paint21_linear_304_196)" stroke-width="1.5"/>
<path opacity="0.5" d="M1492.8 572.664C1492.8 952.613 1178.45 1260.65 790.635 1260.65C402.826 1260.65 88.4701 952.613 88.4701 572.664C88.4701 192.715 402.826 -115.32 790.635 -115.32C1178.45 -115.32 1492.8 192.715 1492.8 572.664Z" stroke="url(#paint22_linear_304_196)" stroke-width="1.5"/>
<path opacity="0.5" d="M1476.85 572.619C1476.85 943.511 1169.99 1244.2 791.42 1244.2C412.854 1244.2 105.991 943.511 105.991 572.619C105.991 201.726 412.854 -98.9673 791.42 -98.9673C1169.99 -98.9673 1476.85 201.726 1476.85 572.619Z" stroke="url(#paint23_linear_304_196)" stroke-width="1.5"/>
<path opacity="0.5" d="M1459.73 572.573C1459.73 934.409 1160.36 1227.76 791.037 1227.76C421.713 1227.76 122.344 934.409 122.344 572.573C122.344 210.737 421.713 -82.6145 791.037 -82.6145C1160.36 -82.6145 1459.73 210.737 1459.73 572.573Z" stroke="url(#paint24_linear_304_196)" stroke-width="1.5"/>
<path opacity="0.5" d="M1442.61 572.527C1442.61 925.306 1150.73 1211.32 790.654 1211.32C430.573 1211.32 138.697 925.306 138.697 572.527C138.697 219.748 430.573 -66.2617 790.654 -66.2617C1150.73 -66.2617 1442.61 219.748 1442.61 572.527Z" stroke="url(#paint25_linear_304_196)" stroke-width="1.5"/>
<path opacity="0.5" d="M1426.66 572.482C1426.66 916.204 1142.28 1194.87 791.438 1194.87C440.601 1194.87 156.217 916.204 156.217 572.482C156.217 228.759 440.601 -49.9089 791.438 -49.9089C1142.28 -49.9089 1426.66 228.759 1426.66 572.482Z" stroke="url(#paint26_linear_304_196)" stroke-width="1.5"/>
<path opacity="0.5" d="M1409.54 572.436C1409.54 907.102 1132.65 1178.43 791.055 1178.43C449.461 1178.43 172.57 907.102 172.57 572.436C172.57 237.77 449.461 -33.5562 791.055 -33.5562C1132.65 -33.5562 1409.54 237.77 1409.54 572.436Z" stroke="url(#paint27_linear_304_196)" stroke-width="1.5"/>
<path opacity="0.5" d="M1392.42 572.391C1392.42 898 1123.02 1161.98 790.672 1161.98C458.321 1161.98 188.923 898 188.923 572.391C188.923 246.781 458.321 -17.2032 790.672 -17.2032C1123.02 -17.2032 1392.42 246.781 1392.42 572.391Z" stroke="url(#paint28_linear_304_196)" stroke-width="1.5"/>
<path opacity="0.5" d="M1376.47 572.345C1376.47 888.898 1114.56 1145.54 791.457 1145.54C468.348 1145.54 206.444 888.898 206.444 572.345C206.444 255.792 468.348 -0.850464 791.457 -0.850464C1114.56 -0.850464 1376.47 255.792 1376.47 572.345Z" stroke="url(#paint29_linear_304_196)" stroke-width="1.5"/>
<path opacity="0.5" d="M1359.35 572.299C1359.35 879.795 1104.94 1129.1 791.073 1129.1C477.208 1129.1 222.797 879.795 222.797 572.299C222.797 264.803 477.208 15.5023 791.073 15.5023C1104.94 15.5023 1359.35 264.803 1359.35 572.299Z" stroke="url(#paint30_linear_304_196)" stroke-width="1.5"/>
<path opacity="0.5" d="M1342.23 572.254C1342.23 870.693 1095.31 1112.65 790.69 1112.65C486.068 1112.65 239.15 870.693 239.15 572.254C239.15 273.814 486.068 31.8552 790.69 31.8552C1095.31 31.8552 1342.23 273.814 1342.23 572.254Z" stroke="url(#paint31_linear_304_196)" stroke-width="1.5"/>
<path opacity="0.5" d="M1325.11 572.208C1325.11 861.591 1085.69 1096.21 790.307 1096.21C494.928 1096.21 255.502 861.591 255.502 572.208C255.502 282.825 494.928 48.208 790.307 48.208C1085.69 48.208 1325.11 282.825 1325.11 572.208Z" stroke="url(#paint32_linear_304_196)" stroke-width="1.5"/>
<path opacity="0.5" d="M1309.16 572.162C1309.16 852.489 1077.23 1079.76 791.092 1079.76C504.956 1079.76 273.023 852.489 273.023 572.162C273.023 291.836 504.956 64.5608 791.092 64.5608C1077.23 64.5608 1309.16 291.836 1309.16 572.162Z" stroke="url(#paint33_linear_304_196)" stroke-width="1.5"/>
<path opacity="0.5" d="M1292.04 572.117C1292.04 843.386 1067.6 1063.32 790.708 1063.32C513.816 1063.32 289.376 843.386 289.376 572.117C289.376 300.847 513.816 80.9137 790.708 80.9137C1067.6 80.9137 1292.04 300.847 1292.04 572.117Z" stroke="url(#paint34_linear_304_196)" stroke-width="1.5"/>
<path opacity="0.5" d="M1274.92 572.071C1274.92 834.284 1057.97 1046.88 790.325 1046.88C522.675 1046.88 305.729 834.284 305.729 572.071C305.729 309.858 522.675 97.2664 790.325 97.2664C1057.97 97.2664 1274.92 309.858 1274.92 572.071Z" stroke="url(#paint35_linear_304_196)" stroke-width="1.5"/>
<path opacity="0.5" d="M1258.97 572.025C1258.97 825.182 1049.52 1030.43 791.11 1030.43C532.703 1030.43 323.25 825.182 323.25 572.025C323.25 318.869 532.703 113.619 791.11 113.619C1049.52 113.619 1258.97 318.869 1258.97 572.025Z" stroke="url(#paint36_linear_304_196)" stroke-width="1.5"/>
<path opacity="0.5" d="M1241.85 571.98C1241.85 816.08 1039.89 1013.99 790.727 1013.99C541.563 1013.99 339.602 816.08 339.602 571.98C339.602 327.88 541.563 129.972 790.727 129.972C1039.89 129.972 1241.85 327.88 1241.85 571.98Z" stroke="url(#paint37_linear_304_196)" stroke-width="1.5"/>
<path opacity="0.5" d="M1224.73 571.934C1224.73 806.977 1030.26 997.544 790.343 997.544C550.423 997.544 355.955 806.977 355.955 571.934C355.955 336.891 550.423 146.325 790.343 146.325C1030.26 146.325 1224.73 336.891 1224.73 571.934Z" stroke="url(#paint38_linear_304_196)" stroke-width="1.5"/>
<path opacity="0.5" d="M1058.21 572.646C1058.21 717.123 938.673 834.271 791.183 834.271C643.693 834.271 524.156 717.123 524.156 572.646C524.156 428.169 643.693 311.021 791.183 311.021C938.673 311.021 1058.21 428.169 1058.21 572.646Z" stroke="url(#paint39_linear_304_196)" stroke-width="1.5"/>
<path opacity="0.5" d="M1041.09 572.6C1041.09 708.021 929.046 817.827 790.8 817.827C652.553 817.827 540.508 708.021 540.508 572.6C540.508 437.18 652.553 327.374 790.8 327.374C929.046 327.374 1041.09 437.18 1041.09 572.6Z" stroke="url(#paint40_linear_304_196)" stroke-width="1.5"/>
<path opacity="0.5" d="M1023.97 572.555C1023.97 698.919 919.42 801.383 790.416 801.383C661.413 801.383 556.861 698.919 556.861 572.555C556.861 446.191 661.413 343.727 790.416 343.727C919.42 343.727 1023.97 446.191 1023.97 572.555Z" stroke="url(#paint41_linear_304_196)" stroke-width="1.5"/>
<path opacity="0.5" d="M1008.02 572.509C1008.02 689.816 910.962 784.939 791.201 784.939C671.441 784.939 574.382 689.816 574.382 572.509C574.382 455.202 671.441 360.079 791.201 360.079C910.962 360.079 1008.02 455.202 1008.02 572.509Z" stroke="url(#paint42_linear_304_196)" stroke-width="1.5"/>
<path opacity="0.5" d="M990.901 572.464C990.901 680.714 901.335 768.495 790.818 768.495C680.301 768.495 590.735 680.714 590.735 572.464C590.735 464.213 680.301 376.432 790.818 376.432C901.335 376.432 990.901 464.213 990.901 572.464Z" stroke="url(#paint43_linear_304_196)" stroke-width="1.5"/>
<path opacity="0.5" d="M973.782 572.418C973.782 671.612 891.709 752.051 790.435 752.051C689.16 752.051 607.088 671.612 607.088 572.418C607.088 473.224 689.16 392.785 790.435 392.785C891.709 392.785 973.782 473.224 973.782 572.418Z" stroke="url(#paint44_linear_304_196)" stroke-width="1.5"/>
<path opacity="0.5" d="M957.83 572.372C957.83 662.51 883.251 735.607 791.219 735.607C699.188 735.607 624.609 662.51 624.609 572.372C624.609 482.235 699.188 409.138 791.219 409.138C883.251 409.138 957.83 482.235 957.83 572.372Z" stroke="url(#paint45_linear_304_196)" stroke-width="1.5"/>
<path opacity="0.5" d="M940.711 572.327C940.711 653.408 873.624 719.163 790.836 719.163C708.048 719.163 640.961 653.408 640.961 572.327C640.961 491.246 708.048 425.491 790.836 425.491C873.624 425.491 940.711 491.246 940.711 572.327Z" stroke="url(#paint46_linear_304_196)" stroke-width="1.5"/>
<path opacity="0.5" d="M923.592 572.281C923.592 644.305 863.998 702.719 790.453 702.719C716.908 702.719 657.314 644.305 657.314 572.281C657.314 500.257 716.908 441.844 790.453 441.844C863.998 441.844 923.592 500.257 923.592 572.281Z" stroke="url(#paint47_linear_304_196)" stroke-width="1.5"/>
<path opacity="0.5" d="M907.64 572.235C907.64 635.203 855.539 686.274 791.238 686.274C726.936 686.274 674.835 635.203 674.835 572.235C674.835 509.268 726.936 458.196 791.238 458.196C855.539 458.196 907.64 509.268 907.64 572.235Z" stroke="url(#paint48_linear_304_196)" stroke-width="1.5"/>
<path opacity="0.5" d="M890.521 572.19C890.521 626.101 845.913 669.83 790.854 669.83C735.796 669.83 691.188 626.101 691.188 572.19C691.188 518.279 735.796 474.549 790.854 474.549C845.913 474.549 890.521 518.279 890.521 572.19Z" stroke="url(#paint49_linear_304_196)" stroke-width="1.5"/>
<path opacity="0.5" d="M873.402 572.144C873.402 616.999 836.287 653.386 790.471 653.386C744.656 653.386 707.541 616.999 707.541 572.144C707.541 527.29 744.656 490.902 790.471 490.902C836.287 490.902 873.402 527.29 873.402 572.144Z" stroke="url(#paint50_linear_304_196)" stroke-width="1.5"/>
<path opacity="0.5" d="M857.45 572.098C857.45 607.896 827.829 636.942 791.256 636.942C754.683 636.942 725.062 607.896 725.062 572.098C725.062 536.301 754.683 507.255 791.256 507.255C827.829 507.255 857.45 536.301 857.45 572.098Z" stroke="url(#paint51_linear_304_196)" stroke-width="1.5"/>
<path opacity="0.5" d="M840.331 572.053C840.331 598.794 818.202 620.498 790.873 620.498C763.543 620.498 741.414 598.794 741.414 572.053C741.414 545.312 763.543 523.608 790.873 523.608C818.202 523.608 840.331 545.312 840.331 572.053Z" stroke="url(#paint52_linear_304_196)" stroke-width="1.5"/>
<path opacity="0.5" d="M823.212 572.007C823.212 589.692 808.576 604.054 790.489 604.054C772.403 604.054 757.767 589.692 757.767 572.007C757.767 554.323 772.403 539.96 790.489 539.96C808.576 539.96 823.212 554.323 823.212 572.007Z" stroke="url(#paint53_linear_304_196)" stroke-width="1.5"/>
<path opacity="0.5" d="M807.26 571.962C807.26 580.59 800.118 587.61 791.274 587.61C782.431 587.61 775.288 580.59 775.288 571.962C775.288 563.334 782.431 556.313 791.274 556.313C800.118 556.313 807.26 563.334 807.26 571.962Z" stroke="url(#paint54_linear_304_196)" stroke-width="1.5"/>
<path opacity="0.5" d="M793.331 572.86C793.331 574.242 792.183 575.389 790.734 575.389C789.285 575.389 788.137 574.242 788.137 572.86C788.137 571.477 789.285 570.33 790.734 570.33C792.183 570.33 793.331 571.477 793.331 572.86Z" stroke="url(#paint55_linear_304_196)" stroke-width="1.5"/>
<path opacity="0.5" d="M1208.78 573.057C1208.78 799.043 1021.81 982.268 791.128 982.268C560.451 982.268 373.476 799.043 373.476 573.057C373.476 347.07 560.451 163.846 791.128 163.846C1021.81 163.846 1208.78 347.07 1208.78 573.057Z" stroke="url(#paint56_linear_304_196)" stroke-width="1.5"/>
<path opacity="0.5" d="M1191.66 573.011C1191.66 789.941 1012.18 965.824 790.745 965.824C569.311 965.824 389.829 789.941 389.829 573.011C389.829 356.081 569.311 180.199 790.745 180.199C1012.18 180.199 1191.66 356.081 1191.66 573.011Z" stroke="url(#paint57_linear_304_196)" stroke-width="1.5"/>
<path opacity="0.5" d="M1174.54 572.965C1174.54 780.839 1002.55 949.379 790.362 949.379C578.171 949.379 406.182 780.839 406.182 572.965C406.182 365.092 578.171 196.551 790.362 196.551C1002.55 196.551 1174.54 365.092 1174.54 572.965Z" stroke="url(#paint58_linear_304_196)" stroke-width="1.5"/>
<path opacity="0.5" d="M1158.59 572.92C1158.59 771.737 994.095 932.936 791.146 932.936C588.198 932.936 423.703 771.737 423.703 572.92C423.703 374.103 588.198 212.904 791.146 212.904C994.095 212.904 1158.59 374.103 1158.59 572.92Z" stroke="url(#paint59_linear_304_196)" stroke-width="1.5"/>
<path opacity="0.5" d="M1141.47 572.874C1141.47 762.634 984.468 916.491 790.763 916.491C597.058 916.491 440.055 762.634 440.055 572.874C440.055 383.114 597.058 229.257 790.763 229.257C984.468 229.257 1141.47 383.114 1141.47 572.874Z" stroke="url(#paint60_linear_304_196)" stroke-width="1.5"/>
<path opacity="0.5" d="M1124.35 572.829C1124.35 753.532 974.842 900.047 790.38 900.047C605.918 900.047 456.408 753.532 456.408 572.829C456.408 392.125 605.918 245.61 790.38 245.61C974.842 245.61 1124.35 392.125 1124.35 572.829Z" stroke="url(#paint61_linear_304_196)" stroke-width="1.5"/>
<path opacity="0.5" d="M1108.4 572.783C1108.4 744.43 966.383 883.603 791.165 883.603C615.946 883.603 473.929 744.43 473.929 572.783C473.929 401.136 615.946 261.963 791.165 261.963C966.383 261.963 1108.4 401.136 1108.4 572.783Z" stroke="url(#paint62_linear_304_196)" stroke-width="1.5"/>
<path opacity="0.5" d="M1091.28 572.737C1091.28 735.328 956.757 867.159 790.781 867.159C624.806 867.159 490.282 735.328 490.282 572.737C490.282 410.147 624.806 278.315 790.781 278.315C956.757 278.315 1091.28 410.147 1091.28 572.737Z" stroke="url(#paint63_linear_304_196)" stroke-width="1.5"/>
<path opacity="0.5" d="M1074.16 572.692C1074.16 726.225 947.131 850.715 790.398 850.715C633.666 850.715 506.635 726.225 506.635 572.692C506.635 419.158 633.666 294.668 790.398 294.668C947.131 294.668 1074.16 419.158 1074.16 572.692Z" stroke="url(#paint64_linear_304_196)" stroke-width="1.5"/>
<defs>
<linearGradient id="paint0_linear_304_196" x1="791.365" y1="-246.893" x2="791.365" y2="1392.95" gradientUnits="userSpaceOnUse">
<stop offset="0.232292" stop-color="#CCCCCC"/>
<stop offset="1" stop-color="#CCCCCC" stop-opacity="0"/>
</linearGradient>
<linearGradient id="paint1_linear_304_196" x1="790.581" y1="-263.245" x2="790.581" y2="1409.4" gradientUnits="userSpaceOnUse">
<stop offset="0.232292" stop-color="#CCCCCC"/>
<stop offset="1" stop-color="#CCCCCC" stop-opacity="0"/>
</linearGradient>
<linearGradient id="paint2_linear_304_196" x1="790.964" y1="-280.766" x2="790.964" y2="1424.67" gradientUnits="userSpaceOnUse">
<stop offset="0.232292" stop-color="#CCCCCC"/>
<stop offset="1" stop-color="#CCCCCC" stop-opacity="0"/>
</linearGradient>
<linearGradient id="paint3_linear_304_196" x1="791.347" y1="-297.119" x2="791.347" y2="1441.12" gradientUnits="userSpaceOnUse">
<stop offset="0.232292" stop-color="#CCCCCC"/>
<stop offset="1" stop-color="#CCCCCC" stop-opacity="0"/>
</linearGradient>
<linearGradient id="paint4_linear_304_196" x1="790.562" y1="-313.472" x2="790.563" y2="1457.56" gradientUnits="userSpaceOnUse">
<stop offset="0.232292" stop-color="#CCCCCC"/>
<stop offset="1" stop-color="#CCCCCC" stop-opacity="0"/>
</linearGradient>
<linearGradient id="paint5_linear_304_196" x1="790.946" y1="-329.825" x2="790.946" y2="1474" gradientUnits="userSpaceOnUse">
<stop offset="0.232292" stop-color="#CCCCCC"/>
<stop offset="1" stop-color="#CCCCCC" stop-opacity="0"/>
</linearGradient>
<linearGradient id="paint6_linear_304_196" x1="791.329" y1="-346.178" x2="791.329" y2="1490.45" gradientUnits="userSpaceOnUse">
<stop offset="0.232292" stop-color="#CCCCCC"/>
<stop offset="1" stop-color="#CCCCCC" stop-opacity="0"/>
</linearGradient>
<linearGradient id="paint7_linear_304_196" x1="790.544" y1="-362.53" x2="790.544" y2="1506.89" gradientUnits="userSpaceOnUse">
<stop offset="0.232292" stop-color="#CCCCCC"/>
<stop offset="1" stop-color="#CCCCCC" stop-opacity="0"/>
</linearGradient>
<linearGradient id="paint8_linear_304_196" x1="790.927" y1="-378.883" x2="790.927" y2="1523.34" gradientUnits="userSpaceOnUse">
<stop offset="0.232292" stop-color="#CCCCCC"/>
<stop offset="1" stop-color="#CCCCCC" stop-opacity="0"/>
</linearGradient>
<linearGradient id="paint9_linear_304_196" x1="791.311" y1="-395.236" x2="791.311" y2="1539.78" gradientUnits="userSpaceOnUse">
<stop offset="0.232292" stop-color="#CCCCCC"/>
<stop offset="1" stop-color="#CCCCCC" stop-opacity="0"/>
</linearGradient>
<linearGradient id="paint10_linear_304_196" x1="790.526" y1="-411.589" x2="790.526" y2="1556.22" gradientUnits="userSpaceOnUse">
<stop offset="0.232292" stop-color="#CCCCCC"/>
<stop offset="1" stop-color="#CCCCCC" stop-opacity="0"/>
</linearGradient>
<linearGradient id="paint11_linear_304_196" x1="790.909" y1="-427.942" x2="790.909" y2="1572.67" gradientUnits="userSpaceOnUse">
<stop offset="0.232292" stop-color="#CCCCCC"/>
<stop offset="1" stop-color="#CCCCCC" stop-opacity="0"/>
</linearGradient>
<linearGradient id="paint12_linear_304_196" x1="791.292" y1="-444.294" x2="791.292" y2="1589.11" gradientUnits="userSpaceOnUse">
<stop offset="0.232292" stop-color="#CCCCCC"/>
<stop offset="1" stop-color="#CCCCCC" stop-opacity="0"/>
</linearGradient>
<linearGradient id="paint13_linear_304_196" x1="790.508" y1="-460.647" x2="790.508" y2="1605.56" gradientUnits="userSpaceOnUse">
<stop offset="0.232292" stop-color="#CCCCCC"/>
<stop offset="1" stop-color="#CCCCCC" stop-opacity="0"/>
</linearGradient>
<linearGradient id="paint14_linear_304_196" x1="790.891" y1="-477" x2="790.891" y2="1622" gradientUnits="userSpaceOnUse">
<stop offset="0.232292" stop-color="#CCCCCC"/>
<stop offset="1" stop-color="#CCCCCC" stop-opacity="0"/>
</linearGradient>
<linearGradient id="paint15_linear_304_196" x1="790.982" y1="-230.54" x2="790.982" y2="1376.51" gradientUnits="userSpaceOnUse">
<stop offset="0.232292" stop-color="#CCCCCC"/>
<stop offset="1" stop-color="#CCCCCC" stop-opacity="0"/>
</linearGradient>
<linearGradient id="paint16_linear_304_196" x1="790.599" y1="-214.187" x2="790.599" y2="1360.06" gradientUnits="userSpaceOnUse">
<stop offset="0.232292" stop-color="#CCCCCC"/>
<stop offset="1" stop-color="#CCCCCC" stop-opacity="0"/>
</linearGradient>
<linearGradient id="paint17_linear_304_196" x1="791.384" y1="-197.834" x2="791.384" y2="1343.62" gradientUnits="userSpaceOnUse">
<stop offset="0.232292" stop-color="#CCCCCC"/>
<stop offset="1" stop-color="#CCCCCC" stop-opacity="0"/>
</linearGradient>
<linearGradient id="paint18_linear_304_196" x1="791" y1="-181.481" x2="791" y2="1327.17" gradientUnits="userSpaceOnUse">
<stop offset="0.232292" stop-color="#CCCCCC"/>
<stop offset="1" stop-color="#CCCCCC" stop-opacity="0"/>
</linearGradient>
<linearGradient id="paint19_linear_304_196" x1="790.617" y1="-165.129" x2="790.617" y2="1310.73" gradientUnits="userSpaceOnUse">
<stop offset="0.232292" stop-color="#CCCCCC"/>
<stop offset="1" stop-color="#CCCCCC" stop-opacity="0"/>
</linearGradient>
<linearGradient id="paint20_linear_304_196" x1="791.402" y1="-148.776" x2="791.402" y2="1294.29" gradientUnits="userSpaceOnUse">
<stop offset="0.232292" stop-color="#CCCCCC"/>
<stop offset="1" stop-color="#CCCCCC" stop-opacity="0"/>
</linearGradient>
<linearGradient id="paint21_linear_304_196" x1="791.019" y1="-132.423" x2="791.019" y2="1277.84" gradientUnits="userSpaceOnUse">
<stop offset="0.232292" stop-color="#CCCCCC"/>
<stop offset="1" stop-color="#CCCCCC" stop-opacity="0"/>
</linearGradient>
<linearGradient id="paint22_linear_304_196" x1="790.635" y1="-116.07" x2="790.635" y2="1261.4" gradientUnits="userSpaceOnUse">
<stop offset="0.232292" stop-color="#CCCCCC"/>
<stop offset="1" stop-color="#CCCCCC" stop-opacity="0"/>
</linearGradient>
<linearGradient id="paint23_linear_304_196" x1="791.42" y1="-99.7173" x2="791.42" y2="1244.95" gradientUnits="userSpaceOnUse">
<stop offset="0.232292" stop-color="#CCCCCC"/>
<stop offset="1" stop-color="#CCCCCC" stop-opacity="0"/>
</linearGradient>
<linearGradient id="paint24_linear_304_196" x1="791.037" y1="-83.3645" x2="791.037" y2="1228.51" gradientUnits="userSpaceOnUse">
<stop offset="0.232292" stop-color="#CCCCCC"/>
<stop offset="1" stop-color="#CCCCCC" stop-opacity="0"/>
</linearGradient>
<linearGradient id="paint25_linear_304_196" x1="790.654" y1="-67.0117" x2="790.654" y2="1212.07" gradientUnits="userSpaceOnUse">
<stop offset="0.232292" stop-color="#CCCCCC"/>
<stop offset="1" stop-color="#CCCCCC" stop-opacity="0"/>
</linearGradient>
<linearGradient id="paint26_linear_304_196" x1="791.438" y1="-50.6589" x2="791.438" y2="1195.62" gradientUnits="userSpaceOnUse">
<stop offset="0.232292" stop-color="#CCCCCC"/>
<stop offset="1" stop-color="#CCCCCC" stop-opacity="0"/>
</linearGradient>
<linearGradient id="paint27_linear_304_196" x1="791.055" y1="-34.3062" x2="791.055" y2="1179.18" gradientUnits="userSpaceOnUse">
<stop offset="0.232292" stop-color="#CCCCCC"/>
<stop offset="1" stop-color="#CCCCCC" stop-opacity="0"/>
</linearGradient>
<linearGradient id="paint28_linear_304_196" x1="790.672" y1="-17.9532" x2="790.672" y2="1162.73" gradientUnits="userSpaceOnUse">
<stop offset="0.232292" stop-color="#CCCCCC"/>
<stop offset="1" stop-color="#CCCCCC" stop-opacity="0"/>
</linearGradient>
<linearGradient id="paint29_linear_304_196" x1="791.457" y1="-1.60046" x2="791.457" y2="1146.29" gradientUnits="userSpaceOnUse">
<stop offset="0.232292" stop-color="#CCCCCC"/>
<stop offset="1" stop-color="#CCCCCC" stop-opacity="0"/>
</linearGradient>
<linearGradient id="paint30_linear_304_196" x1="791.073" y1="14.7523" x2="791.073" y2="1129.85" gradientUnits="userSpaceOnUse">
<stop offset="0.232292" stop-color="#CCCCCC"/>
<stop offset="1" stop-color="#CCCCCC" stop-opacity="0"/>
</linearGradient>
<linearGradient id="paint31_linear_304_196" x1="790.69" y1="31.1052" x2="790.69" y2="1113.4" gradientUnits="userSpaceOnUse">
<stop offset="0.232292" stop-color="#CCCCCC"/>
<stop offset="1" stop-color="#CCCCCC" stop-opacity="0"/>
</linearGradient>
<linearGradient id="paint32_linear_304_196" x1="790.307" y1="47.458" x2="790.307" y2="1096.96" gradientUnits="userSpaceOnUse">
<stop offset="0.232292" stop-color="#CCCCCC"/>
<stop offset="1" stop-color="#CCCCCC" stop-opacity="0"/>
</linearGradient>
<linearGradient id="paint33_linear_304_196" x1="791.092" y1="63.8108" x2="791.092" y2="1080.51" gradientUnits="userSpaceOnUse">
<stop offset="0.232292" stop-color="#CCCCCC"/>
<stop offset="1" stop-color="#CCCCCC" stop-opacity="0"/>
</linearGradient>
<linearGradient id="paint34_linear_304_196" x1="790.708" y1="80.1637" x2="790.708" y2="1064.07" gradientUnits="userSpaceOnUse">
<stop offset="0.232292" stop-color="#CCCCCC"/>
<stop offset="1" stop-color="#CCCCCC" stop-opacity="0"/>
</linearGradient>
<linearGradient id="paint35_linear_304_196" x1="790.325" y1="96.5164" x2="790.325" y2="1047.63" gradientUnits="userSpaceOnUse">
<stop offset="0.232292" stop-color="#CCCCCC"/>
<stop offset="1" stop-color="#CCCCCC" stop-opacity="0"/>
</linearGradient>
<linearGradient id="paint36_linear_304_196" x1="791.11" y1="112.869" x2="791.11" y2="1031.18" gradientUnits="userSpaceOnUse">
<stop offset="0.232292" stop-color="#CCCCCC"/>
<stop offset="1" stop-color="#CCCCCC" stop-opacity="0"/>
</linearGradient>
<linearGradient id="paint37_linear_304_196" x1="790.727" y1="129.222" x2="790.727" y2="1014.74" gradientUnits="userSpaceOnUse">
<stop offset="0.232292" stop-color="#CCCCCC"/>
<stop offset="1" stop-color="#CCCCCC" stop-opacity="0"/>
</linearGradient>
<linearGradient id="paint38_linear_304_196" x1="790.343" y1="145.575" x2="790.343" y2="998.294" gradientUnits="userSpaceOnUse">
<stop offset="0.232292" stop-color="#CCCCCC"/>
<stop offset="1" stop-color="#CCCCCC" stop-opacity="0"/>
</linearGradient>
<linearGradient id="paint39_linear_304_196" x1="791.183" y1="310.271" x2="791.183" y2="835.021" gradientUnits="userSpaceOnUse">
<stop offset="0.232292" stop-color="#CCCCCC"/>
<stop offset="1" stop-color="#CCCCCC" stop-opacity="0"/>
</linearGradient>
<linearGradient id="paint40_linear_304_196" x1="790.8" y1="326.624" x2="790.8" y2="818.577" gradientUnits="userSpaceOnUse">
<stop offset="0.232292" stop-color="#CCCCCC"/>
<stop offset="1" stop-color="#CCCCCC" stop-opacity="0"/>
</linearGradient>
<linearGradient id="paint41_linear_304_196" x1="790.416" y1="342.977" x2="790.416" y2="802.133" gradientUnits="userSpaceOnUse">
<stop offset="0.232292" stop-color="#CCCCCC"/>
<stop offset="1" stop-color="#CCCCCC" stop-opacity="0"/>
</linearGradient>
<linearGradient id="paint42_linear_304_196" x1="791.201" y1="359.329" x2="791.201" y2="785.689" gradientUnits="userSpaceOnUse">
<stop offset="0.232292" stop-color="#CCCCCC"/>
<stop offset="1" stop-color="#CCCCCC" stop-opacity="0"/>
</linearGradient>
<linearGradient id="paint43_linear_304_196" x1="790.818" y1="375.682" x2="790.818" y2="769.245" gradientUnits="userSpaceOnUse">
<stop offset="0.232292" stop-color="#CCCCCC"/>
<stop offset="1" stop-color="#CCCCCC" stop-opacity="0"/>
</linearGradient>
<linearGradient id="paint44_linear_304_196" x1="790.435" y1="392.035" x2="790.435" y2="752.801" gradientUnits="userSpaceOnUse">
<stop offset="0.232292" stop-color="#CCCCCC"/>
<stop offset="1" stop-color="#CCCCCC" stop-opacity="0"/>
</linearGradient>
<linearGradient id="paint45_linear_304_196" x1="791.219" y1="408.388" x2="791.219" y2="736.357" gradientUnits="userSpaceOnUse">
<stop offset="0.232292" stop-color="#CCCCCC"/>
<stop offset="1" stop-color="#CCCCCC" stop-opacity="0"/>
</linearGradient>
<linearGradient id="paint46_linear_304_196" x1="790.836" y1="424.741" x2="790.836" y2="719.913" gradientUnits="userSpaceOnUse">
<stop offset="0.232292" stop-color="#CCCCCC"/>
<stop offset="1" stop-color="#CCCCCC" stop-opacity="0"/>
</linearGradient>
<linearGradient id="paint47_linear_304_196" x1="790.453" y1="441.094" x2="790.453" y2="703.469" gradientUnits="userSpaceOnUse">
<stop offset="0.232292" stop-color="#CCCCCC"/>
<stop offset="1" stop-color="#CCCCCC" stop-opacity="0"/>
</linearGradient>
<linearGradient id="paint48_linear_304_196" x1="791.238" y1="457.446" x2="791.238" y2="687.024" gradientUnits="userSpaceOnUse">
<stop offset="0.232292" stop-color="#CCCCCC"/>
<stop offset="1" stop-color="#CCCCCC" stop-opacity="0"/>
</linearGradient>
<linearGradient id="paint49_linear_304_196" x1="790.854" y1="473.799" x2="790.854" y2="670.58" gradientUnits="userSpaceOnUse">
<stop offset="0.232292" stop-color="#CCCCCC"/>
<stop offset="1" stop-color="#CCCCCC" stop-opacity="0"/>
</linearGradient>
<linearGradient id="paint50_linear_304_196" x1="790.471" y1="490.152" x2="790.471" y2="654.136" gradientUnits="userSpaceOnUse">
<stop offset="0.232292" stop-color="#CCCCCC"/>
<stop offset="1" stop-color="#CCCCCC" stop-opacity="0"/>
</linearGradient>
<linearGradient id="paint51_linear_304_196" x1="791.256" y1="506.505" x2="791.256" y2="637.692" gradientUnits="userSpaceOnUse">
<stop offset="0.232292" stop-color="#CCCCCC"/>
<stop offset="1" stop-color="#CCCCCC" stop-opacity="0"/>
</linearGradient>
<linearGradient id="paint52_linear_304_196" x1="790.873" y1="522.858" x2="790.873" y2="621.248" gradientUnits="userSpaceOnUse">
<stop offset="0.232292" stop-color="#CCCCCC"/>
<stop offset="1" stop-color="#CCCCCC" stop-opacity="0"/>
</linearGradient>
<linearGradient id="paint53_linear_304_196" x1="790.489" y1="539.21" x2="790.489" y2="604.804" gradientUnits="userSpaceOnUse">
<stop offset="0.232292" stop-color="#CCCCCC"/>
<stop offset="1" stop-color="#CCCCCC" stop-opacity="0"/>
</linearGradient>
<linearGradient id="paint54_linear_304_196" x1="791.274" y1="555.563" x2="791.274" y2="588.36" gradientUnits="userSpaceOnUse">
<stop offset="0.232292" stop-color="#CCCCCC"/>
<stop offset="1" stop-color="#CCCCCC" stop-opacity="0"/>
</linearGradient>
<linearGradient id="paint55_linear_304_196" x1="790.734" y1="569.58" x2="790.734" y2="576.139" gradientUnits="userSpaceOnUse">
<stop offset="0.232292" stop-color="#CCCCCC"/>
<stop offset="1" stop-color="#CCCCCC" stop-opacity="0"/>
</linearGradient>
<linearGradient id="paint56_linear_304_196" x1="791.128" y1="163.096" x2="791.128" y2="983.018" gradientUnits="userSpaceOnUse">
<stop offset="0.232292" stop-color="#CCCCCC"/>
<stop offset="1" stop-color="#CCCCCC" stop-opacity="0"/>
</linearGradient>
<linearGradient id="paint57_linear_304_196" x1="790.745" y1="179.449" x2="790.745" y2="966.574" gradientUnits="userSpaceOnUse">
<stop offset="0.232292" stop-color="#CCCCCC"/>
<stop offset="1" stop-color="#CCCCCC" stop-opacity="0"/>
</linearGradient>
<linearGradient id="paint58_linear_304_196" x1="790.362" y1="195.801" x2="790.362" y2="950.129" gradientUnits="userSpaceOnUse">
<stop offset="0.232292" stop-color="#CCCCCC"/>
<stop offset="1" stop-color="#CCCCCC" stop-opacity="0"/>
</linearGradient>
<linearGradient id="paint59_linear_304_196" x1="791.146" y1="212.154" x2="791.146" y2="933.686" gradientUnits="userSpaceOnUse">
<stop offset="0.232292" stop-color="#CCCCCC"/>
<stop offset="1" stop-color="#CCCCCC" stop-opacity="0"/>
</linearGradient>
<linearGradient id="paint60_linear_304_196" x1="790.763" y1="228.507" x2="790.763" y2="917.241" gradientUnits="userSpaceOnUse">
<stop offset="0.232292" stop-color="#CCCCCC"/>
<stop offset="1" stop-color="#CCCCCC" stop-opacity="0"/>
</linearGradient>
<linearGradient id="paint61_linear_304_196" x1="790.38" y1="244.86" x2="790.38" y2="900.797" gradientUnits="userSpaceOnUse">
<stop offset="0.232292" stop-color="#CCCCCC"/>
<stop offset="1" stop-color="#CCCCCC" stop-opacity="0"/>
</linearGradient>
<linearGradient id="paint62_linear_304_196" x1="791.165" y1="261.213" x2="791.165" y2="884.353" gradientUnits="userSpaceOnUse">
<stop offset="0.232292" stop-color="#CCCCCC"/>
<stop offset="1" stop-color="#CCCCCC" stop-opacity="0"/>
</linearGradient>
<linearGradient id="paint63_linear_304_196" x1="790.781" y1="277.565" x2="790.781" y2="867.909" gradientUnits="userSpaceOnUse">
<stop offset="0.232292" stop-color="#CCCCCC"/>
<stop offset="1" stop-color="#CCCCCC" stop-opacity="0"/>
</linearGradient>
<linearGradient id="paint64_linear_304_196" x1="790.398" y1="293.918" x2="790.398" y2="851.465" gradientUnits="userSpaceOnUse">
<stop offset="0.232292" stop-color="#CCCCCC"/>
<stop offset="1" stop-color="#CCCCCC" stop-opacity="0"/>
</linearGradient>
</defs>
</svg>
