<svg width="19" height="19" viewBox="0 0 19 19" fill="none" xmlns="http://www.w3.org/2000/svg">
<path fill-rule="evenodd" clip-rule="evenodd" d="M18.6398 2.09738C18.7539 1.98343 18.8444 1.84813 18.9062 1.69919C18.968 1.55026 18.9999 1.39061 19 1.22937C19.0001 1.06812 18.9684 0.908439 18.9068 0.759431C18.8452 0.610422 18.7549 0.475008 18.6409 0.36092C18.527 0.246833 18.3917 0.156306 18.2427 0.0945088C18.0938 0.0327115 17.9342 0.000853829 17.7729 0.000754723C17.6117 0.000655618 17.452 0.032317 17.303 0.0939312C17.154 0.155545 17.0186 0.245906 16.9045 0.359853L9.49984 7.76461L2.09734 0.359853C1.86694 0.129443 1.55444 -2.42776e-09 1.2286 0C0.902751 2.42776e-09 0.590253 0.129443 0.359847 0.359853C0.129441 0.590263 2.42773e-09 0.902766 0 1.22862C-2.42772e-09 1.55446 0.129441 1.86697 0.359847 2.09738L7.76448 9.5L0.359847 16.9026C0.245761 17.0167 0.155264 17.1521 0.093521 17.3012C0.0317784 17.4503 0 17.61 0 17.7714C0 17.9327 0.0317784 18.0925 0.093521 18.2416C0.155264 18.3906 0.245761 18.5261 0.359847 18.6401C0.590253 18.8706 0.902751 19 1.2286 19C1.38994 19 1.5497 18.9682 1.69876 18.9065C1.84782 18.8447 1.98326 18.7542 2.09734 18.6401L9.49984 11.2354L16.9045 18.6401C17.1349 18.8703 17.4473 18.9994 17.7729 18.9992C18.0986 18.999 18.4108 18.8695 18.6409 18.6391C18.871 18.4087 19.0002 18.0963 19 17.7706C18.9998 17.445 18.8702 17.1327 18.6398 16.9026L11.2352 9.5L18.6398 2.09738Z" fill="#FF0000"/>
</svg>
