<svg width="510" height="673" viewBox="0 0 510 673" fill="none" xmlns="http://www.w3.org/2000/svg">
<path d="M435.5 29C439.642 29 443 25.4183 443 21C443 16.5817 439.642 13 435.5 13C431.358 13 428 16.5817 428 21C428 25.4183 431.358 29 435.5 29Z" fill="#FF0000"/>
<path d="M451.734 15.7891H457.945C458.883 15.7891 459.695 15.888 460.383 16.0859C461.07 16.2786 461.641 16.5599 462.094 16.9297C462.547 17.2995 462.883 17.75 463.102 18.2812C463.326 18.8125 463.438 19.4141 463.438 20.0859C463.438 20.5391 463.383 20.9714 463.273 21.3828C463.164 21.7891 462.995 22.1641 462.766 22.5078C462.542 22.8516 462.258 23.1589 461.914 23.4297C461.57 23.6953 461.167 23.9167 460.703 24.0938L463.359 28H460.328L458.031 24.5312H457.961L454.211 24.5234V28H451.734V15.7891ZM458.008 22.3828C458.477 22.3828 458.885 22.3281 459.234 22.2188C459.589 22.1094 459.883 21.9557 460.117 21.7578C460.357 21.5599 460.534 21.3203 460.648 21.0391C460.768 20.7526 460.828 20.4349 460.828 20.0859C460.828 19.4036 460.594 18.8776 460.125 18.5078C459.656 18.1328 458.951 17.9453 458.008 17.9453H454.211V22.3828H458.008ZM467.015 15.7891H477.413V17.9609H469.492V20.3984H476.507V22.4375H469.492V25.8359H477.578V28H467.015V15.7891ZM480.225 21.8203C480.225 20.9505 480.389 20.1406 480.718 19.3906C481.046 18.6354 481.52 17.9818 482.139 17.4297C482.764 16.8724 483.525 16.4349 484.421 16.1172C485.322 15.7995 486.34 15.6406 487.475 15.6406C488.47 15.6406 489.382 15.7422 490.21 15.9453C491.043 16.1432 491.816 16.4479 492.53 16.8594L491.389 18.7344C491.176 18.5938 490.928 18.4688 490.647 18.3594C490.371 18.25 490.074 18.1589 489.757 18.0859C489.444 18.0078 489.119 17.9479 488.78 17.9062C488.447 17.8646 488.116 17.8438 487.788 17.8438C486.996 17.8438 486.29 17.9427 485.671 18.1406C485.051 18.3333 484.527 18.6068 484.1 18.9609C483.678 19.3099 483.356 19.7292 483.132 20.2188C482.913 20.7031 482.803 21.237 482.803 21.8203C482.803 22.4245 482.918 22.9792 483.147 23.4844C483.376 23.9896 483.707 24.4271 484.139 24.7969C484.577 25.1615 485.108 25.4479 485.733 25.6562C486.363 25.8594 487.074 25.9609 487.866 25.9609C488.225 25.9609 488.582 25.9349 488.936 25.8828C489.29 25.8307 489.632 25.7604 489.96 25.6719C490.293 25.5781 490.613 25.4688 490.921 25.3438C491.228 25.2135 491.514 25.0729 491.78 24.9219L492.921 26.7969C492.254 27.224 491.483 27.5599 490.608 27.8047C489.733 28.0443 488.803 28.1641 487.819 28.1641C486.564 28.1641 485.462 28.0026 484.514 27.6797C483.566 27.3516 482.775 26.9036 482.139 26.3359C481.504 25.763 481.025 25.0911 480.702 24.3203C480.384 23.5443 480.225 22.7109 480.225 21.8203Z" fill="white"/>
<path d="M86 1C1 0.999994 1 0.999994 1 0.999994" stroke="white"/>
<path d="M1 1L0.999997 112.624" stroke="white"/>
<path d="M509 112.624C509 1.00001 509 1.00001 509 1.00001" stroke="white"/>
<path d="M509 1L411 1" stroke="white"/>
<path d="M410 669.492C509 669.492 509 669.492 509 669.492" stroke="white"/>
<path d="M509 669.492V557.867" stroke="white"/>
<path d="M1 559.121C1 672 1 672 1 672" stroke="white"/>
<path d="M1 672H76" stroke="white"/>
<path d="M5.51562 618.234C5.51562 617.125 5.67969 616.159 6.00781 615.336C6.34115 614.508 6.79427 613.82 7.36719 613.273C7.94531 612.727 8.625 612.318 9.40625 612.047C10.1875 611.776 11.0312 611.641 11.9375 611.641C12.3177 611.641 12.7031 611.661 13.0938 611.703C13.4896 611.74 13.8776 611.799 14.2578 611.883C14.638 611.966 15.0052 612.076 15.3594 612.211C15.7188 612.341 16.0521 612.497 16.3594 612.68L15.2578 614.555C15.0286 614.424 14.7839 614.315 14.5234 614.227C14.2682 614.133 14.0026 614.06 13.7266 614.008C13.4505 613.951 13.1719 613.909 12.8906 613.883C12.6094 613.857 12.3333 613.844 12.0625 613.844C11.4583 613.844 10.9115 613.922 10.4219 614.078C9.9375 614.234 9.51823 614.456 9.16406 614.742C8.8099 615.029 8.52604 615.372 8.3125 615.773C8.10417 616.169 7.97396 616.609 7.92188 617.094C8.19271 616.88 8.49219 616.695 8.82031 616.539C9.14844 616.383 9.49479 616.255 9.85938 616.156C10.2292 616.052 10.6068 615.977 10.9922 615.93C11.3828 615.878 11.7734 615.852 12.1641 615.852C12.9245 615.852 13.6146 615.943 14.2344 616.125C14.8594 616.307 15.3932 616.57 15.8359 616.914C16.2786 617.258 16.6198 617.677 16.8594 618.172C17.1042 618.661 17.2266 619.219 17.2266 619.844C17.2266 620.458 17.1042 621.029 16.8594 621.555C16.6198 622.081 16.263 622.539 15.7891 622.93C15.3151 623.315 14.7266 623.62 14.0234 623.844C13.3203 624.062 12.5052 624.172 11.5781 624.172C10.6771 624.172 9.85417 624.057 9.10938 623.828C8.36458 623.599 7.72656 623.242 7.19531 622.758C6.66406 622.273 6.25 621.659 5.95312 620.914C5.66146 620.164 5.51562 619.271 5.51562 618.234ZM7.97656 619.383C8.10156 620.237 8.47656 620.883 9.10156 621.32C9.72656 621.753 10.5469 621.969 11.5625 621.969C12.0729 621.969 12.526 621.917 12.9219 621.812C13.3177 621.708 13.651 621.565 13.9219 621.383C14.1927 621.195 14.3984 620.974 14.5391 620.719C14.6797 620.464 14.75 620.185 14.75 619.883C14.75 619.628 14.6953 619.388 14.5859 619.164C14.4766 618.94 14.3047 618.747 14.0703 618.586C13.8411 618.419 13.5443 618.289 13.1797 618.195C12.8151 618.096 12.375 618.047 11.8594 618.047C11.4271 618.047 11.0182 618.081 10.6328 618.148C10.2474 618.216 9.89062 618.31 9.5625 618.43C9.23438 618.549 8.9349 618.69 8.66406 618.852C8.39844 619.013 8.16927 619.19 7.97656 619.383ZM20.2884 617.867C20.2884 616.883 20.4369 616 20.7338 615.219C21.0306 614.438 21.4525 613.776 21.9994 613.234C22.5463 612.688 23.2103 612.271 23.9916 611.984C24.7728 611.698 25.6478 611.555 26.6166 611.555C27.5853 611.555 28.4603 611.698 29.2416 611.984C30.0228 612.271 30.6869 612.688 31.2338 613.234C31.7806 613.776 32.2025 614.438 32.4994 615.219C32.7963 616 32.9447 616.883 32.9447 617.867C32.9447 618.852 32.7963 619.734 32.4994 620.516C32.2025 621.297 31.7806 621.958 31.2338 622.5C30.6869 623.042 30.0228 623.456 29.2416 623.742C28.4603 624.029 27.5853 624.172 26.6166 624.172C25.6478 624.172 24.7728 624.029 23.9916 623.742C23.2103 623.456 22.5463 623.042 21.9994 622.5C21.4525 621.958 21.0306 621.297 20.7338 620.516C20.4369 619.734 20.2884 618.852 20.2884 617.867ZM22.765 617.859C22.765 618.526 22.8535 619.115 23.0306 619.625C23.2129 620.135 23.4707 620.565 23.8041 620.914C24.1374 621.258 24.541 621.521 25.015 621.703C25.489 621.88 26.0228 621.969 26.6166 621.969C27.2103 621.969 27.7442 621.88 28.2181 621.703C28.6921 621.521 29.0957 621.258 29.4291 620.914C29.7624 620.565 30.0176 620.135 30.1947 619.625C30.377 619.115 30.4681 618.526 30.4681 617.859C30.4681 617.198 30.377 616.615 30.1947 616.109C30.0176 615.599 29.7624 615.169 29.4291 614.82C29.0957 614.471 28.6921 614.208 28.2181 614.031C27.7442 613.849 27.2103 613.758 26.6166 613.758C26.0228 613.758 25.489 613.849 25.015 614.031C24.541 614.208 24.1374 614.471 23.8041 614.82C23.4707 615.169 23.2129 615.599 23.0306 616.109C22.8535 616.615 22.765 617.198 22.765 617.859ZM43.0137 616.516H41.4356V614.781H43.0137C43.0137 614.156 43.1023 613.602 43.2794 613.117C43.4565 612.628 43.7117 612.216 44.045 611.883C44.3835 611.544 44.7924 611.286 45.2716 611.109C45.7559 610.932 46.3002 610.844 46.9044 610.844C47.3262 610.844 47.7403 610.885 48.1466 610.969C48.5528 611.047 48.9122 611.161 49.2247 611.312L48.4044 613.258C48.2794 613.185 48.1023 613.117 47.8731 613.055C47.6492 612.992 47.4018 612.961 47.1309 612.961C46.5997 612.961 46.17 613.112 45.8419 613.414C45.519 613.711 45.3471 614.167 45.3262 614.781H48.2403V616.516H45.3262V624H43.0137V616.516ZM52.9116 627.766H50.5991V614.781H52.9116V615.648C53.1147 615.508 53.3543 615.375 53.6303 615.25C53.9064 615.125 54.2032 615.016 54.5209 614.922C54.8386 614.828 55.1668 614.755 55.5053 614.703C55.8439 614.646 56.1824 614.617 56.5209 614.617C57.3022 614.617 58.0183 614.732 58.6694 614.961C59.3256 615.19 59.8881 615.513 60.3569 615.93C60.8256 616.346 61.1902 616.846 61.4506 617.43C61.7163 618.008 61.8491 618.648 61.8491 619.352C61.8491 620.086 61.711 620.75 61.435 621.344C61.159 621.932 60.7761 622.438 60.2866 622.859C59.8022 623.276 59.2241 623.599 58.5522 623.828C57.8855 624.052 57.1616 624.164 56.3803 624.164C56.047 624.164 55.7163 624.143 55.3881 624.102C55.0652 624.06 54.7527 624.003 54.4506 623.93C54.1538 623.857 53.8725 623.771 53.6069 623.672C53.3465 623.568 53.1147 623.456 52.9116 623.336V627.766ZM52.9116 621.102C53.1459 621.289 53.3933 621.448 53.6538 621.578C53.9142 621.708 54.1798 621.815 54.4506 621.898C54.7215 621.982 54.9949 622.044 55.2709 622.086C55.547 622.122 55.8152 622.141 56.0756 622.141C56.6069 622.141 57.0782 622.07 57.4897 621.93C57.9064 621.784 58.2553 621.586 58.5366 621.336C58.823 621.086 59.0418 620.792 59.1928 620.453C59.3439 620.115 59.4194 619.747 59.4194 619.352C59.4194 618.982 59.3439 618.633 59.1928 618.305C59.047 617.977 58.8334 617.69 58.5522 617.445C58.2761 617.195 57.9402 617 57.5444 616.859C57.1538 616.714 56.7136 616.641 56.2241 616.641C55.9116 616.641 55.5991 616.672 55.2866 616.734C54.9741 616.792 54.672 616.875 54.3803 616.984C54.0939 617.094 53.823 617.227 53.5678 617.383C53.3178 617.539 53.0991 617.714 52.9116 617.906V621.102ZM65.0438 621.172C65.6688 621.547 66.3563 621.823 67.1063 622C67.8563 622.177 68.6245 622.266 69.4109 622.266C69.9422 622.266 70.3849 622.229 70.7391 622.156C71.0932 622.083 71.3771 621.99 71.5906 621.875C71.8042 621.76 71.9552 621.63 72.0438 621.484C72.1323 621.339 72.1766 621.19 72.1766 621.039C72.1766 620.82 72.0802 620.633 71.8875 620.477C71.7 620.32 71.3875 620.242 70.95 620.242C70.7469 620.242 70.5281 620.255 70.2938 620.281C70.0594 620.307 69.812 620.336 69.5516 620.367C69.2964 620.393 69.0281 620.419 68.7469 620.445C68.4708 620.471 68.1896 620.484 67.9031 620.484C67.2781 620.484 66.7443 620.417 66.3016 620.281C65.8641 620.146 65.5073 619.961 65.2313 619.727C64.9552 619.492 64.7547 619.216 64.6297 618.898C64.5047 618.576 64.4422 618.229 64.4422 617.859C64.4422 617.391 64.5516 616.958 64.7703 616.562C64.9891 616.167 65.3016 615.826 65.7078 615.539C66.1141 615.247 66.6036 615.021 67.1766 614.859C67.7547 614.698 68.3979 614.617 69.1063 614.617C69.476 614.617 69.8615 614.641 70.2625 614.688C70.6688 614.729 71.0672 614.786 71.4578 614.859C71.8484 614.932 72.2234 615.018 72.5828 615.117C72.9422 615.211 73.2599 615.312 73.5359 615.422L72.8094 617.219C72.2208 617 71.6323 616.828 71.0438 616.703C70.4604 616.573 69.8589 616.508 69.2391 616.508C68.8068 616.508 68.4396 616.542 68.1375 616.609C67.8406 616.672 67.5984 616.758 67.4109 616.867C67.2234 616.971 67.0854 617.094 66.9969 617.234C66.9135 617.37 66.8719 617.513 66.8719 617.664C66.8719 617.773 66.8927 617.872 66.9344 617.961C66.9813 618.049 67.0542 618.128 67.1531 618.195C67.2573 618.258 67.3901 618.307 67.5516 618.344C67.7182 618.375 67.9214 618.391 68.1609 618.391C68.3797 618.391 68.6115 618.378 68.8563 618.352C69.101 618.326 69.3563 618.299 69.6219 618.273C69.8875 618.242 70.1609 618.214 70.4422 618.188C70.7286 618.161 71.0203 618.148 71.3172 618.148C71.8693 618.148 72.351 618.214 72.7625 618.344C73.1792 618.474 73.5229 618.656 73.7938 618.891C74.0646 619.125 74.2677 619.401 74.4031 619.719C74.5385 620.036 74.6063 620.383 74.6063 620.758C74.6063 621.242 74.4943 621.693 74.2703 622.109C74.0464 622.526 73.713 622.888 73.2703 623.195C72.8276 623.497 72.2755 623.734 71.6141 623.906C70.9578 624.078 70.1974 624.164 69.3328 624.164C68.8016 624.164 68.2885 624.13 67.7938 624.062C67.299 624 66.8276 623.914 66.3797 623.805C65.9318 623.69 65.5099 623.557 65.1141 623.406C64.7234 623.255 64.3667 623.094 64.0438 622.922L65.0438 621.172Z" fill="white"/>
<path d="M6.27344 653.828H9.04688V646.227C8.68229 646.31 8.33073 646.419 7.99219 646.555C7.65885 646.69 7.35417 646.854 7.07812 647.047L5.85938 645.305C6.30729 645.023 6.76302 644.786 7.22656 644.594C7.69531 644.396 8.16667 644.24 8.64062 644.125C9.11979 644.005 9.59896 643.919 10.0781 643.867C10.5625 643.815 11.0443 643.789 11.5234 643.789L11.5156 643.805H11.5234V653.828H14.1719V656H6.27344V653.828ZM18.2259 653.18C18.4499 653.31 18.6999 653.424 18.9759 653.523C19.252 653.622 19.5358 653.706 19.8275 653.773C20.1244 653.836 20.4213 653.885 20.7181 653.922C21.0202 653.953 21.3067 653.969 21.5775 653.969C22.1817 653.969 22.7259 653.891 23.2103 653.734C23.6999 653.578 24.1218 653.357 24.4759 653.07C24.8301 652.784 25.1114 652.443 25.3197 652.047C25.5332 651.646 25.666 651.203 25.7181 650.719C25.4473 650.932 25.1478 651.117 24.8197 651.273C24.4916 651.43 24.1426 651.56 23.7728 651.664C23.4082 651.763 23.0306 651.839 22.64 651.891C22.2546 651.938 21.8666 651.961 21.4759 651.961C20.7155 651.961 20.0228 651.87 19.3978 651.688C18.778 651.505 18.2468 651.242 17.8041 650.898C17.3614 650.555 17.0176 650.138 16.7728 649.648C16.5332 649.154 16.4134 648.594 16.4134 647.969C16.4134 647.354 16.5332 646.784 16.7728 646.258C17.0176 645.732 17.377 645.276 17.8509 644.891C18.3249 644.5 18.9134 644.195 19.6166 643.977C20.3197 643.753 21.1348 643.641 22.0619 643.641C22.9629 643.641 23.7858 643.755 24.5306 643.984C25.2754 644.214 25.9134 644.57 26.4447 645.055C26.9759 645.539 27.3874 646.156 27.6791 646.906C27.9759 647.651 28.1244 648.542 28.1244 649.578C28.1244 650.688 27.9577 651.656 27.6244 652.484C27.2963 653.307 26.8431 653.992 26.265 654.539C25.6921 655.086 25.015 655.495 24.2338 655.766C23.4525 656.036 22.6088 656.172 21.7025 656.172C21.3223 656.172 20.9265 656.148 20.515 656.102C20.1088 656.055 19.7051 655.984 19.3041 655.891C18.903 655.797 18.515 655.68 18.14 655.539C17.7702 655.398 17.4317 655.237 17.1244 655.055L18.2259 653.18ZM18.89 647.93C18.89 648.185 18.9447 648.424 19.0541 648.648C19.1634 648.872 19.3327 649.068 19.5619 649.234C19.7963 649.396 20.0957 649.526 20.4603 649.625C20.8249 649.719 21.265 649.766 21.7806 649.766C22.2129 649.766 22.6218 649.732 23.0072 649.664C23.3926 649.596 23.7494 649.503 24.0775 649.383C24.4056 649.263 24.7025 649.122 24.9681 648.961C25.239 648.799 25.4707 648.622 25.6634 648.43C25.5384 647.576 25.1634 646.932 24.5384 646.5C23.9134 646.062 23.0931 645.844 22.0775 645.844C21.5671 645.844 21.114 645.896 20.7181 646C20.3223 646.104 19.989 646.25 19.7181 646.438C19.4473 646.62 19.2416 646.839 19.1009 647.094C18.9603 647.349 18.89 647.628 18.89 647.93ZM31.9831 653.875L36.2878 650.922C36.9336 650.479 37.4623 650.094 37.8738 649.766C38.2852 649.438 38.6081 649.146 38.8425 648.891C39.0769 648.63 39.2383 648.396 39.3269 648.188C39.4154 647.979 39.4597 647.771 39.4597 647.562C39.4597 647.323 39.4102 647.099 39.3113 646.891C39.2123 646.682 39.056 646.5 38.8425 646.344C38.6342 646.188 38.3633 646.065 38.03 645.977C37.7019 645.888 37.3086 645.844 36.8503 645.844C36.1836 645.844 35.5196 645.938 34.8581 646.125C34.1967 646.312 33.5222 646.612 32.8347 647.023L31.6941 645.148C32.4597 644.674 33.2878 644.305 34.1784 644.039C35.0743 643.773 36.0144 643.641 36.9988 643.641C37.8581 643.641 38.6029 643.745 39.2331 643.953C39.8685 644.156 40.392 644.435 40.8034 644.789C41.2201 645.143 41.53 645.555 41.7331 646.023C41.9363 646.492 42.0378 646.99 42.0378 647.516C42.0378 647.922 41.9701 648.31 41.8347 648.68C41.6993 649.049 41.4623 649.432 41.1238 649.828C40.7852 650.224 40.3269 650.651 39.7488 651.109C39.1758 651.562 38.4519 652.078 37.5769 652.656L35.7956 653.828H42.4831V656H31.9831V653.875ZM45.2716 649.867C45.2716 648.883 45.42 648 45.7169 647.219C46.0137 646.438 46.4356 645.776 46.9825 645.234C47.5294 644.688 48.1934 644.271 48.9747 643.984C49.7559 643.698 50.6309 643.555 51.5997 643.555C52.5684 643.555 53.4434 643.698 54.2247 643.984C55.0059 644.271 55.67 644.688 56.2169 645.234C56.7637 645.776 57.1856 646.438 57.4825 647.219C57.7794 648 57.9278 648.883 57.9278 649.867C57.9278 650.852 57.7794 651.734 57.4825 652.516C57.1856 653.297 56.7637 653.958 56.2169 654.5C55.67 655.042 55.0059 655.456 54.2247 655.742C53.4434 656.029 52.5684 656.172 51.5997 656.172C50.6309 656.172 49.7559 656.029 48.9747 655.742C48.1934 655.456 47.5294 655.042 46.9825 654.5C46.4356 653.958 46.0137 653.297 45.7169 652.516C45.42 651.734 45.2716 650.852 45.2716 649.867ZM47.7481 649.859C47.7481 650.526 47.8367 651.115 48.0137 651.625C48.196 652.135 48.4539 652.565 48.7872 652.914C49.1205 653.258 49.5242 653.521 49.9981 653.703C50.4721 653.88 51.0059 653.969 51.5997 653.969C52.1934 653.969 52.7273 653.88 53.2012 653.703C53.6752 653.521 54.0789 653.258 54.4122 652.914C54.7455 652.565 55.0007 652.135 55.1778 651.625C55.3601 651.115 55.4512 650.526 55.4512 649.859C55.4512 649.198 55.3601 648.615 55.1778 648.109C55.0007 647.599 54.7455 647.169 54.4122 646.82C54.0789 646.471 53.6752 646.208 53.2012 646.031C52.7273 645.849 52.1934 645.758 51.5997 645.758C51.0059 645.758 50.4721 645.849 49.9981 646.031C49.5242 646.208 49.1205 646.471 48.7872 646.82C48.4539 647.169 48.196 647.599 48.0137 648.109C47.8367 648.615 47.7481 649.198 47.7481 649.859ZM69.3797 651.391L65.5672 646.773H68.5203L70.8328 649.586L73.0281 646.773H75.9109L72.325 651.383L76.1375 656H73.1844L70.8016 653.117L68.5906 656H65.7078L69.3797 651.391ZM84.0347 653.828H86.8081V646.227C86.4435 646.31 86.092 646.419 85.7534 646.555C85.4201 646.69 85.1154 646.854 84.8394 647.047L83.6206 645.305C84.0685 645.023 84.5243 644.786 84.9878 644.594C85.4566 644.396 85.9279 644.24 86.4019 644.125C86.881 644.005 87.3602 643.919 87.8394 643.867C88.3238 643.815 88.8055 643.789 89.2847 643.789L89.2769 643.805H89.2847V653.828H91.9331V656H84.0347V653.828ZM93.7528 649.867C93.7528 648.883 93.9013 648 94.1981 647.219C94.495 646.438 94.9169 645.776 95.4638 645.234C96.0106 644.688 96.6747 644.271 97.4559 643.984C98.2372 643.698 99.1122 643.555 100.081 643.555C101.05 643.555 101.925 643.698 102.706 643.984C103.487 644.271 104.151 644.688 104.698 645.234C105.245 645.776 105.667 646.438 105.964 647.219C106.261 648 106.409 648.883 106.409 649.867C106.409 650.852 106.261 651.734 105.964 652.516C105.667 653.297 105.245 653.958 104.698 654.5C104.151 655.042 103.487 655.456 102.706 655.742C101.925 656.029 101.05 656.172 100.081 656.172C99.1122 656.172 98.2372 656.029 97.4559 655.742C96.6747 655.456 96.0106 655.042 95.4638 654.5C94.9169 653.958 94.495 653.297 94.1981 652.516C93.9013 651.734 93.7528 650.852 93.7528 649.867ZM96.2294 649.859C96.2294 650.526 96.3179 651.115 96.495 651.625C96.6773 652.135 96.9351 652.565 97.2684 652.914C97.6018 653.258 98.0054 653.521 98.4794 653.703C98.9533 653.88 99.4872 653.969 100.081 653.969C100.675 653.969 101.209 653.88 101.683 653.703C102.156 653.521 102.56 653.258 102.893 652.914C103.227 652.565 103.482 652.135 103.659 651.625C103.841 651.115 103.933 650.526 103.933 649.859C103.933 649.198 103.841 648.615 103.659 648.109C103.482 647.599 103.227 647.169 102.893 646.82C102.56 646.471 102.156 646.208 101.683 646.031C101.209 645.849 100.675 645.758 100.081 645.758C99.4872 645.758 98.9533 645.849 98.4794 646.031C98.0054 646.208 97.6018 646.471 97.2684 646.82C96.9351 647.169 96.6773 647.599 96.495 648.109C96.3179 648.615 96.2294 649.198 96.2294 649.859ZM109.299 652.281C109.299 651.917 109.349 651.578 109.448 651.266C109.546 650.953 109.682 650.669 109.854 650.414C110.026 650.154 110.224 649.924 110.448 649.727C110.677 649.523 110.921 649.346 111.182 649.195C110.823 648.841 110.562 648.49 110.401 648.141C110.239 647.786 110.158 647.448 110.158 647.125C110.158 646.609 110.278 646.138 110.518 645.711C110.763 645.284 111.112 644.917 111.565 644.609C112.018 644.297 112.567 644.057 113.213 643.891C113.859 643.719 114.586 643.633 115.393 643.633C116.2 643.633 116.927 643.719 117.573 643.891C118.218 644.057 118.768 644.297 119.221 644.609C119.674 644.917 120.02 645.284 120.26 645.711C120.505 646.138 120.627 646.609 120.627 647.125C120.627 647.448 120.546 647.786 120.385 648.141C120.224 648.49 119.963 648.841 119.604 649.195C119.859 649.346 120.101 649.523 120.33 649.727C120.559 649.924 120.76 650.154 120.932 650.414C121.104 650.669 121.239 650.953 121.338 651.266C121.437 651.578 121.487 651.917 121.487 652.281C121.487 652.891 121.343 653.438 121.057 653.922C120.776 654.401 120.369 654.807 119.838 655.141C119.312 655.469 118.671 655.721 117.916 655.898C117.166 656.076 116.325 656.164 115.393 656.164C114.461 656.164 113.617 656.076 112.862 655.898C112.112 655.721 111.471 655.469 110.94 655.141C110.414 654.807 110.007 654.401 109.721 653.922C109.44 653.438 109.299 652.891 109.299 652.281ZM112.635 647.234C112.635 647.427 112.682 647.609 112.776 647.781C112.875 647.948 113.031 648.096 113.244 648.227C113.463 648.352 113.747 648.451 114.096 648.523C114.45 648.596 114.882 648.633 115.393 648.633C115.903 648.633 116.333 648.596 116.682 648.523C117.036 648.451 117.32 648.352 117.533 648.227C117.752 648.096 117.908 647.948 118.002 647.781C118.101 647.609 118.151 647.427 118.151 647.234C118.151 647.042 118.101 646.862 118.002 646.695C117.908 646.523 117.752 646.375 117.533 646.25C117.32 646.12 117.036 646.018 116.682 645.945C116.333 645.872 115.903 645.836 115.393 645.836C114.882 645.836 114.45 645.872 114.096 645.945C113.747 646.018 113.463 646.12 113.244 646.25C113.031 646.375 112.875 646.523 112.776 646.695C112.682 646.862 112.635 647.042 112.635 647.234ZM111.776 652.164C111.776 652.43 111.851 652.674 112.002 652.898C112.158 653.117 112.388 653.305 112.69 653.461C112.992 653.617 113.369 653.74 113.823 653.828C114.276 653.917 114.799 653.961 115.393 653.961C115.987 653.961 116.51 653.917 116.963 653.828C117.416 653.74 117.794 653.617 118.096 653.461C118.398 653.305 118.625 653.117 118.776 652.898C118.932 652.674 119.01 652.43 119.01 652.164C119.01 651.898 118.934 651.656 118.783 651.438C118.638 651.214 118.414 651.023 118.112 650.867C117.815 650.711 117.44 650.589 116.987 650.5C116.533 650.411 116.002 650.367 115.393 650.367C114.783 650.367 114.252 650.411 113.799 650.5C113.346 650.589 112.968 650.711 112.666 650.867C112.369 651.023 112.145 651.214 111.994 651.438C111.849 651.656 111.776 651.898 111.776 652.164ZM124.361 649.867C124.361 648.883 124.509 648 124.806 647.219C125.103 646.438 125.525 645.776 126.072 645.234C126.619 644.688 127.283 644.271 128.064 643.984C128.845 643.698 129.72 643.555 130.689 643.555C131.658 643.555 132.533 643.698 133.314 643.984C134.095 644.271 134.759 644.688 135.306 645.234C135.853 645.776 136.275 646.438 136.572 647.219C136.869 648 137.017 648.883 137.017 649.867C137.017 650.852 136.869 651.734 136.572 652.516C136.275 653.297 135.853 653.958 135.306 654.5C134.759 655.042 134.095 655.456 133.314 655.742C132.533 656.029 131.658 656.172 130.689 656.172C129.72 656.172 128.845 656.029 128.064 655.742C127.283 655.456 126.619 655.042 126.072 654.5C125.525 653.958 125.103 653.297 124.806 652.516C124.509 651.734 124.361 650.852 124.361 649.867ZM126.838 649.859C126.838 650.526 126.926 651.115 127.103 651.625C127.285 652.135 127.543 652.565 127.877 652.914C128.21 653.258 128.614 653.521 129.088 653.703C129.561 653.88 130.095 653.969 130.689 653.969C131.283 653.969 131.817 653.88 132.291 653.703C132.765 653.521 133.168 653.258 133.502 652.914C133.835 652.565 134.09 652.135 134.267 651.625C134.449 651.115 134.541 650.526 134.541 649.859C134.541 649.198 134.449 648.615 134.267 648.109C134.09 647.599 133.835 647.169 133.502 646.82C133.168 646.471 132.765 646.208 132.291 646.031C131.817 645.849 131.283 645.758 130.689 645.758C130.095 645.758 129.561 645.849 129.088 646.031C128.614 646.208 128.21 646.471 127.877 646.82C127.543 647.169 127.285 647.599 127.103 648.109C126.926 648.615 126.838 649.198 126.838 649.859Z" fill="white"/>
<path d="M387.008 645.867C387.008 644.883 387.156 644 387.453 643.219C387.75 642.438 388.172 641.776 388.719 641.234C389.266 640.688 389.93 640.271 390.711 639.984C391.492 639.698 392.367 639.555 393.336 639.555C394.305 639.555 395.18 639.698 395.961 639.984C396.742 640.271 397.406 640.688 397.953 641.234C398.5 641.776 398.922 642.438 399.219 643.219C399.516 644 399.664 644.883 399.664 645.867C399.664 646.852 399.516 647.734 399.219 648.516C398.922 649.297 398.5 649.958 397.953 650.5C397.406 651.042 396.742 651.456 395.961 651.742C395.18 652.029 394.305 652.172 393.336 652.172C392.367 652.172 391.492 652.029 390.711 651.742C389.93 651.456 389.266 651.042 388.719 650.5C388.172 649.958 387.75 649.297 387.453 648.516C387.156 647.734 387.008 646.852 387.008 645.867ZM389.484 645.859C389.484 646.526 389.573 647.115 389.75 647.625C389.932 648.135 390.19 648.565 390.523 648.914C390.857 649.258 391.26 649.521 391.734 649.703C392.208 649.88 392.742 649.969 393.336 649.969C393.93 649.969 394.464 649.88 394.938 649.703C395.411 649.521 395.815 649.258 396.148 648.914C396.482 648.565 396.737 648.135 396.914 647.625C397.096 647.115 397.188 646.526 397.188 645.859C397.188 645.198 397.096 644.615 396.914 644.109C396.737 643.599 396.482 643.169 396.148 642.82C395.815 642.471 395.411 642.208 394.938 642.031C394.464 641.849 393.93 641.758 393.336 641.758C392.742 641.758 392.208 641.849 391.734 642.031C391.26 642.208 390.857 642.471 390.523 642.82C390.19 643.169 389.932 643.599 389.75 644.109C389.573 644.615 389.484 645.198 389.484 645.859ZM402.335 645.867C402.335 644.883 402.484 644 402.781 643.219C403.078 642.438 403.499 641.776 404.046 641.234C404.593 640.688 405.257 640.271 406.038 639.984C406.82 639.698 407.695 639.555 408.663 639.555C409.632 639.555 410.507 639.698 411.288 639.984C412.07 640.271 412.734 640.688 413.281 641.234C413.828 641.776 414.249 642.438 414.546 643.219C414.843 644 414.992 644.883 414.992 645.867C414.992 646.852 414.843 647.734 414.546 648.516C414.249 649.297 413.828 649.958 413.281 650.5C412.734 651.042 412.07 651.456 411.288 651.742C410.507 652.029 409.632 652.172 408.663 652.172C407.695 652.172 406.82 652.029 406.038 651.742C405.257 651.456 404.593 651.042 404.046 650.5C403.499 649.958 403.078 649.297 402.781 648.516C402.484 647.734 402.335 646.852 402.335 645.867ZM404.812 645.859C404.812 646.526 404.9 647.115 405.078 647.625C405.26 648.135 405.518 648.565 405.851 648.914C406.184 649.258 406.588 649.521 407.062 649.703C407.536 649.88 408.07 649.969 408.663 649.969C409.257 649.969 409.791 649.88 410.265 649.703C410.739 649.521 411.143 649.258 411.476 648.914C411.809 648.565 412.064 648.135 412.242 647.625C412.424 647.115 412.515 646.526 412.515 645.859C412.515 645.198 412.424 644.615 412.242 644.109C412.064 643.599 411.809 643.169 411.476 642.82C411.143 642.471 410.739 642.208 410.265 642.031C409.791 641.849 409.257 641.758 408.663 641.758C408.07 641.758 407.536 641.849 407.062 642.031C406.588 642.208 406.184 642.471 405.851 642.82C405.518 643.169 405.26 643.599 405.078 644.109C404.9 644.615 404.812 645.198 404.812 645.859ZM418.147 650.648C418.147 650.44 418.189 650.245 418.272 650.062C418.361 649.875 418.486 649.714 418.647 649.578C418.809 649.438 419.004 649.328 419.233 649.25C419.462 649.172 419.72 649.133 420.007 649.133C420.293 649.133 420.551 649.172 420.78 649.25C421.009 649.328 421.202 649.438 421.358 649.578C421.52 649.714 421.642 649.875 421.725 650.062C421.814 650.245 421.858 650.44 421.858 650.648C421.858 650.857 421.814 651.055 421.725 651.242C421.642 651.424 421.52 651.583 421.358 651.719C421.202 651.854 421.009 651.961 420.78 652.039C420.551 652.122 420.293 652.164 420.007 652.164C419.72 652.164 419.462 652.122 419.233 652.039C419.004 651.961 418.809 651.854 418.647 651.719C418.486 651.583 418.361 651.424 418.272 651.242C418.189 651.055 418.147 650.857 418.147 650.648ZM418.147 644.125C418.147 643.917 418.189 643.721 418.272 643.539C418.361 643.352 418.486 643.19 418.647 643.055C418.809 642.914 419.004 642.805 419.233 642.727C419.462 642.648 419.72 642.609 420.007 642.609C420.293 642.609 420.551 642.648 420.78 642.727C421.009 642.805 421.202 642.914 421.358 643.055C421.52 643.19 421.642 643.352 421.725 643.539C421.814 643.721 421.858 643.917 421.858 644.125C421.858 644.333 421.814 644.531 421.725 644.719C421.642 644.901 421.52 645.06 421.358 645.195C421.202 645.331 421.009 645.44 420.78 645.523C420.551 645.602 420.293 645.641 420.007 645.641C419.72 645.641 419.462 645.602 419.233 645.523C419.004 645.44 418.809 645.331 418.647 645.195C418.486 645.06 418.361 644.901 418.272 644.719C418.189 644.531 418.147 644.333 418.147 644.125ZM425.006 645.867C425.006 644.883 425.154 644 425.451 643.219C425.748 642.438 426.17 641.776 426.717 641.234C427.264 640.688 427.928 640.271 428.709 639.984C429.49 639.698 430.365 639.555 431.334 639.555C432.303 639.555 433.178 639.698 433.959 639.984C434.74 640.271 435.404 640.688 435.951 641.234C436.498 641.776 436.92 642.438 437.217 643.219C437.514 644 437.662 644.883 437.662 645.867C437.662 646.852 437.514 647.734 437.217 648.516C436.92 649.297 436.498 649.958 435.951 650.5C435.404 651.042 434.74 651.456 433.959 651.742C433.178 652.029 432.303 652.172 431.334 652.172C430.365 652.172 429.49 652.029 428.709 651.742C427.928 651.456 427.264 651.042 426.717 650.5C426.17 649.958 425.748 649.297 425.451 648.516C425.154 647.734 425.006 646.852 425.006 645.867ZM427.482 645.859C427.482 646.526 427.571 647.115 427.748 647.625C427.93 648.135 428.188 648.565 428.522 648.914C428.855 649.258 429.259 649.521 429.732 649.703C430.206 649.88 430.74 649.969 431.334 649.969C431.928 649.969 432.462 649.88 432.936 649.703C433.41 649.521 433.813 649.258 434.147 648.914C434.48 648.565 434.735 648.135 434.912 647.625C435.094 647.115 435.186 646.526 435.186 645.859C435.186 645.198 435.094 644.615 434.912 644.109C434.735 643.599 434.48 643.169 434.147 642.82C433.813 642.471 433.41 642.208 432.936 642.031C432.462 641.849 431.928 641.758 431.334 641.758C430.74 641.758 430.206 641.849 429.732 642.031C429.259 642.208 428.855 642.471 428.522 642.82C428.188 643.169 427.93 643.599 427.748 644.109C427.571 644.615 427.482 645.198 427.482 645.859ZM440.333 645.867C440.333 644.883 440.482 644 440.779 643.219C441.076 642.438 441.498 641.776 442.044 641.234C442.591 640.688 443.255 640.271 444.037 639.984C444.818 639.698 445.693 639.555 446.662 639.555C447.63 639.555 448.505 639.698 449.287 639.984C450.068 640.271 450.732 640.688 451.279 641.234C451.826 641.776 452.248 642.438 452.544 643.219C452.841 644 452.99 644.883 452.99 645.867C452.99 646.852 452.841 647.734 452.544 648.516C452.248 649.297 451.826 649.958 451.279 650.5C450.732 651.042 450.068 651.456 449.287 651.742C448.505 652.029 447.63 652.172 446.662 652.172C445.693 652.172 444.818 652.029 444.037 651.742C443.255 651.456 442.591 651.042 442.044 650.5C441.498 649.958 441.076 649.297 440.779 648.516C440.482 647.734 440.333 646.852 440.333 645.867ZM442.81 645.859C442.81 646.526 442.899 647.115 443.076 647.625C443.258 648.135 443.516 648.565 443.849 648.914C444.182 649.258 444.586 649.521 445.06 649.703C445.534 649.88 446.068 649.969 446.662 649.969C447.255 649.969 447.789 649.88 448.263 649.703C448.737 649.521 449.141 649.258 449.474 648.914C449.807 648.565 450.063 648.135 450.24 647.625C450.422 647.115 450.513 646.526 450.513 645.859C450.513 645.198 450.422 644.615 450.24 644.109C450.063 643.599 449.807 643.169 449.474 642.82C449.141 642.471 448.737 642.208 448.263 642.031C447.789 641.849 447.255 641.758 446.662 641.758C446.068 641.758 445.534 641.849 445.06 642.031C444.586 642.208 444.182 642.471 443.849 642.82C443.516 643.169 443.258 643.599 443.076 644.109C442.899 644.615 442.81 645.198 442.81 645.859ZM456.145 650.648C456.145 650.44 456.187 650.245 456.27 650.062C456.359 649.875 456.484 649.714 456.645 649.578C456.807 649.438 457.002 649.328 457.231 649.25C457.46 649.172 457.718 649.133 458.005 649.133C458.291 649.133 458.549 649.172 458.778 649.25C459.007 649.328 459.2 649.438 459.356 649.578C459.518 649.714 459.64 649.875 459.723 650.062C459.812 650.245 459.856 650.44 459.856 650.648C459.856 650.857 459.812 651.055 459.723 651.242C459.64 651.424 459.518 651.583 459.356 651.719C459.2 651.854 459.007 651.961 458.778 652.039C458.549 652.122 458.291 652.164 458.005 652.164C457.718 652.164 457.46 652.122 457.231 652.039C457.002 651.961 456.807 651.854 456.645 651.719C456.484 651.583 456.359 651.424 456.27 651.242C456.187 651.055 456.145 650.857 456.145 650.648ZM456.145 644.125C456.145 643.917 456.187 643.721 456.27 643.539C456.359 643.352 456.484 643.19 456.645 643.055C456.807 642.914 457.002 642.805 457.231 642.727C457.46 642.648 457.718 642.609 458.005 642.609C458.291 642.609 458.549 642.648 458.778 642.727C459.007 642.805 459.2 642.914 459.356 643.055C459.518 643.19 459.64 643.352 459.723 643.539C459.812 643.721 459.856 643.917 459.856 644.125C459.856 644.333 459.812 644.531 459.723 644.719C459.64 644.901 459.518 645.06 459.356 645.195C459.2 645.331 459.007 645.44 458.778 645.523C458.549 645.602 458.291 645.641 458.005 645.641C457.718 645.641 457.46 645.602 457.231 645.523C457.002 645.44 456.807 645.331 456.645 645.195C456.484 645.06 456.359 644.901 456.27 644.719C456.187 644.531 456.145 644.333 456.145 644.125ZM463.004 645.867C463.004 644.883 463.152 644 463.449 643.219C463.746 642.438 464.168 641.776 464.715 641.234C465.262 640.688 465.926 640.271 466.707 639.984C467.488 639.698 468.363 639.555 469.332 639.555C470.301 639.555 471.176 639.698 471.957 639.984C472.738 640.271 473.402 640.688 473.949 641.234C474.496 641.776 474.918 642.438 475.215 643.219C475.512 644 475.66 644.883 475.66 645.867C475.66 646.852 475.512 647.734 475.215 648.516C474.918 649.297 474.496 649.958 473.949 650.5C473.402 651.042 472.738 651.456 471.957 651.742C471.176 652.029 470.301 652.172 469.332 652.172C468.363 652.172 467.488 652.029 466.707 651.742C465.926 651.456 465.262 651.042 464.715 650.5C464.168 649.958 463.746 649.297 463.449 648.516C463.152 647.734 463.004 646.852 463.004 645.867ZM465.481 645.859C465.481 646.526 465.569 647.115 465.746 647.625C465.929 648.135 466.186 648.565 466.52 648.914C466.853 649.258 467.257 649.521 467.731 649.703C468.205 649.88 468.738 649.969 469.332 649.969C469.926 649.969 470.46 649.88 470.934 649.703C471.408 649.521 471.811 649.258 472.145 648.914C472.478 648.565 472.733 648.135 472.91 647.625C473.093 647.115 473.184 646.526 473.184 645.859C473.184 645.198 473.093 644.615 472.91 644.109C472.733 643.599 472.478 643.169 472.145 642.82C471.811 642.471 471.408 642.208 470.934 642.031C470.46 641.849 469.926 641.758 469.332 641.758C468.738 641.758 468.205 641.849 467.731 642.031C467.257 642.208 466.853 642.471 466.52 642.82C466.186 643.169 465.929 643.599 465.746 644.109C465.569 644.615 465.481 645.198 465.481 645.859ZM478.332 645.867C478.332 644.883 478.48 644 478.777 643.219C479.074 642.438 479.496 641.776 480.043 641.234C480.589 640.688 481.253 640.271 482.035 639.984C482.816 639.698 483.691 639.555 484.66 639.555C485.628 639.555 486.503 639.698 487.285 639.984C488.066 640.271 488.73 640.688 489.277 641.234C489.824 641.776 490.246 642.438 490.543 643.219C490.839 644 490.988 644.883 490.988 645.867C490.988 646.852 490.839 647.734 490.543 648.516C490.246 649.297 489.824 649.958 489.277 650.5C488.73 651.042 488.066 651.456 487.285 651.742C486.503 652.029 485.628 652.172 484.66 652.172C483.691 652.172 482.816 652.029 482.035 651.742C481.253 651.456 480.589 651.042 480.043 650.5C479.496 649.958 479.074 649.297 478.777 648.516C478.48 647.734 478.332 646.852 478.332 645.867ZM480.808 645.859C480.808 646.526 480.897 647.115 481.074 647.625C481.256 648.135 481.514 648.565 481.847 648.914C482.181 649.258 482.584 649.521 483.058 649.703C483.532 649.88 484.066 649.969 484.66 649.969C485.253 649.969 485.787 649.88 486.261 649.703C486.735 649.521 487.139 649.258 487.472 648.914C487.806 648.565 488.061 648.135 488.238 647.625C488.42 647.115 488.511 646.526 488.511 645.859C488.511 645.198 488.42 644.615 488.238 644.109C488.061 643.599 487.806 643.169 487.472 642.82C487.139 642.471 486.735 642.208 486.261 642.031C485.787 641.849 485.253 641.758 484.66 641.758C484.066 641.758 483.532 641.849 483.058 642.031C482.584 642.208 482.181 642.471 481.847 642.82C481.514 643.169 481.256 643.599 481.074 644.109C480.897 644.615 480.808 645.198 480.808 645.859Z" fill="white"/>
</svg>
