<svg width="652" height="552" viewBox="0 0 652 552" fill="none" xmlns="http://www.w3.org/2000/svg">
<path d="M584.5 34C588.642 34 592 30.4183 592 26C592 21.5817 588.642 18 584.5 18C580.358 18 577 21.5817 577 26C577 30.4183 580.358 34 584.5 34Z" fill="#FF0000"/>
<path d="M600.734 20.7891H606.945C607.883 20.7891 608.695 20.888 609.383 21.0859C610.07 21.2786 610.641 21.5599 611.094 21.9297C611.547 22.2995 611.883 22.75 612.102 23.2812C612.326 23.8125 612.438 24.4141 612.438 25.0859C612.438 25.5391 612.383 25.9714 612.273 26.3828C612.164 26.7891 611.995 27.1641 611.766 27.5078C611.542 27.8516 611.258 28.1589 610.914 28.4297C610.57 28.6953 610.167 28.9167 609.703 29.0938L612.359 33H609.328L607.031 29.5312H606.961L603.211 29.5234V33H600.734V20.7891ZM607.008 27.3828C607.477 27.3828 607.885 27.3281 608.234 27.2188C608.589 27.1094 608.883 26.9557 609.117 26.7578C609.357 26.5599 609.534 26.3203 609.648 26.0391C609.768 25.7526 609.828 25.4349 609.828 25.0859C609.828 24.4036 609.594 23.8776 609.125 23.5078C608.656 23.1328 607.951 22.9453 607.008 22.9453H603.211V27.3828H607.008ZM616.015 20.7891H626.413V22.9609H618.492V25.3984H625.507V27.4375H618.492V30.8359H626.578V33H616.015V20.7891ZM629.225 26.8203C629.225 25.9505 629.389 25.1406 629.718 24.3906C630.046 23.6354 630.52 22.9818 631.139 22.4297C631.764 21.8724 632.525 21.4349 633.421 21.1172C634.322 20.7995 635.34 20.6406 636.475 20.6406C637.47 20.6406 638.382 20.7422 639.21 20.9453C640.043 21.1432 640.816 21.4479 641.53 21.8594L640.389 23.7344C640.176 23.5938 639.928 23.4688 639.647 23.3594C639.371 23.25 639.074 23.1589 638.757 23.0859C638.444 23.0078 638.119 22.9479 637.78 22.9062C637.447 22.8646 637.116 22.8438 636.788 22.8438C635.996 22.8438 635.29 22.9427 634.671 23.1406C634.051 23.3333 633.527 23.6068 633.1 23.9609C632.678 24.3099 632.356 24.7292 632.132 25.2188C631.913 25.7031 631.803 26.237 631.803 26.8203C631.803 27.4245 631.918 27.9792 632.147 28.4844C632.376 28.9896 632.707 29.4271 633.139 29.7969C633.577 30.1615 634.108 30.4479 634.733 30.6562C635.363 30.8594 636.074 30.9609 636.866 30.9609C637.225 30.9609 637.582 30.9349 637.936 30.8828C638.29 30.8307 638.632 30.7604 638.96 30.6719C639.293 30.5781 639.613 30.4688 639.921 30.3438C640.228 30.2135 640.514 30.0729 640.78 29.9219L641.921 31.7969C641.254 32.224 640.483 32.5599 639.608 32.8047C638.733 33.0443 637.803 33.1641 636.819 33.1641C635.564 33.1641 634.462 33.0026 633.514 32.6797C632.566 32.3516 631.775 31.9036 631.139 31.3359C630.504 30.763 630.025 30.0911 629.702 29.3203C629.384 28.5443 629.225 27.7109 629.225 26.8203Z" fill="white"/>
<path d="M109.76 1C0.999982 0.999994 0.999982 0.999994 0.999982 0.999994" stroke="white"/>
<path d="M1.00006 1L1.00006 92.4953" stroke="white"/>
<path d="M651 92.4953C651 0.999984 651 0.999984 651 0.999984" stroke="white"/>
<path d="M651 1L525.606 1" stroke="white"/>
<path d="M524.327 548.944C651 548.944 651 548.944 651 548.944" stroke="white"/>
<path d="M651 548.944V457.449" stroke="white"/>
<path d="M1 458.477C1 551 1 551 1 551" stroke="white"/>
<path d="M1 551H96.9646" stroke="white"/>
<path d="M5.51562 498.234C5.51562 497.125 5.67969 496.159 6.00781 495.336C6.34115 494.508 6.79427 493.82 7.36719 493.273C7.94531 492.727 8.625 492.318 9.40625 492.047C10.1875 491.776 11.0312 491.641 11.9375 491.641C12.3177 491.641 12.7031 491.661 13.0938 491.703C13.4896 491.74 13.8776 491.799 14.2578 491.883C14.638 491.966 15.0052 492.076 15.3594 492.211C15.7188 492.341 16.0521 492.497 16.3594 492.68L15.2578 494.555C15.0286 494.424 14.7839 494.315 14.5234 494.227C14.2682 494.133 14.0026 494.06 13.7266 494.008C13.4505 493.951 13.1719 493.909 12.8906 493.883C12.6094 493.857 12.3333 493.844 12.0625 493.844C11.4583 493.844 10.9115 493.922 10.4219 494.078C9.9375 494.234 9.51823 494.456 9.16406 494.742C8.8099 495.029 8.52604 495.372 8.3125 495.773C8.10417 496.169 7.97396 496.609 7.92188 497.094C8.19271 496.88 8.49219 496.695 8.82031 496.539C9.14844 496.383 9.49479 496.255 9.85938 496.156C10.2292 496.052 10.6068 495.977 10.9922 495.93C11.3828 495.878 11.7734 495.852 12.1641 495.852C12.9245 495.852 13.6146 495.943 14.2344 496.125C14.8594 496.307 15.3932 496.57 15.8359 496.914C16.2786 497.258 16.6198 497.677 16.8594 498.172C17.1042 498.661 17.2266 499.219 17.2266 499.844C17.2266 500.458 17.1042 501.029 16.8594 501.555C16.6198 502.081 16.263 502.539 15.7891 502.93C15.3151 503.315 14.7266 503.62 14.0234 503.844C13.3203 504.062 12.5052 504.172 11.5781 504.172C10.6771 504.172 9.85417 504.057 9.10938 503.828C8.36458 503.599 7.72656 503.242 7.19531 502.758C6.66406 502.273 6.25 501.659 5.95312 500.914C5.66146 500.164 5.51562 499.271 5.51562 498.234ZM7.97656 499.383C8.10156 500.237 8.47656 500.883 9.10156 501.32C9.72656 501.753 10.5469 501.969 11.5625 501.969C12.0729 501.969 12.526 501.917 12.9219 501.812C13.3177 501.708 13.651 501.565 13.9219 501.383C14.1927 501.195 14.3984 500.974 14.5391 500.719C14.6797 500.464 14.75 500.185 14.75 499.883C14.75 499.628 14.6953 499.388 14.5859 499.164C14.4766 498.94 14.3047 498.747 14.0703 498.586C13.8411 498.419 13.5443 498.289 13.1797 498.195C12.8151 498.096 12.375 498.047 11.8594 498.047C11.4271 498.047 11.0182 498.081 10.6328 498.148C10.2474 498.216 9.89062 498.31 9.5625 498.43C9.23438 498.549 8.9349 498.69 8.66406 498.852C8.39844 499.013 8.16927 499.19 7.97656 499.383ZM20.2884 497.867C20.2884 496.883 20.4369 496 20.7338 495.219C21.0306 494.438 21.4525 493.776 21.9994 493.234C22.5463 492.688 23.2103 492.271 23.9916 491.984C24.7728 491.698 25.6478 491.555 26.6166 491.555C27.5853 491.555 28.4603 491.698 29.2416 491.984C30.0228 492.271 30.6869 492.688 31.2338 493.234C31.7806 493.776 32.2025 494.438 32.4994 495.219C32.7963 496 32.9447 496.883 32.9447 497.867C32.9447 498.852 32.7963 499.734 32.4994 500.516C32.2025 501.297 31.7806 501.958 31.2338 502.5C30.6869 503.042 30.0228 503.456 29.2416 503.742C28.4603 504.029 27.5853 504.172 26.6166 504.172C25.6478 504.172 24.7728 504.029 23.9916 503.742C23.2103 503.456 22.5463 503.042 21.9994 502.5C21.4525 501.958 21.0306 501.297 20.7338 500.516C20.4369 499.734 20.2884 498.852 20.2884 497.867ZM22.765 497.859C22.765 498.526 22.8535 499.115 23.0306 499.625C23.2129 500.135 23.4707 500.565 23.8041 500.914C24.1374 501.258 24.541 501.521 25.015 501.703C25.489 501.88 26.0228 501.969 26.6166 501.969C27.2103 501.969 27.7442 501.88 28.2181 501.703C28.6921 501.521 29.0957 501.258 29.4291 500.914C29.7624 500.565 30.0176 500.135 30.1947 499.625C30.377 499.115 30.4681 498.526 30.4681 497.859C30.4681 497.198 30.377 496.615 30.1947 496.109C30.0176 495.599 29.7624 495.169 29.4291 494.82C29.0957 494.471 28.6921 494.208 28.2181 494.031C27.7442 493.849 27.2103 493.758 26.6166 493.758C26.0228 493.758 25.489 493.849 25.015 494.031C24.541 494.208 24.1374 494.471 23.8041 494.82C23.4707 495.169 23.2129 495.599 23.0306 496.109C22.8535 496.615 22.765 497.198 22.765 497.859ZM43.0137 496.516H41.4356V494.781H43.0137C43.0137 494.156 43.1023 493.602 43.2794 493.117C43.4565 492.628 43.7117 492.216 44.045 491.883C44.3835 491.544 44.7924 491.286 45.2716 491.109C45.7559 490.932 46.3002 490.844 46.9044 490.844C47.3262 490.844 47.7403 490.885 48.1466 490.969C48.5528 491.047 48.9122 491.161 49.2247 491.312L48.4044 493.258C48.2794 493.185 48.1023 493.117 47.8731 493.055C47.6492 492.992 47.4018 492.961 47.1309 492.961C46.5997 492.961 46.17 493.112 45.8419 493.414C45.519 493.711 45.3471 494.167 45.3262 494.781H48.2403V496.516H45.3262V504H43.0137V496.516ZM52.9116 507.766H50.5991V494.781H52.9116V495.648C53.1147 495.508 53.3543 495.375 53.6303 495.25C53.9064 495.125 54.2032 495.016 54.5209 494.922C54.8386 494.828 55.1668 494.755 55.5053 494.703C55.8439 494.646 56.1824 494.617 56.5209 494.617C57.3022 494.617 58.0183 494.732 58.6694 494.961C59.3256 495.19 59.8881 495.513 60.3569 495.93C60.8256 496.346 61.1902 496.846 61.4506 497.43C61.7163 498.008 61.8491 498.648 61.8491 499.352C61.8491 500.086 61.711 500.75 61.435 501.344C61.159 501.932 60.7761 502.438 60.2866 502.859C59.8022 503.276 59.2241 503.599 58.5522 503.828C57.8855 504.052 57.1616 504.164 56.3803 504.164C56.047 504.164 55.7163 504.143 55.3881 504.102C55.0652 504.06 54.7527 504.003 54.4506 503.93C54.1538 503.857 53.8725 503.771 53.6069 503.672C53.3465 503.568 53.1147 503.456 52.9116 503.336V507.766ZM52.9116 501.102C53.1459 501.289 53.3933 501.448 53.6538 501.578C53.9142 501.708 54.1798 501.815 54.4506 501.898C54.7215 501.982 54.9949 502.044 55.2709 502.086C55.547 502.122 55.8152 502.141 56.0756 502.141C56.6069 502.141 57.0782 502.07 57.4897 501.93C57.9064 501.784 58.2553 501.586 58.5366 501.336C58.823 501.086 59.0418 500.792 59.1928 500.453C59.3439 500.115 59.4194 499.747 59.4194 499.352C59.4194 498.982 59.3439 498.633 59.1928 498.305C59.047 497.977 58.8334 497.69 58.5522 497.445C58.2761 497.195 57.9402 497 57.5444 496.859C57.1538 496.714 56.7136 496.641 56.2241 496.641C55.9116 496.641 55.5991 496.672 55.2866 496.734C54.9741 496.792 54.672 496.875 54.3803 496.984C54.0939 497.094 53.823 497.227 53.5678 497.383C53.3178 497.539 53.0991 497.714 52.9116 497.906V501.102ZM65.0438 501.172C65.6688 501.547 66.3563 501.823 67.1063 502C67.8563 502.177 68.6245 502.266 69.4109 502.266C69.9422 502.266 70.3849 502.229 70.7391 502.156C71.0932 502.083 71.3771 501.99 71.5906 501.875C71.8042 501.76 71.9552 501.63 72.0438 501.484C72.1323 501.339 72.1766 501.19 72.1766 501.039C72.1766 500.82 72.0802 500.633 71.8875 500.477C71.7 500.32 71.3875 500.242 70.95 500.242C70.7469 500.242 70.5281 500.255 70.2938 500.281C70.0594 500.307 69.812 500.336 69.5516 500.367C69.2964 500.393 69.0281 500.419 68.7469 500.445C68.4708 500.471 68.1896 500.484 67.9031 500.484C67.2781 500.484 66.7443 500.417 66.3016 500.281C65.8641 500.146 65.5073 499.961 65.2313 499.727C64.9552 499.492 64.7547 499.216 64.6297 498.898C64.5047 498.576 64.4422 498.229 64.4422 497.859C64.4422 497.391 64.5516 496.958 64.7703 496.562C64.9891 496.167 65.3016 495.826 65.7078 495.539C66.1141 495.247 66.6036 495.021 67.1766 494.859C67.7547 494.698 68.3979 494.617 69.1063 494.617C69.476 494.617 69.8615 494.641 70.2625 494.688C70.6688 494.729 71.0672 494.786 71.4578 494.859C71.8484 494.932 72.2234 495.018 72.5828 495.117C72.9422 495.211 73.2599 495.312 73.5359 495.422L72.8094 497.219C72.2208 497 71.6323 496.828 71.0438 496.703C70.4604 496.573 69.8589 496.508 69.2391 496.508C68.8068 496.508 68.4396 496.542 68.1375 496.609C67.8406 496.672 67.5984 496.758 67.4109 496.867C67.2234 496.971 67.0854 497.094 66.9969 497.234C66.9135 497.37 66.8719 497.513 66.8719 497.664C66.8719 497.773 66.8927 497.872 66.9344 497.961C66.9813 498.049 67.0542 498.128 67.1531 498.195C67.2573 498.258 67.3901 498.307 67.5516 498.344C67.7182 498.375 67.9214 498.391 68.1609 498.391C68.3797 498.391 68.6115 498.378 68.8563 498.352C69.101 498.326 69.3563 498.299 69.6219 498.273C69.8875 498.242 70.1609 498.214 70.4422 498.188C70.7286 498.161 71.0203 498.148 71.3172 498.148C71.8693 498.148 72.351 498.214 72.7625 498.344C73.1792 498.474 73.5229 498.656 73.7938 498.891C74.0646 499.125 74.2677 499.401 74.4031 499.719C74.5385 500.036 74.6063 500.383 74.6063 500.758C74.6063 501.242 74.4943 501.693 74.2703 502.109C74.0464 502.526 73.713 502.888 73.2703 503.195C72.8276 503.497 72.2755 503.734 71.6141 503.906C70.9578 504.078 70.1974 504.164 69.3328 504.164C68.8016 504.164 68.2885 504.13 67.7938 504.062C67.299 504 66.8276 503.914 66.3797 503.805C65.9318 503.69 65.5099 503.557 65.1141 503.406C64.7234 503.255 64.3667 503.094 64.0438 502.922L65.0438 501.172Z" fill="white"/>
<path d="M6.27344 533.828H9.04688V526.227C8.68229 526.31 8.33073 526.419 7.99219 526.555C7.65885 526.69 7.35417 526.854 7.07812 527.047L5.85938 525.305C6.30729 525.023 6.76302 524.786 7.22656 524.594C7.69531 524.396 8.16667 524.24 8.64062 524.125C9.11979 524.005 9.59896 523.919 10.0781 523.867C10.5625 523.815 11.0443 523.789 11.5234 523.789L11.5156 523.805H11.5234V533.828H14.1719V536H6.27344V533.828ZM18.2259 533.18C18.4499 533.31 18.6999 533.424 18.9759 533.523C19.252 533.622 19.5358 533.706 19.8275 533.773C20.1244 533.836 20.4213 533.885 20.7181 533.922C21.0202 533.953 21.3067 533.969 21.5775 533.969C22.1817 533.969 22.7259 533.891 23.2103 533.734C23.6999 533.578 24.1218 533.357 24.4759 533.07C24.8301 532.784 25.1114 532.443 25.3197 532.047C25.5332 531.646 25.666 531.203 25.7181 530.719C25.4473 530.932 25.1478 531.117 24.8197 531.273C24.4916 531.43 24.1426 531.56 23.7728 531.664C23.4082 531.763 23.0306 531.839 22.64 531.891C22.2546 531.938 21.8666 531.961 21.4759 531.961C20.7155 531.961 20.0228 531.87 19.3978 531.688C18.778 531.505 18.2468 531.242 17.8041 530.898C17.3614 530.555 17.0176 530.138 16.7728 529.648C16.5332 529.154 16.4134 528.594 16.4134 527.969C16.4134 527.354 16.5332 526.784 16.7728 526.258C17.0176 525.732 17.377 525.276 17.8509 524.891C18.3249 524.5 18.9134 524.195 19.6166 523.977C20.3197 523.753 21.1348 523.641 22.0619 523.641C22.9629 523.641 23.7858 523.755 24.5306 523.984C25.2754 524.214 25.9134 524.57 26.4447 525.055C26.9759 525.539 27.3874 526.156 27.6791 526.906C27.9759 527.651 28.1244 528.542 28.1244 529.578C28.1244 530.688 27.9577 531.656 27.6244 532.484C27.2963 533.307 26.8431 533.992 26.265 534.539C25.6921 535.086 25.015 535.495 24.2338 535.766C23.4525 536.036 22.6088 536.172 21.7025 536.172C21.3223 536.172 20.9265 536.148 20.515 536.102C20.1088 536.055 19.7051 535.984 19.3041 535.891C18.903 535.797 18.515 535.68 18.14 535.539C17.7702 535.398 17.4317 535.237 17.1244 535.055L18.2259 533.18ZM18.89 527.93C18.89 528.185 18.9447 528.424 19.0541 528.648C19.1634 528.872 19.3327 529.068 19.5619 529.234C19.7963 529.396 20.0957 529.526 20.4603 529.625C20.8249 529.719 21.265 529.766 21.7806 529.766C22.2129 529.766 22.6218 529.732 23.0072 529.664C23.3926 529.596 23.7494 529.503 24.0775 529.383C24.4056 529.263 24.7025 529.122 24.9681 528.961C25.239 528.799 25.4707 528.622 25.6634 528.43C25.5384 527.576 25.1634 526.932 24.5384 526.5C23.9134 526.062 23.0931 525.844 22.0775 525.844C21.5671 525.844 21.114 525.896 20.7181 526C20.3223 526.104 19.989 526.25 19.7181 526.438C19.4473 526.62 19.2416 526.839 19.1009 527.094C18.9603 527.349 18.89 527.628 18.89 527.93ZM31.9831 533.875L36.2878 530.922C36.9336 530.479 37.4623 530.094 37.8738 529.766C38.2852 529.438 38.6081 529.146 38.8425 528.891C39.0769 528.63 39.2383 528.396 39.3269 528.188C39.4154 527.979 39.4597 527.771 39.4597 527.562C39.4597 527.323 39.4102 527.099 39.3113 526.891C39.2123 526.682 39.056 526.5 38.8425 526.344C38.6342 526.188 38.3633 526.065 38.03 525.977C37.7019 525.888 37.3086 525.844 36.8503 525.844C36.1836 525.844 35.5196 525.938 34.8581 526.125C34.1967 526.312 33.5222 526.612 32.8347 527.023L31.6941 525.148C32.4597 524.674 33.2878 524.305 34.1784 524.039C35.0743 523.773 36.0144 523.641 36.9988 523.641C37.8581 523.641 38.6029 523.745 39.2331 523.953C39.8685 524.156 40.392 524.435 40.8034 524.789C41.2201 525.143 41.53 525.555 41.7331 526.023C41.9363 526.492 42.0378 526.99 42.0378 527.516C42.0378 527.922 41.9701 528.31 41.8347 528.68C41.6993 529.049 41.4623 529.432 41.1238 529.828C40.7852 530.224 40.3269 530.651 39.7488 531.109C39.1758 531.562 38.4519 532.078 37.5769 532.656L35.7956 533.828H42.4831V536H31.9831V533.875ZM45.2716 529.867C45.2716 528.883 45.42 528 45.7169 527.219C46.0137 526.438 46.4356 525.776 46.9825 525.234C47.5294 524.688 48.1934 524.271 48.9747 523.984C49.7559 523.698 50.6309 523.555 51.5997 523.555C52.5684 523.555 53.4434 523.698 54.2247 523.984C55.0059 524.271 55.67 524.688 56.2169 525.234C56.7637 525.776 57.1856 526.438 57.4825 527.219C57.7794 528 57.9278 528.883 57.9278 529.867C57.9278 530.852 57.7794 531.734 57.4825 532.516C57.1856 533.297 56.7637 533.958 56.2169 534.5C55.67 535.042 55.0059 535.456 54.2247 535.742C53.4434 536.029 52.5684 536.172 51.5997 536.172C50.6309 536.172 49.7559 536.029 48.9747 535.742C48.1934 535.456 47.5294 535.042 46.9825 534.5C46.4356 533.958 46.0137 533.297 45.7169 532.516C45.42 531.734 45.2716 530.852 45.2716 529.867ZM47.7481 529.859C47.7481 530.526 47.8367 531.115 48.0137 531.625C48.196 532.135 48.4539 532.565 48.7872 532.914C49.1205 533.258 49.5242 533.521 49.9981 533.703C50.4721 533.88 51.0059 533.969 51.5997 533.969C52.1934 533.969 52.7273 533.88 53.2012 533.703C53.6752 533.521 54.0789 533.258 54.4122 532.914C54.7455 532.565 55.0007 532.135 55.1778 531.625C55.3601 531.115 55.4512 530.526 55.4512 529.859C55.4512 529.198 55.3601 528.615 55.1778 528.109C55.0007 527.599 54.7455 527.169 54.4122 526.82C54.0789 526.471 53.6752 526.208 53.2012 526.031C52.7273 525.849 52.1934 525.758 51.5997 525.758C51.0059 525.758 50.4721 525.849 49.9981 526.031C49.5242 526.208 49.1205 526.471 48.7872 526.82C48.4539 527.169 48.196 527.599 48.0137 528.109C47.8367 528.615 47.7481 529.198 47.7481 529.859ZM69.3797 531.391L65.5672 526.773H68.5203L70.8328 529.586L73.0281 526.773H75.9109L72.325 531.383L76.1375 536H73.1844L70.8016 533.117L68.5906 536H65.7078L69.3797 531.391ZM84.0347 533.828H86.8081V526.227C86.4435 526.31 86.092 526.419 85.7534 526.555C85.4201 526.69 85.1154 526.854 84.8394 527.047L83.6206 525.305C84.0685 525.023 84.5243 524.786 84.9878 524.594C85.4566 524.396 85.9279 524.24 86.4019 524.125C86.881 524.005 87.3602 523.919 87.8394 523.867C88.3238 523.815 88.8055 523.789 89.2847 523.789L89.2769 523.805H89.2847V533.828H91.9331V536H84.0347V533.828ZM93.7528 529.867C93.7528 528.883 93.9013 528 94.1981 527.219C94.495 526.438 94.9169 525.776 95.4638 525.234C96.0106 524.688 96.6747 524.271 97.4559 523.984C98.2372 523.698 99.1122 523.555 100.081 523.555C101.05 523.555 101.925 523.698 102.706 523.984C103.487 524.271 104.151 524.688 104.698 525.234C105.245 525.776 105.667 526.438 105.964 527.219C106.261 528 106.409 528.883 106.409 529.867C106.409 530.852 106.261 531.734 105.964 532.516C105.667 533.297 105.245 533.958 104.698 534.5C104.151 535.042 103.487 535.456 102.706 535.742C101.925 536.029 101.05 536.172 100.081 536.172C99.1122 536.172 98.2372 536.029 97.4559 535.742C96.6747 535.456 96.0106 535.042 95.4638 534.5C94.9169 533.958 94.495 533.297 94.1981 532.516C93.9013 531.734 93.7528 530.852 93.7528 529.867ZM96.2294 529.859C96.2294 530.526 96.3179 531.115 96.495 531.625C96.6773 532.135 96.9351 532.565 97.2684 532.914C97.6018 533.258 98.0054 533.521 98.4794 533.703C98.9533 533.88 99.4872 533.969 100.081 533.969C100.675 533.969 101.209 533.88 101.683 533.703C102.156 533.521 102.56 533.258 102.893 532.914C103.227 532.565 103.482 532.135 103.659 531.625C103.841 531.115 103.933 530.526 103.933 529.859C103.933 529.198 103.841 528.615 103.659 528.109C103.482 527.599 103.227 527.169 102.893 526.82C102.56 526.471 102.156 526.208 101.683 526.031C101.209 525.849 100.675 525.758 100.081 525.758C99.4872 525.758 98.9533 525.849 98.4794 526.031C98.0054 526.208 97.6018 526.471 97.2684 526.82C96.9351 527.169 96.6773 527.599 96.495 528.109C96.3179 528.615 96.2294 529.198 96.2294 529.859ZM109.299 532.281C109.299 531.917 109.349 531.578 109.448 531.266C109.546 530.953 109.682 530.669 109.854 530.414C110.026 530.154 110.224 529.924 110.448 529.727C110.677 529.523 110.921 529.346 111.182 529.195C110.823 528.841 110.562 528.49 110.401 528.141C110.239 527.786 110.158 527.448 110.158 527.125C110.158 526.609 110.278 526.138 110.518 525.711C110.763 525.284 111.112 524.917 111.565 524.609C112.018 524.297 112.567 524.057 113.213 523.891C113.859 523.719 114.586 523.633 115.393 523.633C116.2 523.633 116.927 523.719 117.573 523.891C118.218 524.057 118.768 524.297 119.221 524.609C119.674 524.917 120.02 525.284 120.26 525.711C120.505 526.138 120.627 526.609 120.627 527.125C120.627 527.448 120.546 527.786 120.385 528.141C120.224 528.49 119.963 528.841 119.604 529.195C119.859 529.346 120.101 529.523 120.33 529.727C120.559 529.924 120.76 530.154 120.932 530.414C121.104 530.669 121.239 530.953 121.338 531.266C121.437 531.578 121.487 531.917 121.487 532.281C121.487 532.891 121.343 533.438 121.057 533.922C120.776 534.401 120.369 534.807 119.838 535.141C119.312 535.469 118.671 535.721 117.916 535.898C117.166 536.076 116.325 536.164 115.393 536.164C114.461 536.164 113.617 536.076 112.862 535.898C112.112 535.721 111.471 535.469 110.94 535.141C110.414 534.807 110.007 534.401 109.721 533.922C109.44 533.438 109.299 532.891 109.299 532.281ZM112.635 527.234C112.635 527.427 112.682 527.609 112.776 527.781C112.875 527.948 113.031 528.096 113.244 528.227C113.463 528.352 113.747 528.451 114.096 528.523C114.45 528.596 114.882 528.633 115.393 528.633C115.903 528.633 116.333 528.596 116.682 528.523C117.036 528.451 117.32 528.352 117.533 528.227C117.752 528.096 117.908 527.948 118.002 527.781C118.101 527.609 118.151 527.427 118.151 527.234C118.151 527.042 118.101 526.862 118.002 526.695C117.908 526.523 117.752 526.375 117.533 526.25C117.32 526.12 117.036 526.018 116.682 525.945C116.333 525.872 115.903 525.836 115.393 525.836C114.882 525.836 114.45 525.872 114.096 525.945C113.747 526.018 113.463 526.12 113.244 526.25C113.031 526.375 112.875 526.523 112.776 526.695C112.682 526.862 112.635 527.042 112.635 527.234ZM111.776 532.164C111.776 532.43 111.851 532.674 112.002 532.898C112.158 533.117 112.388 533.305 112.69 533.461C112.992 533.617 113.369 533.74 113.823 533.828C114.276 533.917 114.799 533.961 115.393 533.961C115.987 533.961 116.51 533.917 116.963 533.828C117.416 533.74 117.794 533.617 118.096 533.461C118.398 533.305 118.625 533.117 118.776 532.898C118.932 532.674 119.01 532.43 119.01 532.164C119.01 531.898 118.934 531.656 118.783 531.438C118.638 531.214 118.414 531.023 118.112 530.867C117.815 530.711 117.44 530.589 116.987 530.5C116.533 530.411 116.002 530.367 115.393 530.367C114.783 530.367 114.252 530.411 113.799 530.5C113.346 530.589 112.968 530.711 112.666 530.867C112.369 531.023 112.145 531.214 111.994 531.438C111.849 531.656 111.776 531.898 111.776 532.164ZM124.361 529.867C124.361 528.883 124.509 528 124.806 527.219C125.103 526.438 125.525 525.776 126.072 525.234C126.619 524.688 127.283 524.271 128.064 523.984C128.845 523.698 129.72 523.555 130.689 523.555C131.658 523.555 132.533 523.698 133.314 523.984C134.095 524.271 134.759 524.688 135.306 525.234C135.853 525.776 136.275 526.438 136.572 527.219C136.869 528 137.017 528.883 137.017 529.867C137.017 530.852 136.869 531.734 136.572 532.516C136.275 533.297 135.853 533.958 135.306 534.5C134.759 535.042 134.095 535.456 133.314 535.742C132.533 536.029 131.658 536.172 130.689 536.172C129.72 536.172 128.845 536.029 128.064 535.742C127.283 535.456 126.619 535.042 126.072 534.5C125.525 533.958 125.103 533.297 124.806 532.516C124.509 531.734 124.361 530.852 124.361 529.867ZM126.838 529.859C126.838 530.526 126.926 531.115 127.103 531.625C127.285 532.135 127.543 532.565 127.877 532.914C128.21 533.258 128.614 533.521 129.088 533.703C129.561 533.88 130.095 533.969 130.689 533.969C131.283 533.969 131.817 533.88 132.291 533.703C132.765 533.521 133.168 533.258 133.502 532.914C133.835 532.565 134.09 532.135 134.267 531.625C134.449 531.115 134.541 530.526 134.541 529.859C134.541 529.198 134.449 528.615 134.267 528.109C134.09 527.599 133.835 527.169 133.502 526.82C133.168 526.471 132.765 526.208 132.291 526.031C131.817 525.849 131.283 525.758 130.689 525.758C130.095 525.758 129.561 525.849 129.088 526.031C128.614 526.208 128.21 526.471 127.877 526.82C127.543 527.169 127.285 527.599 127.103 528.109C126.926 528.615 126.838 529.198 126.838 529.859Z" fill="white"/>
<path d="M525.008 529.867C525.008 528.883 525.156 528 525.453 527.219C525.75 526.438 526.172 525.776 526.719 525.234C527.266 524.688 527.93 524.271 528.711 523.984C529.492 523.698 530.367 523.555 531.336 523.555C532.305 523.555 533.18 523.698 533.961 523.984C534.742 524.271 535.406 524.688 535.953 525.234C536.5 525.776 536.922 526.438 537.219 527.219C537.516 528 537.664 528.883 537.664 529.867C537.664 530.852 537.516 531.734 537.219 532.516C536.922 533.297 536.5 533.958 535.953 534.5C535.406 535.042 534.742 535.456 533.961 535.742C533.18 536.029 532.305 536.172 531.336 536.172C530.367 536.172 529.492 536.029 528.711 535.742C527.93 535.456 527.266 535.042 526.719 534.5C526.172 533.958 525.75 533.297 525.453 532.516C525.156 531.734 525.008 530.852 525.008 529.867ZM527.484 529.859C527.484 530.526 527.573 531.115 527.75 531.625C527.932 532.135 528.19 532.565 528.523 532.914C528.857 533.258 529.26 533.521 529.734 533.703C530.208 533.88 530.742 533.969 531.336 533.969C531.93 533.969 532.464 533.88 532.938 533.703C533.411 533.521 533.815 533.258 534.148 532.914C534.482 532.565 534.737 532.135 534.914 531.625C535.096 531.115 535.188 530.526 535.188 529.859C535.188 529.198 535.096 528.615 534.914 528.109C534.737 527.599 534.482 527.169 534.148 526.82C533.815 526.471 533.411 526.208 532.938 526.031C532.464 525.849 531.93 525.758 531.336 525.758C530.742 525.758 530.208 525.849 529.734 526.031C529.26 526.208 528.857 526.471 528.523 526.82C528.19 527.169 527.932 527.599 527.75 528.109C527.573 528.615 527.484 529.198 527.484 529.859ZM540.335 529.867C540.335 528.883 540.484 528 540.781 527.219C541.078 526.438 541.499 525.776 542.046 525.234C542.593 524.688 543.257 524.271 544.038 523.984C544.82 523.698 545.695 523.555 546.663 523.555C547.632 523.555 548.507 523.698 549.288 523.984C550.07 524.271 550.734 524.688 551.281 525.234C551.828 525.776 552.249 526.438 552.546 527.219C552.843 528 552.992 528.883 552.992 529.867C552.992 530.852 552.843 531.734 552.546 532.516C552.249 533.297 551.828 533.958 551.281 534.5C550.734 535.042 550.07 535.456 549.288 535.742C548.507 536.029 547.632 536.172 546.663 536.172C545.695 536.172 544.82 536.029 544.038 535.742C543.257 535.456 542.593 535.042 542.046 534.5C541.499 533.958 541.078 533.297 540.781 532.516C540.484 531.734 540.335 530.852 540.335 529.867ZM542.812 529.859C542.812 530.526 542.9 531.115 543.078 531.625C543.26 532.135 543.518 532.565 543.851 532.914C544.184 533.258 544.588 533.521 545.062 533.703C545.536 533.88 546.07 533.969 546.663 533.969C547.257 533.969 547.791 533.88 548.265 533.703C548.739 533.521 549.143 533.258 549.476 532.914C549.809 532.565 550.064 532.135 550.242 531.625C550.424 531.115 550.515 530.526 550.515 529.859C550.515 529.198 550.424 528.615 550.242 528.109C550.064 527.599 549.809 527.169 549.476 526.82C549.143 526.471 548.739 526.208 548.265 526.031C547.791 525.849 547.257 525.758 546.663 525.758C546.07 525.758 545.536 525.849 545.062 526.031C544.588 526.208 544.184 526.471 543.851 526.82C543.518 527.169 543.26 527.599 543.078 528.109C542.9 528.615 542.812 529.198 542.812 529.859ZM556.147 534.648C556.147 534.44 556.189 534.245 556.272 534.062C556.361 533.875 556.486 533.714 556.647 533.578C556.809 533.438 557.004 533.328 557.233 533.25C557.462 533.172 557.72 533.133 558.007 533.133C558.293 533.133 558.551 533.172 558.78 533.25C559.009 533.328 559.202 533.438 559.358 533.578C559.52 533.714 559.642 533.875 559.725 534.062C559.814 534.245 559.858 534.44 559.858 534.648C559.858 534.857 559.814 535.055 559.725 535.242C559.642 535.424 559.52 535.583 559.358 535.719C559.202 535.854 559.009 535.961 558.78 536.039C558.551 536.122 558.293 536.164 558.007 536.164C557.72 536.164 557.462 536.122 557.233 536.039C557.004 535.961 556.809 535.854 556.647 535.719C556.486 535.583 556.361 535.424 556.272 535.242C556.189 535.055 556.147 534.857 556.147 534.648ZM556.147 528.125C556.147 527.917 556.189 527.721 556.272 527.539C556.361 527.352 556.486 527.19 556.647 527.055C556.809 526.914 557.004 526.805 557.233 526.727C557.462 526.648 557.72 526.609 558.007 526.609C558.293 526.609 558.551 526.648 558.78 526.727C559.009 526.805 559.202 526.914 559.358 527.055C559.52 527.19 559.642 527.352 559.725 527.539C559.814 527.721 559.858 527.917 559.858 528.125C559.858 528.333 559.814 528.531 559.725 528.719C559.642 528.901 559.52 529.06 559.358 529.195C559.202 529.331 559.009 529.44 558.78 529.523C558.551 529.602 558.293 529.641 558.007 529.641C557.72 529.641 557.462 529.602 557.233 529.523C557.004 529.44 556.809 529.331 556.647 529.195C556.486 529.06 556.361 528.901 556.272 528.719C556.189 528.531 556.147 528.333 556.147 528.125ZM563.006 529.867C563.006 528.883 563.154 528 563.451 527.219C563.748 526.438 564.17 525.776 564.717 525.234C565.264 524.688 565.928 524.271 566.709 523.984C567.49 523.698 568.365 523.555 569.334 523.555C570.303 523.555 571.178 523.698 571.959 523.984C572.74 524.271 573.404 524.688 573.951 525.234C574.498 525.776 574.92 526.438 575.217 527.219C575.514 528 575.662 528.883 575.662 529.867C575.662 530.852 575.514 531.734 575.217 532.516C574.92 533.297 574.498 533.958 573.951 534.5C573.404 535.042 572.74 535.456 571.959 535.742C571.178 536.029 570.303 536.172 569.334 536.172C568.365 536.172 567.49 536.029 566.709 535.742C565.928 535.456 565.264 535.042 564.717 534.5C564.17 533.958 563.748 533.297 563.451 532.516C563.154 531.734 563.006 530.852 563.006 529.867ZM565.482 529.859C565.482 530.526 565.571 531.115 565.748 531.625C565.93 532.135 566.188 532.565 566.522 532.914C566.855 533.258 567.259 533.521 567.732 533.703C568.206 533.88 568.74 533.969 569.334 533.969C569.928 533.969 570.462 533.88 570.936 533.703C571.41 533.521 571.813 533.258 572.147 532.914C572.48 532.565 572.735 532.135 572.912 531.625C573.094 531.115 573.186 530.526 573.186 529.859C573.186 529.198 573.094 528.615 572.912 528.109C572.735 527.599 572.48 527.169 572.147 526.82C571.813 526.471 571.41 526.208 570.936 526.031C570.462 525.849 569.928 525.758 569.334 525.758C568.74 525.758 568.206 525.849 567.732 526.031C567.259 526.208 566.855 526.471 566.522 526.82C566.188 527.169 565.93 527.599 565.748 528.109C565.571 528.615 565.482 529.198 565.482 529.859ZM578.333 529.867C578.333 528.883 578.482 528 578.779 527.219C579.076 526.438 579.498 525.776 580.044 525.234C580.591 524.688 581.255 524.271 582.037 523.984C582.818 523.698 583.693 523.555 584.662 523.555C585.63 523.555 586.505 523.698 587.287 523.984C588.068 524.271 588.732 524.688 589.279 525.234C589.826 525.776 590.248 526.438 590.544 527.219C590.841 528 590.99 528.883 590.99 529.867C590.99 530.852 590.841 531.734 590.544 532.516C590.248 533.297 589.826 533.958 589.279 534.5C588.732 535.042 588.068 535.456 587.287 535.742C586.505 536.029 585.63 536.172 584.662 536.172C583.693 536.172 582.818 536.029 582.037 535.742C581.255 535.456 580.591 535.042 580.044 534.5C579.498 533.958 579.076 533.297 578.779 532.516C578.482 531.734 578.333 530.852 578.333 529.867ZM580.81 529.859C580.81 530.526 580.899 531.115 581.076 531.625C581.258 532.135 581.516 532.565 581.849 532.914C582.182 533.258 582.586 533.521 583.06 533.703C583.534 533.88 584.068 533.969 584.662 533.969C585.255 533.969 585.789 533.88 586.263 533.703C586.737 533.521 587.141 533.258 587.474 532.914C587.807 532.565 588.063 532.135 588.24 531.625C588.422 531.115 588.513 530.526 588.513 529.859C588.513 529.198 588.422 528.615 588.24 528.109C588.063 527.599 587.807 527.169 587.474 526.82C587.141 526.471 586.737 526.208 586.263 526.031C585.789 525.849 585.255 525.758 584.662 525.758C584.068 525.758 583.534 525.849 583.06 526.031C582.586 526.208 582.182 526.471 581.849 526.82C581.516 527.169 581.258 527.599 581.076 528.109C580.899 528.615 580.81 529.198 580.81 529.859ZM594.145 534.648C594.145 534.44 594.187 534.245 594.27 534.062C594.359 533.875 594.484 533.714 594.645 533.578C594.807 533.438 595.002 533.328 595.231 533.25C595.46 533.172 595.718 533.133 596.005 533.133C596.291 533.133 596.549 533.172 596.778 533.25C597.007 533.328 597.2 533.438 597.356 533.578C597.518 533.714 597.64 533.875 597.723 534.062C597.812 534.245 597.856 534.44 597.856 534.648C597.856 534.857 597.812 535.055 597.723 535.242C597.64 535.424 597.518 535.583 597.356 535.719C597.2 535.854 597.007 535.961 596.778 536.039C596.549 536.122 596.291 536.164 596.005 536.164C595.718 536.164 595.46 536.122 595.231 536.039C595.002 535.961 594.807 535.854 594.645 535.719C594.484 535.583 594.359 535.424 594.27 535.242C594.187 535.055 594.145 534.857 594.145 534.648ZM594.145 528.125C594.145 527.917 594.187 527.721 594.27 527.539C594.359 527.352 594.484 527.19 594.645 527.055C594.807 526.914 595.002 526.805 595.231 526.727C595.46 526.648 595.718 526.609 596.005 526.609C596.291 526.609 596.549 526.648 596.778 526.727C597.007 526.805 597.2 526.914 597.356 527.055C597.518 527.19 597.64 527.352 597.723 527.539C597.812 527.721 597.856 527.917 597.856 528.125C597.856 528.333 597.812 528.531 597.723 528.719C597.64 528.901 597.518 529.06 597.356 529.195C597.2 529.331 597.007 529.44 596.778 529.523C596.549 529.602 596.291 529.641 596.005 529.641C595.718 529.641 595.46 529.602 595.231 529.523C595.002 529.44 594.807 529.331 594.645 529.195C594.484 529.06 594.359 528.901 594.27 528.719C594.187 528.531 594.145 528.333 594.145 528.125ZM601.004 529.867C601.004 528.883 601.152 528 601.449 527.219C601.746 526.438 602.168 525.776 602.715 525.234C603.262 524.688 603.926 524.271 604.707 523.984C605.488 523.698 606.363 523.555 607.332 523.555C608.301 523.555 609.176 523.698 609.957 523.984C610.738 524.271 611.402 524.688 611.949 525.234C612.496 525.776 612.918 526.438 613.215 527.219C613.512 528 613.66 528.883 613.66 529.867C613.66 530.852 613.512 531.734 613.215 532.516C612.918 533.297 612.496 533.958 611.949 534.5C611.402 535.042 610.738 535.456 609.957 535.742C609.176 536.029 608.301 536.172 607.332 536.172C606.363 536.172 605.488 536.029 604.707 535.742C603.926 535.456 603.262 535.042 602.715 534.5C602.168 533.958 601.746 533.297 601.449 532.516C601.152 531.734 601.004 530.852 601.004 529.867ZM603.481 529.859C603.481 530.526 603.569 531.115 603.746 531.625C603.929 532.135 604.186 532.565 604.52 532.914C604.853 533.258 605.257 533.521 605.731 533.703C606.205 533.88 606.738 533.969 607.332 533.969C607.926 533.969 608.46 533.88 608.934 533.703C609.408 533.521 609.811 533.258 610.145 532.914C610.478 532.565 610.733 532.135 610.91 531.625C611.093 531.115 611.184 530.526 611.184 529.859C611.184 529.198 611.093 528.615 610.91 528.109C610.733 527.599 610.478 527.169 610.145 526.82C609.811 526.471 609.408 526.208 608.934 526.031C608.46 525.849 607.926 525.758 607.332 525.758C606.738 525.758 606.205 525.849 605.731 526.031C605.257 526.208 604.853 526.471 604.52 526.82C604.186 527.169 603.929 527.599 603.746 528.109C603.569 528.615 603.481 529.198 603.481 529.859ZM616.332 529.867C616.332 528.883 616.48 528 616.777 527.219C617.074 526.438 617.496 525.776 618.043 525.234C618.589 524.688 619.253 524.271 620.035 523.984C620.816 523.698 621.691 523.555 622.66 523.555C623.628 523.555 624.503 523.698 625.285 523.984C626.066 524.271 626.73 524.688 627.277 525.234C627.824 525.776 628.246 526.438 628.543 527.219C628.839 528 628.988 528.883 628.988 529.867C628.988 530.852 628.839 531.734 628.543 532.516C628.246 533.297 627.824 533.958 627.277 534.5C626.73 535.042 626.066 535.456 625.285 535.742C624.503 536.029 623.628 536.172 622.66 536.172C621.691 536.172 620.816 536.029 620.035 535.742C619.253 535.456 618.589 535.042 618.043 534.5C617.496 533.958 617.074 533.297 616.777 532.516C616.48 531.734 616.332 530.852 616.332 529.867ZM618.808 529.859C618.808 530.526 618.897 531.115 619.074 531.625C619.256 532.135 619.514 532.565 619.847 532.914C620.181 533.258 620.584 533.521 621.058 533.703C621.532 533.88 622.066 533.969 622.66 533.969C623.253 533.969 623.787 533.88 624.261 533.703C624.735 533.521 625.139 533.258 625.472 532.914C625.806 532.565 626.061 532.135 626.238 531.625C626.42 531.115 626.511 530.526 626.511 529.859C626.511 529.198 626.42 528.615 626.238 528.109C626.061 527.599 625.806 527.169 625.472 526.82C625.139 526.471 624.735 526.208 624.261 526.031C623.787 525.849 623.253 525.758 622.66 525.758C622.066 525.758 621.532 525.849 621.058 526.031C620.584 526.208 620.181 526.471 619.847 526.82C619.514 527.169 619.256 527.599 619.074 528.109C618.897 528.615 618.808 529.198 618.808 529.859Z" fill="white"/>
</svg>
