<svg width="12" height="949" viewBox="0 0 12 949" fill="none" xmlns="http://www.w3.org/2000/svg">
<rect width="12" height="9" rx="2" fill="#D9D9D9"/>
<rect y="24" width="12" height="9" rx="2" fill="#D9D9D9"/>
<rect y="48" width="12" height="9" rx="2" fill="#D9D9D9"/>
<rect y="72" width="12" height="9" rx="2" fill="#D9D9D9"/>
<rect y="96" width="12" height="9" rx="2" fill="#D9D9D9"/>
<rect y="120" width="12" height="9" rx="2" fill="#D9D9D9"/>
<rect y="144" width="12" height="9" rx="2" fill="#D9D9D9"/>
<rect y="168" width="12" height="9" rx="2" fill="#D9D9D9"/>
<rect y="192" width="12" height="9" rx="2" fill="#D9D9D9"/>
<rect y="216" width="12" height="9" rx="2" fill="#D9D9D9"/>
<rect y="240" width="12" height="9" rx="2" fill="#D9D9D9"/>
<rect y="264" width="12" height="9" rx="2" fill="#D9D9D9"/>
<rect y="288" width="12" height="9" rx="2" fill="#D9D9D9"/>
<rect y="312" width="12" height="9" rx="2" fill="#D9D9D9"/>
<rect y="336" width="12" height="9" rx="2" fill="#D9D9D9"/>
<rect y="360" width="12" height="9" rx="2" fill="#D9D9D9"/>
<rect y="384" width="12" height="9" rx="2" fill="#D9D9D9"/>
<rect y="408" width="12" height="9" rx="2" fill="#D9D9D9"/>
<rect y="432" width="12" height="9" rx="2" fill="#D9D9D9"/>
<rect y="456" width="12" height="9" rx="2" fill="#D9D9D9"/>
<rect y="480" width="12" height="9" rx="2" fill="#D9D9D9"/>
<rect y="504" width="12" height="9" rx="2" fill="#D9D9D9"/>
<rect y="528" width="12" height="9" rx="2" fill="#D9D9D9"/>
<rect y="552" width="12" height="9" rx="2" fill="#D9D9D9"/>
<rect y="576" width="12" height="9" rx="2" fill="#D9D9D9"/>
<rect y="600" width="12" height="9" rx="2" fill="#D9D9D9"/>
<rect y="624" width="12" height="9" rx="2" fill="#D9D9D9"/>
<rect y="648" width="12" height="9" rx="2" fill="#D9D9D9"/>
<rect y="672" width="12" height="9" rx="2" fill="#D9D9D9"/>
<rect y="696" width="12" height="9" rx="2" fill="#D9D9D9"/>
<rect y="720" width="12" height="9" rx="2" fill="#D9D9D9"/>
<rect y="744" width="12" height="9" rx="2" fill="#D9D9D9"/>
<rect y="768" width="12" height="9" rx="2" fill="#D9D9D9"/>
<rect y="792" width="12" height="9" rx="2" fill="#D9D9D9"/>
<rect y="816" width="12" height="9" rx="2" fill="#D9D9D9"/>
<rect y="840" width="12" height="9" rx="2" fill="#D9D9D9"/>
<rect y="864" width="12" height="9" rx="2" fill="#D9D9D9"/>
<rect y="888" width="12" height="9" rx="2" fill="#D9D9D9"/>
<rect y="912" width="12" height="9" rx="2" fill="#D9D9D9"/>
<rect y="936" width="12" height="9" rx="2" fill="#D9D9D9"/>
</svg>
