<svg width="68" height="68" viewBox="0 0 68 68" fill="none" xmlns="http://www.w3.org/2000/svg">
<circle cx="34" cy="34" r="33.5" stroke="white"/>
<g clip-path="url(#clip0_175_270)">
<path d="M41.8936 22.5956C41.7757 22.5918 41.6594 22.5903 41.544 22.5909L41.0465 22.5933V22.6072C39.4544 22.7048 38.0761 23.2402 36.9361 24.2268C35.687 25.3078 34.7604 26.8986 34.1274 28.9511L33.8149 29.9646L34.7956 29.5608C35.3983 29.3126 35.9684 29.1945 36.5098 29.1945C37.0762 29.1945 37.3718 29.3506 37.5314 29.5528C37.7031 29.7704 37.8149 30.1621 37.744 30.836L37.7439 30.836L37.7431 30.845C37.6776 31.598 37.1637 32.7961 36.088 34.4865C35.5562 35.3221 35.1051 35.9258 34.7339 36.3148C34.5483 36.5093 34.3951 36.6369 34.2739 36.7131C34.1496 36.7913 34.0912 36.7952 34.0855 36.7952C34.0839 36.7952 34.0334 36.7978 33.9278 36.6938C33.8186 36.5861 33.6859 36.3969 33.5397 36.0957C33.2481 35.4947 32.9551 34.5588 32.6691 33.2624L32.6693 33.2623L32.6659 33.2488C32.48 32.5052 32.1368 30.5672 31.6352 27.4035C31.3975 25.8987 30.9517 24.7154 30.2427 23.9289C29.5102 23.1164 28.5409 22.7762 27.4002 22.8856C26.8645 22.9346 26.258 23.1924 25.6004 23.5912C24.933 23.9959 24.169 24.5734 23.3108 25.3146L23.3107 25.3145L23.3018 25.3225C22.0724 26.4367 20.8227 27.551 19.5545 28.6655L19.2007 28.9764L19.49 29.3481L20.7028 30.9063L20.9947 31.2813L21.3841 31.0088C21.9579 30.6071 22.4037 30.312 22.7255 30.1191C22.8871 30.0222 23.0087 29.9564 23.0945 29.9164C23.121 29.9041 23.1412 29.8956 23.1557 29.8899C23.3224 29.9099 23.6055 30.0677 23.9728 30.6827C24.3522 31.3181 24.737 32.3063 25.1176 33.6761C25.1177 33.6764 25.1178 33.6768 25.1179 33.6771L27.1951 41.2945L27.2012 41.3168L27.2093 41.3385C27.7399 42.7533 28.3449 43.8587 29.041 44.6178C29.7453 45.3858 30.5635 45.8187 31.4879 45.8187C32.8552 45.8187 34.3083 45.181 35.8328 44.0131C37.3618 42.8417 39.0081 41.1024 40.7728 38.8143C42.4775 36.6252 43.7815 34.6546 44.6758 32.9049C45.568 31.1594 46.0674 29.605 46.1297 28.2552L46.1297 28.2551C46.2091 26.5293 45.9332 25.1302 45.2116 24.1422C44.4725 23.1305 43.3323 22.6375 41.8936 22.5956ZM41.8936 22.5956C41.8934 22.5956 41.8931 22.5956 41.8929 22.5956L41.8785 23.0909M41.8936 22.5956C41.8939 22.5956 41.8942 22.5956 41.8945 22.5956L41.8785 23.0909M41.8785 23.0909H41.8785M41.8785 23.0909H41.6356C41.6379 23.0909 41.6402 23.0909 41.6425 23.0909C41.7205 23.0914 41.7991 23.0928 41.8784 23.0954C41.9351 23.097 41.9911 23.0994 42.0465 23.1025V23.0909V23.0909H41.8785M41.8785 23.0909L41.8785 23.0909L41.8785 23.0909M23.183 29.8805C23.183 29.8805 23.1818 29.8809 23.1794 29.8814C23.1819 29.8807 23.1831 29.8804 23.183 29.8805ZM16.5 22.9446C16.5 19.3733 19.3733 16.5 22.9446 16.5H45.0554C48.6267 16.5 51.5 19.3733 51.5 22.9446V45.0554C51.5 48.6267 48.6267 51.5 45.0554 51.5H22.9446C19.3733 51.5 16.5 48.6267 16.5 45.0554V22.9446Z" stroke="white"/>
</g>
<defs>
<clipPath id="clip0_175_270">
<rect width="36" height="36" stroke="white" transform="translate(16 16)"/>
</clipPath>
</defs>
</svg>
